<svg width="14" height="15" viewBox="0 0 14 15" fill="none" xmlns="http://www.w3.org/2000/svg">
<path d="M7.00065 0.833374C8.81198 0.833374 9.03798 0.840041 9.74865 0.873374C10.4587 0.906707 10.942 1.01804 11.3673 1.18337C11.8073 1.35271 12.178 1.58204 12.5487 1.95204C12.8876 2.2853 13.15 2.68843 13.3173 3.13337C13.482 3.55804 13.594 4.04204 13.6273 4.75204C13.6587 5.46271 13.6673 5.68871 13.6673 7.50004C13.6673 9.31137 13.6607 9.53737 13.6273 10.248C13.594 10.958 13.482 11.4414 13.3173 11.8667C13.1504 12.3119 12.8881 12.7151 12.5487 13.048C12.2153 13.3869 11.8122 13.6492 11.3673 13.8167C10.9426 13.9814 10.4587 14.0934 9.74865 14.1267C9.03798 14.158 8.81198 14.1667 7.00065 14.1667C5.18932 14.1667 4.96332 14.16 4.25265 14.1267C3.54265 14.0934 3.05932 13.9814 2.63398 13.8167C2.18887 13.6497 1.78567 13.3873 1.45265 13.048C1.11359 12.7148 0.851272 12.3117 0.683984 11.8667C0.518651 11.442 0.407318 10.958 0.373984 10.248C0.342651 9.53737 0.333984 9.31137 0.333984 7.50004C0.333984 5.68871 0.340651 5.46271 0.373984 4.75204C0.407318 4.04137 0.518651 3.55871 0.683984 3.13337C0.850808 2.68816 1.11319 2.28492 1.45265 1.95204C1.78576 1.61286 2.18894 1.35053 2.63398 1.18337C3.05932 1.01804 3.54198 0.906707 4.25265 0.873374C4.96332 0.842041 5.18932 0.833374 7.00065 0.833374ZM7.00065 4.16671C6.1166 4.16671 5.26875 4.5179 4.64363 5.14302C4.01851 5.76814 3.66732 6.61599 3.66732 7.50004C3.66732 8.3841 4.01851 9.23194 4.64363 9.85706C5.26875 10.4822 6.1166 10.8334 7.00065 10.8334C7.88471 10.8334 8.73255 10.4822 9.35767 9.85706C9.98279 9.23194 10.334 8.3841 10.334 7.50004C10.334 6.61599 9.98279 5.76814 9.35767 5.14302C8.73255 4.5179 7.88471 4.16671 7.00065 4.16671ZM11.334 4.00004C11.334 3.77903 11.2462 3.56707 11.0899 3.41078C10.9336 3.2545 10.7217 3.16671 10.5007 3.16671C10.2796 3.16671 10.0677 3.2545 9.91139 3.41078C9.75511 3.56707 9.66732 3.77903 9.66732 4.00004C9.66732 4.22105 9.75511 4.43302 9.91139 4.5893C10.0677 4.74558 10.2796 4.83337 10.5007 4.83337C10.7217 4.83337 10.9336 4.74558 11.0899 4.5893C11.2462 4.43302 11.334 4.22105 11.334 4.00004ZM7.00065 5.50004C7.53108 5.50004 8.03979 5.71075 8.41486 6.08583C8.78994 6.4609 9.00065 6.96961 9.00065 7.50004C9.00065 8.03047 8.78994 8.53918 8.41486 8.91425C8.03979 9.28933 7.53108 9.50004 7.00065 9.50004C6.47022 9.50004 5.96151 9.28933 5.58644 8.91425C5.21136 8.53918 5.00065 8.03047 5.00065 7.50004C5.00065 6.96961 5.21136 6.4609 5.58644 6.08583C5.96151 5.71075 6.47022 5.50004 7.00065 5.50004Z" fill="white"/>
</svg>
