<svg width="105" height="59" viewBox="0 0 105 59" fill="none" xmlns="http://www.w3.org/2000/svg">
<path d="M11.1636 0.419434C14.3047 0.419434 17.0497 1.04199 19.3984 2.28711C21.7472 3.53223 23.5582 5.28672 24.8316 7.55057C26.1334 9.78613 26.7842 12.3754 26.7842 15.3184C26.7842 18.2331 26.1334 20.8224 24.8316 23.0863C23.5582 25.3501 21.733 27.1046 19.356 28.3497C17.0072 29.5949 14.2764 30.2174 11.1636 30.2174H0V0.419434H11.1636ZM10.6967 23.9352C13.4416 23.9352 15.5781 23.1853 17.1062 21.6855C18.6344 20.1857 19.3984 18.0633 19.3984 15.3184C19.3984 12.5735 18.6344 10.437 17.1062 8.90889C15.5781 7.38078 13.4416 6.61673 10.6967 6.61673H7.25848V23.9352H10.6967Z" fill="#D70601"/>
<path d="M38.0991 6.23471V12.2622H47.8195V17.8653H38.0991V24.4021H49.0929V30.2174H30.8406V0.419434H49.0929V6.23471H38.0991Z" fill="#D70601"/>
<path d="M61.0637 6.23471V12.2622H70.7841V17.8653H61.0637V24.4021H72.0575V30.2174H53.8052V0.419434H72.0575V6.23471H61.0637Z" fill="#D70601"/>
<path d="M103.427 30.2174H96.1683L84.0284 11.8377V30.2174H76.7699V0.419434H84.0284L96.1683 18.884V0.419434H103.427V30.2174Z" fill="#D70601"/>
<path d="M5.46896 42.1369C5.55385 42.0366 5.63102 42.0636 5.70047 42.2179C5.74678 42.3182 5.75835 42.4186 5.7352 42.5189C5.63488 42.9047 5.24902 43.4372 4.57763 44.1163C3.90623 44.7954 3.26185 45.2585 2.64448 45.5054C1.82646 45.8295 1.20137 45.8565 0.769208 45.5864C0.352481 45.3318 0.105532 44.9189 0.0283606 44.3478C-0.0256596 43.9465 -0.00250808 43.4449 0.097815 42.843C0.198138 42.2951 0.360198 41.6661 0.583996 40.9561C0.962137 39.7446 1.46375 38.4558 2.08884 37.0899C2.35123 36.5188 2.59818 36.0172 2.82969 35.585C3.05349 35.1683 3.24642 34.8596 3.40848 34.6589C3.44706 34.5972 3.50494 34.5818 3.58211 34.6126C3.667 34.6435 3.74031 34.6821 3.80205 34.7284C3.86379 34.7747 3.91395 34.821 3.95254 34.8673C4.13775 35.0911 4.16862 35.284 4.04514 35.4461C4.06058 35.4229 4.06829 35.4114 4.06829 35.4114L4.03357 35.4577C4.01813 35.4808 4.0027 35.5078 3.98726 35.5387C3.64771 36.048 3.20783 36.9008 2.66763 38.0969C2.06569 39.4474 1.59109 40.6976 1.24381 41.8475C1.19751 42.0018 1.15507 42.1523 1.11648 42.2989C1.07789 42.4301 1.04703 42.5613 1.02387 42.6925C0.946703 42.9858 0.888824 43.2597 0.850238 43.5144C0.811652 43.7845 0.788501 44.0314 0.780784 44.2552C0.780784 44.3093 0.780784 44.3633 0.780784 44.4173C0.780784 44.425 0.780784 44.4443 0.780784 44.4752C0.780784 44.4752 0.780784 44.479 0.780784 44.4868C0.788501 44.6025 0.800077 44.6951 0.815511 44.7646C0.815511 44.7723 0.819369 44.7877 0.827087 44.8109C0.834804 44.8263 0.842521 44.8495 0.850238 44.8803C0.857955 44.8803 0.865672 44.8803 0.87339 44.8803C1.42131 44.9343 2.06183 44.753 2.79496 44.3363C3.75961 43.7961 4.65094 43.0629 5.46896 42.1369ZM0.861814 44.9151V44.9035C0.861814 44.9112 0.861814 44.9151 0.861814 44.9151Z" fill="#FAFAFA"/>
<path d="M11.8979 42.0558C11.9751 41.9864 12.0484 41.9941 12.1179 42.079C12.195 42.1639 12.2143 42.2411 12.1757 42.3105C11.9056 42.7581 11.4272 43.1208 10.7404 43.3986C10.0535 43.6764 9.37056 43.7883 8.69145 43.7343C8.66829 43.7883 8.64514 43.8347 8.62199 43.8732C8.29787 44.5369 7.86185 44.9459 7.31393 45.1003C6.95123 45.2006 6.59624 45.1659 6.24896 44.9961C5.90941 44.8263 5.65088 44.5716 5.47339 44.2321C5.14927 43.5916 5.12998 42.8546 5.41551 42.0211C5.47725 41.8591 5.5467 41.7009 5.62387 41.5465C5.70876 41.3922 5.80523 41.2494 5.91327 41.1182C6.02131 40.9793 6.14478 40.8558 6.28369 40.7478C6.43032 40.6397 6.5808 40.5587 6.73515 40.5047C6.75058 40.5047 6.76601 40.5008 6.78145 40.4931C7.02068 40.3928 7.29078 40.3812 7.59175 40.4584C7.83098 40.5124 8.04706 40.6166 8.23999 40.7709C8.43292 40.9253 8.58726 41.1105 8.70302 41.3266C8.81878 41.5349 8.89981 41.7626 8.94611 42.0095C8.99241 42.2874 8.99241 42.5845 8.94611 42.9009C8.94611 42.9009 8.94997 42.9047 8.95769 42.9124C8.9654 42.9124 8.96926 42.9124 8.96926 42.9124C9.72554 42.9665 10.4548 42.8353 11.1571 42.5189C11.1725 42.5112 11.1879 42.5034 11.2034 42.4957C11.2343 42.4803 11.2651 42.4649 11.296 42.4494C11.3423 42.4186 11.3925 42.3915 11.4465 42.3684C11.5314 42.3144 11.6124 42.2603 11.6896 42.2063C11.7822 42.1446 11.8516 42.0944 11.8979 42.0558ZM7.63805 41.2803C7.58403 41.2803 7.53387 41.2841 7.48757 41.2918C7.36409 41.3073 7.26763 41.3497 7.19817 41.4192C7.18274 41.4346 7.16345 41.4539 7.1403 41.4771C7.13258 41.4848 7.12486 41.4925 7.11715 41.5002C7.09399 41.5542 7.0747 41.6005 7.05927 41.6391C7.05927 41.6391 7.05927 41.643 7.05927 41.6507C7.05155 41.6738 7.04769 41.6893 7.04769 41.697C7.04769 41.7279 7.04769 41.7587 7.04769 41.7896C7.04769 41.7973 7.04769 41.805 7.04769 41.8128C7.04769 41.805 7.04769 41.8012 7.04769 41.8012C7.04769 41.8089 7.04769 41.8128 7.04769 41.8128V41.8243C7.04769 41.8629 7.05155 41.8899 7.05927 41.9054C7.05927 41.9208 7.06313 41.9401 7.07084 41.9632V41.9864L7.09399 42.0211C7.09399 42.0366 7.10171 42.0597 7.11715 42.0906V42.1021C7.12486 42.1176 7.12872 42.1253 7.12872 42.1253C7.12872 42.1176 7.12872 42.1099 7.12872 42.1021C7.12872 42.1176 7.13258 42.1292 7.1403 42.1369C7.14801 42.1523 7.16345 42.1793 7.1866 42.2179C7.20203 42.2411 7.20975 42.2526 7.20975 42.2526C7.20203 42.2372 7.19432 42.2256 7.1866 42.2179C7.19432 42.2333 7.20203 42.2488 7.20975 42.2642C7.22519 42.2719 7.24062 42.2835 7.25605 42.2989C7.27149 42.3144 7.28306 42.3298 7.29078 42.3452C7.2985 42.353 7.30622 42.3568 7.31393 42.3568C7.3448 42.3877 7.37953 42.4224 7.41811 42.461C7.44127 42.4764 7.4567 42.488 7.46442 42.4957C7.503 42.5189 7.53773 42.5382 7.5686 42.5536C7.59175 42.569 7.6149 42.5806 7.63805 42.5883C7.76925 42.6578 7.91587 42.7157 8.07793 42.762C8.08565 42.7234 8.09337 42.6887 8.10108 42.6578C8.1088 42.6578 8.11266 42.6462 8.11266 42.6231C8.11266 42.6231 8.11266 42.6192 8.11266 42.6115C8.12809 42.5729 8.13581 42.542 8.13581 42.5189C8.16668 42.3877 8.18597 42.2565 8.19369 42.1253C8.19369 42.0867 8.19369 42.0211 8.19369 41.9285C8.19369 41.9208 8.19369 41.9131 8.19369 41.9054C8.19369 41.8976 8.19369 41.8861 8.19369 41.8706C8.19369 41.8475 8.19369 41.832 8.19369 41.8243C8.18597 41.7626 8.1744 41.7009 8.15896 41.6391C8.15896 41.6391 8.1551 41.6275 8.14739 41.6044V41.5812C8.13967 41.5658 8.13581 41.5581 8.13581 41.5581C8.13581 41.5427 8.13195 41.5272 8.12424 41.5118C8.11652 41.4964 8.1088 41.4848 8.10108 41.4771C8.10108 41.4616 8.09337 41.4462 8.07793 41.4308C8.07793 41.423 8.07021 41.4115 8.05478 41.396C8.05478 41.396 8.05092 41.3922 8.0432 41.3845C8.03549 41.3767 8.02777 41.3729 8.02005 41.3729C8.02005 41.3729 8.01619 41.369 8.00848 41.3613C8.01619 41.3613 8.02005 41.3613 8.02005 41.3613C8.01234 41.3613 8.00848 41.3613 8.00848 41.3613C7.99304 41.3536 7.98147 41.3497 7.97375 41.3497C7.96603 41.342 7.95832 41.3381 7.9506 41.3381C7.94288 41.3304 7.92745 41.3266 7.90429 41.3266C7.88886 41.3189 7.87729 41.315 7.86957 41.315C7.86185 41.3073 7.85413 41.3034 7.84642 41.3034C7.76925 41.288 7.69979 41.2803 7.63805 41.2803ZM7.44127 43.8501C7.53387 43.7652 7.61104 43.6764 7.67278 43.5838C7.68821 43.5607 7.70365 43.5337 7.71908 43.5028C7.43355 43.3716 7.17502 43.1826 6.94351 42.9356C6.71199 42.6887 6.53836 42.4108 6.4226 42.1021C6.25282 42.3722 6.13707 42.6616 6.07533 42.9703C6.03674 43.1247 6.01359 43.279 6.00587 43.4334C5.99816 43.5105 5.99816 43.5877 6.00587 43.6649C6.00587 43.6726 6.00587 43.6764 6.00587 43.6764C6.00587 43.6842 6.00587 43.6957 6.00587 43.7112C6.00587 43.7189 6.00587 43.7305 6.00587 43.7459C6.00587 43.7536 6.00587 43.7613 6.00587 43.7691C6.01359 43.7768 6.01745 43.7883 6.01745 43.8038C6.01745 43.8269 6.02131 43.8617 6.02903 43.908C6.04446 43.9465 6.05218 43.9774 6.05218 44.0006C6.05218 44.0083 6.05604 44.016 6.06375 44.0237C6.07919 44.0623 6.0869 44.0893 6.0869 44.1048C6.0869 44.1048 6.09076 44.1086 6.09848 44.1163C6.11391 44.1472 6.12549 44.1665 6.13321 44.1742C6.14092 44.1896 6.14864 44.2012 6.15636 44.2089C6.16408 44.2089 6.17179 44.2128 6.17951 44.2205L6.21424 44.2321C6.21424 44.2321 6.2181 44.2359 6.22581 44.2437C6.24125 44.2437 6.25282 44.2475 6.26054 44.2552C6.26826 44.2552 6.27597 44.2591 6.28369 44.2668C6.28369 44.2668 6.29141 44.2668 6.30684 44.2668C6.36086 44.2745 6.38787 44.2784 6.38787 44.2784C6.43418 44.2861 6.4882 44.29 6.54993 44.29C6.54993 44.29 6.55765 44.29 6.57309 44.29C6.59624 44.29 6.61167 44.2861 6.61939 44.2784C6.65026 44.2784 6.68113 44.2745 6.71199 44.2668C6.76601 44.2591 6.82003 44.2437 6.87405 44.2205C6.89721 44.2128 6.92807 44.2051 6.96666 44.1974C6.96666 44.1896 6.97438 44.1858 6.98981 44.1858C7.00525 44.1781 7.01296 44.1742 7.01296 44.1742C7.06698 44.1433 7.11329 44.1163 7.15187 44.0932C7.2522 44.0237 7.34866 43.9427 7.44127 43.8501ZM6.17951 44.2205C6.19494 44.2282 6.20652 44.2321 6.21424 44.2321C6.20652 44.2244 6.19494 44.2205 6.17951 44.2205ZM8.00848 41.3613C7.99304 41.3536 7.98147 41.3497 7.97375 41.3497C7.98918 41.3574 8.00076 41.3613 8.00848 41.3613ZM7.04769 41.8128C7.04769 41.8128 7.04769 41.8166 7.04769 41.8243V41.8128ZM7.12872 42.1021C7.121 42.1021 7.11715 42.1021 7.11715 42.1021C7.11715 42.0944 7.121 42.0944 7.12872 42.1021Z" fill="#FAFAFA"/>
<path d="M19.4864 42.1253C19.5404 42.1562 19.5713 42.2025 19.579 42.2642C19.5944 42.3182 19.5828 42.3568 19.5442 42.38C19.5134 42.3877 19.4748 42.407 19.4285 42.4378C18.7417 42.8237 18.0201 43.2713 17.2638 43.7806C16.3223 44.4134 15.4927 45.0347 14.775 45.6443C14.7673 45.6598 14.7596 45.6752 14.7519 45.6906C14.7442 45.7138 14.7403 45.7331 14.7403 45.7485C14.2927 47.1299 13.8528 48.2682 13.4207 49.1634C13.166 49.6958 12.9268 50.1164 12.703 50.4251C12.4174 50.8032 12.1512 51.0348 11.9043 51.1197C11.7499 51.1737 11.5879 51.1698 11.4181 51.1081C11.2637 51.0463 11.1287 50.9537 11.0129 50.8303C10.8972 50.7068 10.8161 50.5679 10.7698 50.4135C10.7158 50.2592 10.7004 50.047 10.7235 49.7769C10.7621 49.2367 10.9435 48.6733 11.2676 48.0868C11.8155 47.099 12.7454 46.0456 14.0573 44.9266C14.1577 44.6025 14.2618 44.263 14.3699 43.908C14.0303 44.263 13.6831 44.5099 13.3281 44.6488C12.9036 44.8186 12.5216 44.7839 12.1821 44.5446C11.7808 44.2668 11.5686 43.8694 11.5454 43.3523C11.4991 42.6269 11.8155 41.8938 12.4946 41.1529C12.9885 40.605 13.5442 40.2076 14.1615 39.9606C14.3853 39.868 14.6438 39.8372 14.9371 39.868C15.431 39.922 15.813 40.2616 16.0831 40.8867C16.1217 40.9716 16.1255 41.0603 16.0947 41.1529C16.0638 41.2455 15.9944 41.288 15.8863 41.2803C15.7783 41.2648 15.6779 41.2108 15.5853 41.1182C15.4927 41.0256 15.4194 40.9214 15.3654 40.8057C15.3654 40.7902 15.3615 40.7787 15.3538 40.7709C15.3538 40.7632 15.35 40.7594 15.3423 40.7594C15.3423 40.7516 15.3423 40.7478 15.3423 40.7478C15.3345 40.7478 15.3307 40.7439 15.3307 40.7362C15.1995 40.7131 15.0644 40.7131 14.9255 40.7362C14.8638 40.7439 14.7828 40.7671 14.6824 40.8057C14.667 40.8134 14.6361 40.825 14.5898 40.8404C14.5898 40.8404 14.5783 40.8481 14.5551 40.8635H14.5435C14.4895 40.8944 14.4316 40.9253 14.3699 40.9561C14.0766 41.1259 13.7911 41.3266 13.5133 41.5581C12.7956 42.1986 12.3982 42.8584 12.321 43.5375C12.321 43.5761 12.3171 43.6147 12.3094 43.6533C12.3094 43.661 12.3094 43.6726 12.3094 43.688C12.3094 43.7035 12.3094 43.7112 12.3094 43.7112C12.3171 43.7575 12.3287 43.8115 12.3441 43.8732C12.3519 43.8732 12.3557 43.8732 12.3557 43.8732C12.3634 43.8732 12.3711 43.8771 12.3789 43.8848C12.4329 43.8848 12.4599 43.8848 12.4599 43.8848C12.5216 43.8848 12.5949 43.8732 12.6798 43.8501C12.8187 43.8115 12.9654 43.7382 13.1197 43.6301C13.3975 43.4449 13.6522 43.2173 13.8837 42.9472C14.1152 42.6771 14.3583 42.3452 14.613 41.9517C14.6361 41.9285 14.6709 41.8822 14.7172 41.8128C14.7635 41.7356 14.8021 41.6777 14.8329 41.6391C14.9024 41.5388 14.9448 41.4809 14.9603 41.4655C15.076 41.3729 15.2304 41.4115 15.4233 41.5812C15.5699 41.7124 15.6548 41.8668 15.6779 42.0443C15.7011 42.1523 15.6702 42.3954 15.5853 42.7735C15.4927 43.1594 15.3847 43.5761 15.2612 44.0237C16.1564 43.4063 17.0169 42.897 17.8426 42.4957C18.6761 42.0867 19.224 41.9632 19.4864 42.1253ZM15.3423 40.7478C15.35 40.7478 15.3538 40.7516 15.3538 40.7594C15.3461 40.7516 15.3423 40.7478 15.3423 40.7478ZM15.5969 42.2526L15.6085 42.2411C15.6008 42.2488 15.5969 42.2526 15.5969 42.2526ZM12.5872 48.6887C12.8187 48.2411 13.0541 47.7087 13.2933 47.0913C13.2933 47.0836 13.2933 47.072 13.2933 47.0566C13.3011 47.0488 13.3088 47.0373 13.3165 47.0218C13.3242 47.0141 13.3281 47.0025 13.3281 46.9871C12.4869 47.8669 11.9274 48.7196 11.6496 49.5453C11.6264 49.6148 11.6033 49.6843 11.5801 49.7537C11.5801 49.7769 11.5763 49.7923 11.5686 49.8C11.5608 49.8386 11.557 49.8733 11.557 49.9042C11.5338 50.0045 11.5184 50.1048 11.5107 50.2052C11.5261 50.1897 11.5415 50.1782 11.557 50.1704C11.6573 50.0933 11.7731 49.9775 11.9043 49.8232C11.9043 49.8232 11.912 49.8154 11.9274 49.8C11.9506 49.7769 11.966 49.7576 11.9737 49.7421C11.9969 49.7113 12.02 49.6765 12.0432 49.638C12.1049 49.5454 12.1666 49.4489 12.2284 49.3486C12.3441 49.1556 12.4638 48.9357 12.5872 48.6887Z" fill="#FAFAFA"/>
<path d="M23.5403 42.0906C23.6252 42.0134 23.6792 42.0597 23.7024 42.2295C23.7178 42.3684 23.7024 42.4996 23.6561 42.6231C23.6252 42.7002 23.5365 42.8314 23.3898 43.0166C23.2432 43.2018 23.0387 43.4218 22.7763 43.6764C22.5217 43.9311 22.2438 44.1742 21.9429 44.4057C21.6496 44.6295 21.3178 44.8186 20.9474 44.9729C20.5769 45.135 20.2219 45.216 19.8824 45.216C19.4811 45.216 19.1415 44.9999 18.8637 44.5678C18.6939 44.2977 18.6168 43.9581 18.6322 43.5491C18.6631 43.0166 18.8676 42.3144 19.2457 41.4423C19.4232 41.0256 19.6046 40.6513 19.7898 40.3195C19.8824 40.1497 20.0406 40.1613 20.2644 40.3542C20.4805 40.5394 20.5769 40.7208 20.5538 40.8983C20.5461 40.9291 20.5345 40.96 20.519 40.9909C20.3184 41.3536 20.1216 41.7626 19.9287 42.2179C19.7821 42.5729 19.6624 42.9009 19.5698 43.2018C19.5621 43.2404 19.5505 43.2906 19.5351 43.3523C19.5351 43.3523 19.5313 43.36 19.5235 43.3755C19.5235 43.3909 19.5197 43.4025 19.512 43.4102C19.4965 43.5028 19.4811 43.58 19.4657 43.6417C19.4348 43.8115 19.4194 43.962 19.4194 44.0932C19.4116 44.1086 19.4116 44.1433 19.4194 44.1974C19.4194 44.1974 19.4194 44.2051 19.4194 44.2205V44.2668L19.4309 44.3363C19.4541 44.344 19.4695 44.3478 19.4772 44.3478C19.6084 44.3633 19.7666 44.3556 19.9518 44.3247C20.6078 44.2012 21.3988 43.7961 22.3249 43.1092C22.7956 42.7542 23.2008 42.4147 23.5403 42.0906ZM20.4612 39.6597C20.3763 39.5825 20.3068 39.486 20.2528 39.3703C20.1988 39.2468 20.1911 39.1388 20.2297 39.0462C20.2837 38.915 20.3686 38.7182 20.4843 38.4558C20.5152 38.3941 20.5654 38.3632 20.6348 38.3632C20.7043 38.3555 20.766 38.3709 20.82 38.4095C20.8818 38.4404 20.9396 38.4751 20.9937 38.5137C21.0785 38.5908 21.148 38.6873 21.202 38.8031C21.256 38.9188 21.2638 39.0269 21.2252 39.1272C21.1634 39.2584 21.0785 39.4513 20.9705 39.706C20.9396 39.7754 20.8895 39.8102 20.82 39.8102C20.7506 39.8102 20.685 39.7947 20.6232 39.7638C20.5692 39.733 20.5152 39.6983 20.4612 39.6597Z" fill="#FAFAFA"/>
<path d="M28.2724 42.0327C28.3495 41.9247 28.419 41.9555 28.4807 42.1253C28.5116 42.2179 28.5232 42.2989 28.5154 42.3684C28.4846 42.5845 28.3572 42.8507 28.1334 43.1671C27.9096 43.4835 27.6203 43.8076 27.2653 44.1395C26.9103 44.4713 26.4743 44.7916 25.9572 45.1003C25.4402 45.4167 24.9 45.6713 24.3366 45.8643C23.9276 45.9955 23.4607 46.0533 22.9359 46.0379C22.6504 46.0302 22.4266 45.9993 22.2645 45.9453C22.0716 45.8681 21.9327 45.7176 21.8478 45.4938C21.8169 45.4321 21.8092 45.3549 21.8247 45.2623C21.8324 45.1774 21.8748 45.1273 21.952 45.1118C21.9829 45.1041 22.0176 45.1003 22.0562 45.1003H22.0793C22.1025 45.1003 22.1411 45.1041 22.1951 45.1118C22.2414 45.1196 22.2761 45.1234 22.2993 45.1234C22.3919 45.1311 22.4845 45.135 22.5771 45.135C22.5848 45.135 22.6388 45.135 22.7391 45.135C22.7391 45.135 22.743 45.135 22.7507 45.135C22.7507 45.135 22.7507 45.1311 22.7507 45.1234C22.7584 45.1234 22.77 45.1234 22.7855 45.1234C22.8086 45.1234 22.824 45.1234 22.8318 45.1234C23.0787 45.108 23.2909 45.0694 23.4684 45.0077C23.4993 44.9999 23.5495 44.9806 23.6189 44.9498L23.6305 44.9382C23.6382 44.9382 23.6459 44.9343 23.6536 44.9266C23.6691 44.9189 23.6806 44.9112 23.6884 44.9035C23.7655 44.8572 23.835 44.7993 23.8967 44.7298C23.9122 44.7221 23.9314 44.6913 23.9546 44.6372C23.9623 44.6295 23.9739 44.6102 23.9893 44.5794C23.9893 44.5716 23.9932 44.5601 24.0009 44.5446V44.5215L24.0125 44.4868C24.0125 44.4559 24.0125 44.4289 24.0125 44.4057C24.0125 44.4057 24.0125 44.3903 24.0125 44.3594C24.0125 44.3208 24.0125 44.3015 24.0125 44.3015C24.0125 44.2861 24.0048 44.2437 23.9893 44.1742C23.9893 44.1742 23.9893 44.1703 23.9893 44.1626V44.1511C23.9353 44.0121 23.9006 43.9195 23.8851 43.8732C23.7694 43.58 23.6768 43.3022 23.6073 43.0398C23.5224 42.7388 23.4568 42.4803 23.4105 42.2642C23.3642 42.0481 23.3449 41.7896 23.3527 41.4886C23.3604 41.1877 23.4144 40.9253 23.5147 40.7015C23.6459 40.4237 23.8581 40.2307 24.1514 40.1227C24.4446 40.0147 24.7263 40.0378 24.9964 40.1922C25.0967 40.2539 25.1816 40.3465 25.2511 40.47C25.3283 40.5857 25.363 40.6976 25.3553 40.8057C25.3398 40.906 25.2897 40.9639 25.2048 40.9793C25.1199 40.9947 25.0427 40.9793 24.9733 40.933C24.9733 40.933 24.9733 40.9369 24.9733 40.9446C24.981 40.9446 24.9887 40.9446 24.9964 40.9446C24.981 40.9369 24.9694 40.933 24.9617 40.933C24.9617 40.933 24.9578 40.933 24.9501 40.933C24.9501 40.933 24.9463 40.933 24.9385 40.933C24.9385 40.933 24.9308 40.933 24.9154 40.933C24.9077 40.933 24.9 40.933 24.8922 40.933C24.8305 40.9253 24.7533 40.9369 24.6607 40.9677C24.6607 40.9754 24.6376 40.987 24.5913 41.0025H24.5797L24.5681 41.014C24.5064 41.0526 24.4601 41.0873 24.4292 41.1182C24.4215 41.1182 24.4138 41.1221 24.4061 41.1298C24.3983 41.1375 24.3906 41.1491 24.3829 41.1645C24.3752 41.1722 24.3675 41.1799 24.3598 41.1877C24.3598 41.1877 24.3559 41.1915 24.3482 41.1992L24.3366 41.2108C24.298 41.2726 24.271 41.3266 24.2556 41.3729C24.2247 41.4192 24.2015 41.4771 24.1861 41.5465C24.1861 41.5465 24.1823 41.5697 24.1745 41.616C24.1668 41.6546 24.1591 41.6931 24.1514 41.7317C24.1437 41.8089 24.1398 41.8938 24.1398 41.9864C24.1398 42.0481 24.1398 42.106 24.1398 42.16C24.1552 42.353 24.1861 42.5613 24.2324 42.7851C24.2787 42.978 24.3636 43.2559 24.4871 43.6186C24.6106 43.9736 24.68 44.1742 24.6954 44.2205C24.7418 44.3826 24.7726 44.5408 24.7881 44.6951C25.0582 44.5871 25.3205 44.4675 25.5752 44.3363C26.7791 43.7035 27.6781 42.9356 28.2724 42.0327Z" fill="#FAFAFA"/>
<path d="M28.9466 46.0147C28.9466 46.007 28.9428 46.0032 28.9351 46.0032L28.9466 46.0147ZM34.9429 37.3445C34.9583 37.4448 34.9313 37.5259 34.8618 37.5876C34.8001 37.6416 34.7229 37.6455 34.6303 37.5992C34.5146 37.5529 34.3872 37.5066 34.2483 37.4603C34.2406 37.4603 34.229 37.4564 34.2136 37.4487C34.1982 37.4487 34.1866 37.4487 34.1789 37.4487C34.1403 37.4333 34.1094 37.4255 34.0863 37.4255C34.0168 37.4101 33.9474 37.3947 33.8779 37.3792C33.5847 37.3329 33.2605 37.3098 32.9055 37.3098C32.1801 37.3021 31.3775 37.3754 30.4978 37.5297C29.7415 39.405 29.2206 41.0565 28.9351 42.4841C28.827 43.0166 28.7537 43.5067 28.7151 43.9543C28.6997 44.1935 28.692 44.4173 28.692 44.6257C28.692 44.6565 28.692 44.7183 28.692 44.8109C28.692 44.8186 28.692 44.8263 28.692 44.834C28.692 44.8649 28.692 44.8842 28.692 44.8919C28.6997 44.9922 28.7113 45.0887 28.7267 45.1813C28.7344 45.2816 28.7499 45.3819 28.773 45.4823C28.7807 45.5286 28.7884 45.571 28.7962 45.6096C28.7962 45.6173 28.7962 45.625 28.7962 45.6327C28.8039 45.6482 28.8077 45.6559 28.8077 45.6559C28.854 45.7871 28.881 45.872 28.8888 45.9106C28.8965 45.9183 28.9003 45.926 28.9003 45.9337C28.9081 45.9492 28.9158 45.9607 28.9235 45.9684C28.9312 45.9839 28.9351 45.9955 28.9351 46.0032C28.9351 46.0032 28.9351 46.007 28.9351 46.0147C28.9428 46.0225 28.9466 46.0302 28.9466 46.0379C28.9466 46.0302 28.9466 46.0225 28.9466 46.0147C28.9466 46.0225 28.9505 46.0302 28.9582 46.0379C28.9659 46.0533 28.9891 46.0919 29.0277 46.1537C29.0277 46.1537 29.0277 46.1575 29.0277 46.1652C29.0354 46.173 29.0585 46.2038 29.0971 46.2578H29.1087C29.1164 46.2733 29.1473 46.3041 29.2013 46.3504C29.2862 46.4122 29.3556 46.4546 29.4097 46.4778C29.51 46.5318 29.5949 46.6205 29.6643 46.744C29.7415 46.8675 29.7762 46.9794 29.7685 47.0797C29.7531 47.1878 29.6952 47.2456 29.5949 47.2534C29.5023 47.2611 29.4174 47.2418 29.3402 47.1955C28.9312 46.9794 28.6071 46.6514 28.3679 46.2115C28.1363 45.7794 27.9936 45.3048 27.9396 44.7877C27.8624 43.9774 27.9434 43.0012 28.1826 41.8591C28.3833 40.9021 28.6843 39.8449 29.0855 38.6873C29.1859 38.3941 29.2978 38.0854 29.4212 37.7612C29.2901 37.7921 29.1666 37.823 29.0508 37.8539C27.7929 38.1625 26.8283 38.4751 26.1569 38.7915C26.0643 38.8378 25.964 38.8146 25.8559 38.722C25.7402 38.6294 25.6553 38.533 25.6013 38.4326C25.4623 38.1857 25.4816 38.0198 25.6591 37.9349C25.9987 37.7728 26.4656 37.5992 27.0598 37.414C28.0013 37.113 28.9235 36.8776 29.8264 36.7079C30.0811 36.0982 30.3627 35.4461 30.6714 34.7516C30.7486 34.5818 30.8914 34.5856 31.0997 34.7631C31.3158 34.9329 31.4238 35.1143 31.4238 35.3072C31.4238 35.3458 31.4161 35.3805 31.4007 35.4114C31.2078 35.8512 31.0418 36.2294 30.9029 36.5458C31.3737 36.4918 31.7827 36.457 32.13 36.4416C32.4772 36.4185 32.8708 36.4339 33.3107 36.4879C33.7583 36.5342 34.1519 36.6345 34.4914 36.7889C34.6072 36.8352 34.7075 36.9124 34.7924 37.0204C34.8773 37.1207 34.9274 37.2288 34.9429 37.3445Z" fill="#FAFAFA"/>
<path d="M35.5908 42.0906C35.6757 42.0134 35.7298 42.0597 35.7529 42.2295C35.7683 42.3684 35.7529 42.4996 35.7066 42.6231C35.6757 42.7002 35.587 42.8314 35.4404 43.0166C35.2937 43.2018 35.0892 43.4218 34.8268 43.6764C34.5722 43.9311 34.2944 44.1742 33.9934 44.4057C33.7001 44.6295 33.3683 44.8186 32.9979 44.9729C32.6275 45.135 32.2725 45.216 31.9329 45.216C31.5316 45.216 31.1921 44.9999 30.9142 44.5678C30.7445 44.2977 30.6673 43.9581 30.6827 43.5491C30.7136 43.0166 30.9181 42.3144 31.2962 41.4423C31.4737 41.0256 31.6551 40.6513 31.8403 40.3195C31.9329 40.1497 32.0911 40.1613 32.3149 40.3542C32.531 40.5394 32.6275 40.7208 32.6043 40.8983C32.5966 40.9291 32.585 40.96 32.5696 40.9909C32.3689 41.3536 32.1721 41.7626 31.9792 42.2179C31.8326 42.5729 31.713 42.9009 31.6204 43.2018C31.6126 43.2404 31.6011 43.2906 31.5856 43.3523C31.5856 43.3523 31.5818 43.36 31.5741 43.3755C31.5741 43.3909 31.5702 43.4025 31.5625 43.4102C31.5471 43.5028 31.5316 43.58 31.5162 43.6417C31.4853 43.8115 31.4699 43.962 31.4699 44.0932C31.4622 44.1086 31.4622 44.1433 31.4699 44.1974C31.4699 44.1974 31.4699 44.2051 31.4699 44.2205V44.2668L31.4815 44.3363C31.5046 44.344 31.52 44.3478 31.5278 44.3478C31.6589 44.3633 31.8172 44.3556 32.0024 44.3247C32.6583 44.2012 33.4493 43.7961 34.3754 43.1092C34.8461 42.7542 35.2513 42.4147 35.5908 42.0906ZM32.5117 39.6597C32.4268 39.5825 32.3574 39.486 32.3033 39.3703C32.2493 39.2468 32.2416 39.1388 32.2802 39.0462C32.3342 38.915 32.4191 38.7182 32.5348 38.4558C32.5657 38.3941 32.6159 38.3632 32.6853 38.3632C32.7548 38.3555 32.8165 38.3709 32.8705 38.4095C32.9323 38.4404 32.9902 38.4751 33.0442 38.5137C33.1291 38.5908 33.1985 38.6873 33.2525 38.8031C33.3066 38.9188 33.3143 39.0269 33.2757 39.1272C33.214 39.2584 33.1291 39.4513 33.021 39.706C32.9902 39.7754 32.94 39.8102 32.8705 39.8102C32.8011 39.8102 32.7355 39.7947 32.6738 39.7638C32.6197 39.733 32.5657 39.6983 32.5117 39.6597Z" fill="#FAFAFA"/>
<path d="M40.6586 42.1253C40.728 42.0481 40.7782 42.079 40.8091 42.2179C40.8322 42.3722 40.8013 42.542 40.7165 42.7272C40.4541 43.2829 39.937 43.8385 39.1653 44.3941C38.3936 44.9421 37.6759 45.216 37.0122 45.216C36.472 45.216 36.0167 45.0308 35.6463 44.6604C35.2836 44.2822 35.1331 43.8308 35.1948 43.306C35.2411 42.8661 35.4109 42.38 35.7042 41.8475C35.9743 41.3536 36.2791 40.9407 36.6186 40.6089C36.9659 40.2693 37.2862 40.1111 37.5794 40.1343C37.9036 40.1574 38.1582 40.3388 38.3434 40.6783C38.4823 40.9176 38.5132 41.207 38.436 41.5465C38.3897 41.7549 38.2547 41.7896 38.0309 41.6507C37.8225 41.5195 37.699 41.3574 37.6605 41.1645C37.6527 41.1336 37.6489 41.1066 37.6489 41.0835C37.6334 41.0912 37.6219 41.0951 37.6142 41.0951C37.3209 41.288 37.0315 41.5967 36.746 42.0211C36.4759 42.407 36.2675 42.8006 36.1209 43.2018C36.0437 43.4102 35.9935 43.5993 35.9704 43.7691C35.955 43.8925 35.955 43.9929 35.9704 44.07C35.9704 44.0777 35.9704 44.0932 35.9704 44.1163C35.9781 44.1395 35.982 44.1549 35.982 44.1626C35.9897 44.1626 35.9936 44.1703 35.9936 44.1858C36.0013 44.1935 36.0051 44.2012 36.0051 44.2089C36.0051 44.2089 36.0051 44.2051 36.0051 44.1974V44.2089L36.0167 44.2205C36.0167 44.2205 36.0167 44.2244 36.0167 44.2321C36.0244 44.2321 36.0321 44.2359 36.0399 44.2437L36.0167 44.2089C36.0167 44.2167 36.0167 44.2205 36.0167 44.2205C36.0399 44.2282 36.063 44.2398 36.0862 44.2552C36.0939 44.2552 36.1055 44.2591 36.1209 44.2668C36.1518 44.2822 36.1672 44.29 36.1672 44.29C36.2135 44.3054 36.2405 44.3131 36.2482 44.3131C36.31 44.3285 36.3717 44.3363 36.4334 44.3363C36.7653 44.3749 37.155 44.3208 37.6026 44.1742C38.274 43.9581 38.984 43.5491 39.7325 42.9472C40.1107 42.6539 40.4193 42.38 40.6586 42.1253Z" fill="#FAFAFA"/>
<path d="M48.086 39.5902C48.0938 39.5825 48.1015 39.5786 48.1092 39.5786C48.0938 39.5786 48.086 39.5825 48.086 39.5902ZM51.1189 39.1272C51.1961 38.9651 51.3427 38.969 51.5588 39.1388C51.7748 39.3085 51.879 39.4899 51.8713 39.6828L51.8482 39.7986C51.717 40.0918 51.5163 40.3156 51.2462 40.47C50.9761 40.6243 50.6443 40.7555 50.2507 40.8635C50.4205 41.288 50.4899 41.7317 50.4591 42.1948C50.4359 42.6501 50.3202 43.0822 50.1118 43.4912C49.8803 43.9311 49.5639 44.2861 49.1626 44.5562C48.7613 44.8186 48.3176 44.9536 47.8314 44.9614C47.2989 44.9691 46.8127 44.7916 46.3728 44.4289C45.9407 44.0662 45.6513 43.6186 45.5047 43.0861C45.3503 42.5382 45.358 41.9671 45.5278 41.3729C45.7053 40.7709 45.9831 40.223 46.3613 39.7291C46.6468 39.3664 46.9516 39.0847 47.2757 38.8841C47.0442 38.5368 46.8783 38.151 46.778 37.7265C46.6777 37.3484 46.6661 36.9432 46.7433 36.5111C46.8204 36.0712 46.9748 35.6892 47.2063 35.3651C47.6384 34.7708 48.279 34.4699 49.1279 34.4622C49.4211 34.4622 49.6989 34.5162 49.9613 34.6242C50.2237 34.7245 50.4552 34.8712 50.6559 35.0641C50.8565 35.257 51.0186 35.4885 51.142 35.7586C51.4893 36.4841 51.5086 37.3291 51.1999 38.2937C51.1768 38.3632 51.1266 38.3979 51.0494 38.3979C50.98 38.3979 50.9144 38.3825 50.8526 38.3516C50.7909 38.3207 50.7407 38.286 50.7022 38.2474C50.4784 38.0468 50.3973 37.8423 50.4591 37.6339C50.5903 37.2172 50.6481 36.8313 50.6327 36.4763C50.6327 36.3914 50.625 36.3027 50.6096 36.2101C50.6018 36.1947 50.5903 36.1368 50.5748 36.0365C50.5748 36.0365 50.5748 36.0326 50.5748 36.0249C50.5517 35.9554 50.5247 35.8821 50.4938 35.8049C50.4938 35.7972 50.4822 35.7741 50.4591 35.7355C50.4514 35.7278 50.4321 35.693 50.4012 35.6313C50.4089 35.6545 50.4128 35.666 50.4128 35.666L50.3433 35.585L50.3665 35.5966C50.3665 35.5966 50.3549 35.5889 50.3317 35.5734C50.3163 35.558 50.3047 35.5426 50.297 35.5271C50.297 35.5271 50.2932 35.5271 50.2854 35.5271C50.2854 35.5194 50.2816 35.5156 50.2739 35.5156C50.2661 35.5078 50.2584 35.504 50.2507 35.504C50.243 35.4963 50.2314 35.4885 50.216 35.4808C50.2083 35.4731 50.2005 35.4692 50.1928 35.4692C50.1851 35.4615 50.1697 35.4538 50.1465 35.4461C50.0848 35.4152 50.023 35.3921 49.9613 35.3766C49.9613 35.3689 49.9382 35.3612 49.8919 35.3535C49.8456 35.3458 49.7993 35.3419 49.7529 35.3419C49.6912 35.3342 49.614 35.3303 49.5214 35.3303C49.3748 35.3226 49.2282 35.3342 49.0816 35.3651C48.4873 35.4654 48.0513 35.7779 47.7735 36.3027C47.6192 36.6037 47.5227 36.9239 47.4841 37.2635C47.4687 37.4564 47.4725 37.6378 47.4957 37.8075C47.5188 37.9387 47.5497 38.0661 47.5883 38.1895C47.6114 38.2358 47.6307 38.2783 47.6462 38.3169C47.6462 38.3246 47.65 38.34 47.6577 38.3632C47.6732 38.3786 47.6809 38.3863 47.6809 38.3863C47.704 38.4326 47.7233 38.4712 47.7388 38.5021C47.7465 38.5252 47.7542 38.5484 47.7619 38.5715C47.7774 38.587 47.7928 38.6063 47.8082 38.6294C47.8237 38.6449 47.8352 38.6603 47.843 38.6757C47.843 38.6757 47.843 38.6796 47.843 38.6873C47.8584 38.695 47.8661 38.6989 47.8661 38.6989C47.8738 38.7143 47.8815 38.7297 47.8893 38.7452C47.9047 38.7606 47.9163 38.7761 47.924 38.7915C47.9394 38.7992 47.9548 38.8146 47.9703 38.8378C47.9857 38.8532 47.9973 38.8648 48.005 38.8725C48.0667 38.9343 48.1208 39.0076 48.1671 39.0925C48.2211 39.1773 48.2481 39.2699 48.2481 39.3703C48.2481 39.4629 48.2018 39.5285 48.1092 39.5671V39.5786C48.086 39.5864 48.0745 39.5902 48.0745 39.5902H48.086C48.0706 39.5902 48.059 39.5941 48.0513 39.6018C47.9587 39.6558 47.8622 39.7175 47.7619 39.787C47.4455 40.0108 47.1754 40.277 46.9516 40.5857C46.6507 41.0102 46.4307 41.4809 46.2918 41.998C46.2146 42.2603 46.176 42.5266 46.176 42.7967C46.176 42.897 46.1876 43.0089 46.2108 43.1324C46.2185 43.1787 46.2301 43.225 46.2455 43.2713C46.2455 43.279 46.2455 43.2867 46.2455 43.2944C46.2455 43.2944 46.2494 43.306 46.2571 43.3292C46.2648 43.3446 46.2687 43.3562 46.2687 43.3639C46.2995 43.4334 46.315 43.4719 46.315 43.4797C46.3381 43.526 46.3574 43.5607 46.3728 43.5838C46.3805 43.5916 46.3883 43.607 46.396 43.6301C46.4346 43.6687 46.4654 43.7035 46.4886 43.7343C46.4886 43.7343 46.4924 43.742 46.5002 43.7575C46.5156 43.7652 46.5272 43.7729 46.5349 43.7806C46.5812 43.8269 46.6082 43.8501 46.6159 43.8501C46.6159 43.8501 46.6043 43.8385 46.5812 43.8154C46.5889 43.8231 46.6043 43.8347 46.6275 43.8501C46.6506 43.8655 46.6699 43.881 46.6854 43.8964C46.6854 43.8964 46.697 43.9041 46.7201 43.9195C46.751 43.935 46.7703 43.9427 46.778 43.9427C46.778 43.9427 46.7818 43.9465 46.7896 43.9543C46.805 43.962 46.8166 43.9658 46.8243 43.9658C46.8474 43.9736 46.8706 43.9813 46.8937 43.989C46.9323 44.0044 46.9748 44.0199 47.0211 44.0353C47.0288 44.043 47.0365 44.0469 47.0442 44.0469C47.0674 44.0546 47.0867 44.0584 47.1021 44.0584C47.1484 44.0662 47.1908 44.0739 47.2294 44.0816C47.4146 44.1048 47.6037 44.097 47.7966 44.0584C48.059 44.0044 48.3021 43.908 48.5259 43.7691C48.7497 43.6224 48.9388 43.4488 49.0931 43.2481C49.2552 43.0398 49.3864 42.8121 49.4867 42.5652C49.6256 42.2256 49.6951 41.8745 49.6951 41.5118C49.6951 41.45 49.6951 41.4192 49.6951 41.4192C49.6874 41.3806 49.6835 41.3459 49.6835 41.315C49.6758 41.2301 49.6603 41.1452 49.6372 41.0603C49.6372 41.0526 49.6372 41.041 49.6372 41.0256C49.6295 41.0256 49.6218 41.0295 49.614 41.0372C49.6063 41.0372 49.6025 41.0372 49.6025 41.0372C49.4095 41.0912 49.2706 41.1452 49.1857 41.1992C48.8925 41.369 48.7034 41.6044 48.6185 41.9054C48.6031 41.9748 48.5568 42.0095 48.4796 42.0095C48.4102 42.0095 48.3407 41.9941 48.2713 41.9632C48.2095 41.9247 48.1594 41.8899 48.1208 41.8591C47.9047 41.6661 47.8275 41.4616 47.8893 41.2455C47.9356 41.068 48.0089 40.9137 48.1092 40.7825C48.2172 40.6436 48.3484 40.5317 48.5028 40.4468C48.6571 40.3542 48.8037 40.2848 48.9426 40.2385C49.0893 40.1844 49.259 40.1304 49.452 40.0764C49.9536 39.9452 50.2854 39.8449 50.4475 39.7754C50.7639 39.6288 50.9877 39.4127 51.1189 39.1272Z" fill="#FAFAFA"/>
<path d="M64.4794 42.1369C64.5565 42.0288 64.6183 42.0366 64.6646 42.16C64.7032 42.2603 64.7032 42.3877 64.6646 42.542C64.6491 42.6038 64.599 42.7157 64.5141 42.8777C64.4292 43.0321 64.3019 43.2289 64.1321 43.4681C63.97 43.7073 63.7887 43.9427 63.588 44.1742C63.3874 44.398 63.1443 44.6141 62.8588 44.8224C62.581 45.0308 62.3031 45.1774 62.0253 45.2623C61.678 45.3781 61.3501 45.3781 61.0414 45.2623C60.7404 45.1543 60.4973 44.9382 60.3121 44.6141C60.0883 44.2359 59.9996 43.6842 60.0459 42.9588C60.0536 42.8044 60.0652 42.6385 60.0806 42.461C60.1037 42.2835 60.1269 42.0983 60.15 41.9054C60.1732 41.7047 60.1925 41.5388 60.2079 41.4076C60.2079 41.4076 60.2041 41.4115 60.1963 41.4192C60.1886 41.4192 60.1848 41.4192 60.1848 41.4192C60.015 41.5427 59.8182 41.7009 59.5944 41.8938C59.224 42.2256 58.7764 42.6655 58.2516 43.2134C57.6574 43.8385 57.0979 44.452 56.5731 45.054C56.5346 45.0848 56.496 45.1003 56.4574 45.1003C56.4111 45.108 56.3609 45.0964 56.3069 45.0655C56.2529 45.0347 56.2066 45.0038 56.168 44.9729C56.1294 44.9498 56.0985 44.9228 56.0754 44.8919C55.8747 44.6835 55.8091 44.4945 55.8786 44.3247C55.9944 44.0623 56.1371 43.7189 56.3069 43.2944C57.04 41.5118 57.6574 39.9375 58.159 38.5715C58.514 37.6146 58.788 36.8198 58.9809 36.1869C59.0349 36.0094 59.0812 35.8474 59.1198 35.7008C59.1352 35.6622 59.1468 35.6236 59.1545 35.585C59.1545 35.585 59.1584 35.5696 59.1661 35.5387L59.1777 35.5156C59.1931 35.4461 59.2047 35.3921 59.2124 35.3535C59.2741 35.0834 59.305 34.8789 59.305 34.74C59.305 34.6319 59.359 34.5741 59.4671 34.5663C59.5751 34.5509 59.6639 34.5702 59.7333 34.6242C59.9725 34.7786 60.0922 34.9831 60.0922 35.2377C60.0922 35.3921 60.0497 35.6274 59.9648 35.9439C59.8877 36.2757 59.7835 36.65 59.6523 37.0667C59.2664 38.2706 58.6452 39.9529 57.7886 42.1137C57.7809 42.1369 57.7654 42.1755 57.7423 42.2295C57.7269 42.2758 57.7114 42.3105 57.696 42.3337C57.7732 42.2565 57.8542 42.1755 57.9391 42.0906C58.4638 41.5581 58.8999 41.1491 59.2471 40.8635C59.2549 40.8558 59.2857 40.8288 59.3397 40.7825C59.3938 40.7362 59.4285 40.7092 59.4439 40.7015C59.4594 40.6938 59.4941 40.6706 59.5481 40.632C59.6021 40.5857 59.6407 40.5549 59.6639 40.5394C59.687 40.524 59.7217 40.5008 59.768 40.47C59.8221 40.4391 59.8645 40.4198 59.8954 40.4121C59.9262 40.3967 59.9648 40.3812 60.0111 40.3658C60.0574 40.3504 60.0999 40.3426 60.1385 40.3426C60.1771 40.3349 60.2195 40.3349 60.2658 40.3426C60.4124 40.3581 60.5475 40.4314 60.671 40.5626C60.7944 40.686 60.8832 40.825 60.9372 40.9793C60.9912 41.1491 61.0144 41.3729 61.0066 41.6507C60.9912 41.8513 60.9603 42.1292 60.914 42.4841C60.8755 42.8391 60.8523 43.0822 60.8446 43.2134C60.8292 43.3678 60.8176 43.5105 60.8099 43.6417C60.8099 43.7112 60.8099 43.7768 60.8099 43.8385C60.8099 43.8539 60.8099 43.8732 60.8099 43.8964C60.8099 43.9195 60.8099 43.935 60.8099 43.9427C60.8099 43.9504 60.8099 43.9543 60.8099 43.9543C60.8253 44.0855 60.8446 44.2089 60.8677 44.3247C60.8677 44.3247 60.8677 44.3363 60.8677 44.3594C60.8755 44.3826 60.8793 44.3941 60.8793 44.3941C60.887 44.4096 60.8947 44.425 60.9025 44.4404C60.9102 44.4404 60.9179 44.4443 60.9256 44.452C60.9488 44.4597 60.9642 44.4636 60.9719 44.4636C61.2189 44.4945 61.5353 44.4366 61.9211 44.29C62.4768 44.0662 63.0787 43.6301 63.727 42.9819C63.9276 42.7813 64.1205 42.569 64.3057 42.3452C64.352 42.2912 64.4022 42.2256 64.4562 42.1485C64.4639 42.1485 64.4678 42.1485 64.4678 42.1485C64.4678 42.1407 64.4717 42.1369 64.4794 42.1369ZM60.2311 40.9561C60.2311 40.9561 60.2311 40.96 60.2311 40.9677C60.2311 40.9677 60.2311 40.9639 60.2311 40.9561Z" fill="#FAFAFA"/>
<path d="M68.0468 44.3594C68.0468 44.3594 68.0391 44.3594 68.0236 44.3594C68.0236 44.3517 68.0236 44.344 68.0236 44.3363L68.0352 44.3131C68.0352 44.3208 68.0391 44.3363 68.0468 44.3594ZM72.0173 42.2179C72.133 42.0404 72.2102 42.0288 72.2488 42.1832C72.2796 42.3298 72.2642 42.4957 72.2025 42.6809C72.1639 42.7735 72.0983 42.897 72.0057 43.0514C71.9208 43.2057 71.805 43.3832 71.6584 43.5838C71.5195 43.7768 71.3497 43.9736 71.1491 44.1742C70.9561 44.3671 70.7478 44.5485 70.524 44.7183C70.3079 44.888 70.0648 45.0231 69.7947 45.1234C69.5323 45.2315 69.2699 45.2855 69.0076 45.2855C68.4674 45.2855 68.0661 45.1736 67.8037 44.9498C67.5027 44.7028 67.3098 44.3671 67.2249 43.9427C67.2018 43.8347 67.1863 43.715 67.1786 43.5838C66.7927 44.124 66.4069 44.5331 66.021 44.8109C65.6815 45.0578 65.3574 45.1697 65.0487 45.1466C64.74 45.1311 64.4737 44.9806 64.2499 44.6951C64.0184 44.4096 63.8911 44.1009 63.8679 43.7691C63.8216 43.2597 64.0184 42.6616 64.4583 41.9748C64.7979 41.4346 65.176 40.9947 65.5927 40.6552C66.0172 40.3079 66.3914 40.1574 66.7156 40.2037C67.1169 40.2655 67.4526 40.4777 67.7227 40.8404C67.7535 40.7864 67.7805 40.7401 67.8037 40.7015C67.904 40.578 68.0159 40.5394 68.1394 40.5857C68.2629 40.6243 68.3748 40.7169 68.4751 40.8635C68.5754 41.0102 68.6179 41.1414 68.6024 41.2571C68.5947 41.3111 68.5445 41.4732 68.4519 41.7433C68.3439 42.0597 68.259 42.3221 68.1973 42.5304C68.1741 42.5999 68.151 42.6771 68.1278 42.762C68.1201 42.7851 68.1162 42.8044 68.1162 42.8198C68.1085 42.8661 68.1008 42.9047 68.0931 42.9356C68.0545 43.1054 68.0236 43.2636 68.0005 43.4102C67.9773 43.5723 67.9619 43.7266 67.9542 43.8732C67.9542 43.8887 67.9542 43.9273 67.9542 43.989V44.0006C67.9542 44.0083 67.9542 44.0121 67.9542 44.0121C67.9619 44.0276 67.9657 44.0507 67.9657 44.0816C67.9657 44.1048 67.9657 44.1279 67.9657 44.1511C67.9735 44.1742 67.9812 44.1974 67.9889 44.2205C67.9889 44.2205 67.9928 44.2359 68.0005 44.2668C68.0005 44.2822 68.0005 44.29 68.0005 44.29C68.0082 44.3131 68.0121 44.3285 68.0121 44.3363C68.0121 44.3363 68.0159 44.3363 68.0236 44.3363C68.0236 44.344 68.0236 44.3478 68.0236 44.3478C68.0236 44.3556 68.0236 44.3594 68.0236 44.3594H68.0352C68.0275 44.3594 68.0236 44.3594 68.0236 44.3594H68.0352C68.0352 44.3594 68.0352 44.3633 68.0352 44.371C68.0429 44.371 68.0429 44.3749 68.0352 44.3826H68.0468C68.0468 44.3749 68.0468 44.371 68.0468 44.371C68.0699 44.3787 68.0892 44.3864 68.1047 44.3941C68.1047 44.3941 68.1085 44.3941 68.1162 44.3941C68.124 44.3941 68.1278 44.3941 68.1278 44.3941C68.2127 44.4096 68.286 44.4212 68.3477 44.4289C68.5407 44.4366 68.7645 44.4134 69.0191 44.3594C69.7986 44.2051 70.5356 43.7961 71.2301 43.1324C71.4462 42.9317 71.6546 42.7079 71.8552 42.461C71.8552 42.4533 71.8552 42.4494 71.8552 42.4494C71.8629 42.4417 71.8706 42.434 71.8783 42.4263C71.8938 42.4108 71.9015 42.3993 71.9015 42.3915C71.9247 42.3607 71.9478 42.3298 71.971 42.2989C71.9941 42.2681 72.0095 42.2411 72.0173 42.2179ZM68.5561 41.3381L68.5445 41.3613H68.533C68.533 41.369 68.533 41.3767 68.533 41.3845C68.5561 41.369 68.5638 41.3536 68.5561 41.3381ZM67.2249 41.1529C67.2249 41.1607 67.2288 41.1684 67.2365 41.1761C67.2365 41.1684 67.2365 41.1645 67.2365 41.1645C67.2288 41.1568 67.2249 41.1529 67.2249 41.1529ZM64.6319 44.2668C64.6319 44.2668 64.6358 44.2668 64.6435 44.2668H64.6319ZM66.3567 43.0166C66.6577 42.6153 66.978 42.1253 67.3175 41.5465C67.2635 41.4462 67.2365 41.3459 67.2365 41.2455C67.2442 41.2147 67.2442 41.1915 67.2365 41.1761C67.2288 41.1761 67.2249 41.1722 67.2249 41.1645C67.2249 41.1568 67.2249 41.1491 67.2249 41.1414C67.194 41.1259 67.1632 41.1105 67.1323 41.0951C67.086 41.0796 67.0397 41.068 66.9934 41.0603C66.9857 41.0603 66.9741 41.0603 66.9587 41.0603H66.9355C66.8738 41.068 66.8082 41.0873 66.7387 41.1182C66.6847 41.1336 66.6191 41.1684 66.5419 41.2224C66.4648 41.2687 66.3876 41.3227 66.3104 41.3845C65.94 41.67 65.6043 42.0288 65.3033 42.461C65.1104 42.7388 64.9522 43.0051 64.8287 43.2597C64.713 43.5067 64.6474 43.7536 64.6319 44.0006C64.6319 44.0546 64.6358 44.1086 64.6435 44.1626C64.6512 44.2012 64.6551 44.2321 64.6551 44.2552L64.6667 44.2784C64.6744 44.2784 64.6898 44.2822 64.713 44.29C64.7438 44.29 64.7631 44.29 64.7708 44.29C64.7786 44.29 64.7824 44.29 64.7824 44.29C64.7979 44.2822 64.8133 44.2784 64.8287 44.2784C64.8519 44.2707 64.8712 44.2668 64.8866 44.2668C64.9406 44.2514 65.0062 44.2282 65.0834 44.1974C65.0911 44.1974 65.1065 44.1935 65.1297 44.1858C65.1297 44.1858 65.1336 44.1819 65.1413 44.1742C65.1721 44.1588 65.1992 44.1433 65.2223 44.1279C65.3458 44.0507 65.477 43.9543 65.6159 43.8385C65.8628 43.6224 66.1098 43.3485 66.3567 43.0166ZM68.0236 44.371C68.0236 44.3787 68.0313 44.3864 68.0468 44.3941V44.3826C68.0391 44.3826 68.0352 44.3787 68.0352 44.371C68.0275 44.371 68.0236 44.371 68.0236 44.371Z" fill="#FAFAFA"/>
<path d="M79.6849 42.1137C79.7621 42.0134 79.8316 42.0288 79.8933 42.16C79.9396 42.2681 79.9434 42.3838 79.9049 42.5073C79.8894 42.569 79.8354 42.6925 79.7428 42.8777C79.6502 43.0552 79.492 43.3022 79.2682 43.6186C79.0521 43.9273 78.809 44.2166 78.5389 44.4868C78.2765 44.7569 77.9408 44.9845 77.5318 45.1697C77.1305 45.3626 76.7177 45.4514 76.2932 45.436C76.0231 45.4205 75.7762 45.3279 75.5524 45.1581C75.3363 44.9961 75.1665 44.7993 75.0431 44.5678C74.9196 44.3285 74.8424 44.0739 74.8115 43.8038C74.8115 43.8038 74.8077 43.7999 74.7999 43.7922C74.7999 43.7845 74.7999 43.7768 74.7999 43.7691C74.4913 44.2784 74.1672 44.6835 73.8276 44.9845C73.5112 45.27 73.2064 45.4282 72.9131 45.4591C72.6739 45.4745 72.4539 45.4244 72.2533 45.3086C72.0526 45.2006 71.8906 45.0424 71.7671 44.834C71.6822 44.6951 71.6243 44.5408 71.5935 44.371C71.5549 44.1935 71.5395 44.0314 71.5472 43.8848C71.5472 43.7305 71.5703 43.553 71.6166 43.3523C71.6552 43.144 71.6899 42.9819 71.7208 42.8661C71.7517 42.7427 71.8018 42.5806 71.8713 42.38C71.9562 42.1099 72.0912 41.7356 72.2764 41.2571C72.4694 40.7787 72.589 40.4738 72.6353 40.3426C72.6507 40.2963 72.6739 40.2655 72.7048 40.25C72.7433 40.2346 72.7819 40.2307 72.8205 40.2385C72.8591 40.2462 72.8977 40.2577 72.9363 40.2732C72.9826 40.2886 73.0211 40.3079 73.052 40.3311C73.0829 40.3542 73.1099 40.3735 73.133 40.3889C73.3646 40.5973 73.4456 40.8018 73.3761 41.0025C73.3376 41.0951 73.2102 41.4115 72.9941 41.9517C72.7858 42.4841 72.6392 42.897 72.5543 43.1903C72.5002 43.3909 72.4539 43.5723 72.4154 43.7343C72.369 43.9427 72.342 44.1279 72.3343 44.29C72.3343 44.3363 72.3343 44.3826 72.3343 44.4289C72.3343 44.4366 72.3343 44.4597 72.3343 44.4983C72.3343 44.5215 72.3382 44.5523 72.3459 44.5909C72.3536 44.5909 72.369 44.5909 72.3922 44.5909C72.4154 44.5909 72.4269 44.5909 72.4269 44.5909C72.4346 44.5909 72.4501 44.5909 72.4732 44.5909C72.4964 44.5832 72.5118 44.5794 72.5195 44.5794C72.5504 44.5716 72.5851 44.5639 72.6237 44.5562C72.6546 44.5485 72.6855 44.5369 72.7163 44.5215C72.724 44.5215 72.7395 44.5138 72.7626 44.4983C72.7626 44.4983 72.7665 44.4983 72.7742 44.4983C73.0289 44.3594 73.2913 44.1279 73.5613 43.8038C73.9626 43.3176 74.3871 42.6115 74.8347 41.6854C75.0508 41.2224 75.2244 40.8095 75.3556 40.4468C75.3865 40.3851 75.4366 40.3542 75.5061 40.3542C75.5755 40.3542 75.6411 40.3696 75.7029 40.4005C75.7646 40.4314 75.8186 40.4661 75.8649 40.5047C76.0964 40.7131 76.1736 40.9176 76.0964 41.1182C76.0579 41.2108 76.0154 41.3343 75.9691 41.4886C75.9305 41.6198 75.8919 41.751 75.8533 41.8822C75.8456 41.9131 75.8379 41.9478 75.8302 41.9864C75.8225 42.0018 75.8148 42.0211 75.807 42.0443V42.0558C75.7839 42.1562 75.7646 42.2411 75.7492 42.3105C75.6643 42.6655 75.6103 42.9935 75.5871 43.2944C75.5639 43.4719 75.5524 43.6417 75.5524 43.8038C75.5524 43.8115 75.5524 43.8308 75.5524 43.8617V43.8964C75.5524 43.9041 75.5524 43.9195 75.5524 43.9427C75.5601 43.9581 75.564 43.9658 75.564 43.9658C75.5717 44.043 75.5794 44.1163 75.5871 44.1858C75.5871 44.1935 75.5948 44.2321 75.6103 44.3015C75.6103 44.3093 75.6103 44.3131 75.6103 44.3131C75.618 44.3208 75.6296 44.3401 75.645 44.371C75.6604 44.4019 75.6681 44.425 75.6681 44.4404V44.4636C75.6758 44.4713 75.6797 44.4752 75.6797 44.4752V44.4868C75.6874 44.4945 75.6951 44.5022 75.7029 44.5099C75.7106 44.5099 75.7144 44.5099 75.7144 44.5099H75.726C75.7337 44.5176 75.7453 44.5253 75.7607 44.5331C75.7839 44.5331 75.7993 44.5369 75.807 44.5446C75.8225 44.5446 75.8341 44.5446 75.8418 44.5446C76.0116 44.5755 76.1929 44.5716 76.3858 44.5331C77.1344 44.4096 77.9138 43.962 78.7241 43.1903C78.9788 42.951 79.2219 42.6925 79.4534 42.4147C79.4843 42.3761 79.5229 42.3259 79.5692 42.2642C79.5769 42.2565 79.5846 42.2488 79.5923 42.2411C79.5923 42.2411 79.5885 42.2449 79.5807 42.2526C79.5807 42.2526 79.5846 42.2488 79.5923 42.2411C79.6077 42.2256 79.6155 42.214 79.6155 42.2063C79.6541 42.16 79.6772 42.1292 79.6849 42.1137ZM72.2649 44.5794C72.2726 44.5794 72.288 44.5832 72.3112 44.5909C72.3112 44.5832 72.2957 44.5794 72.2649 44.5794ZM72.2533 44.5794V44.5678C72.2533 44.5755 72.2533 44.5794 72.2533 44.5794ZM75.6797 44.4868V44.4752C75.6797 44.4675 75.6758 44.4559 75.6681 44.4404C75.6758 44.4559 75.6797 44.4713 75.6797 44.4868Z" fill="#FAFAFA"/>
<path d="M84.8261 42.1369C84.911 42.0366 84.9881 42.0636 85.0576 42.2179C85.1039 42.3182 85.1155 42.4186 85.0923 42.5189C84.992 42.9047 84.6061 43.4372 83.9348 44.1163C83.2634 44.7954 82.619 45.2585 82.0016 45.5054C81.1836 45.8295 80.5585 45.8565 80.1263 45.5864C79.7096 45.3318 79.4627 44.9189 79.3855 44.3478C79.3315 43.9465 79.3546 43.4449 79.4549 42.843C79.5553 42.2951 79.7173 41.6661 79.9411 40.9561C80.3193 39.7446 80.8209 38.4558 81.446 37.0899C81.7084 36.5188 81.9553 36.0172 82.1868 35.585C82.4106 35.1683 82.6035 34.8596 82.7656 34.6589C82.8042 34.5972 82.8621 34.5818 82.9392 34.6126C83.0241 34.6435 83.0974 34.6821 83.1592 34.7284C83.2209 34.7747 83.2711 34.821 83.3097 34.8673C83.4949 35.0911 83.5257 35.284 83.4023 35.4461C83.4177 35.4229 83.4254 35.4114 83.4254 35.4114L83.3907 35.4577C83.3753 35.4808 83.3598 35.5078 83.3444 35.5387C83.0048 36.048 82.565 36.9008 82.0248 38.0969C81.4228 39.4474 80.9482 40.6976 80.6009 41.8475C80.5546 42.0018 80.5122 42.1523 80.4736 42.2989C80.435 42.4301 80.4042 42.5613 80.381 42.6925C80.3038 42.9858 80.2459 43.2597 80.2074 43.5144C80.1688 43.7845 80.1456 44.0314 80.1379 44.2552C80.1379 44.3093 80.1379 44.3633 80.1379 44.4173C80.1379 44.425 80.1379 44.4443 80.1379 44.4752C80.1379 44.4752 80.1379 44.479 80.1379 44.4868C80.1456 44.6025 80.1572 44.6951 80.1726 44.7646C80.1726 44.7723 80.1765 44.7877 80.1842 44.8109C80.1919 44.8263 80.1996 44.8495 80.2074 44.8803C80.2151 44.8803 80.2228 44.8803 80.2305 44.8803C80.7784 44.9343 81.419 44.753 82.1521 44.3363C83.1167 43.7961 84.0081 43.0629 84.8261 42.1369ZM80.2189 44.9151V44.9035C80.2189 44.9112 80.2189 44.9151 80.2189 44.9151Z" fill="#FAFAFA"/>
<path d="M88.3495 44.3594C88.3495 44.3594 88.3418 44.3594 88.3264 44.3594C88.3264 44.3517 88.3264 44.344 88.3264 44.3363L88.338 44.3131C88.338 44.3208 88.3418 44.3363 88.3495 44.3594ZM92.32 42.2179C92.4358 42.0404 92.5129 42.0288 92.5515 42.1832C92.5824 42.3298 92.567 42.4957 92.5052 42.6809C92.4667 42.7735 92.4011 42.897 92.3084 43.0514C92.2236 43.2057 92.1078 43.3832 91.9612 43.5838C91.8223 43.7768 91.6525 43.9736 91.4518 44.1742C91.2589 44.3671 91.0505 44.5485 90.8267 44.7183C90.6107 44.888 90.3676 45.0231 90.0975 45.1234C89.8351 45.2315 89.5727 45.2855 89.3103 45.2855C88.7701 45.2855 88.3688 45.1736 88.1064 44.9498C87.8055 44.7028 87.6125 44.3671 87.5277 43.9427C87.5045 43.8347 87.4891 43.715 87.4814 43.5838C87.0955 44.124 86.7096 44.5331 86.3238 44.8109C85.9842 45.0578 85.6601 45.1697 85.3514 45.1466C85.0427 45.1311 84.7765 44.9806 84.5527 44.6951C84.3212 44.4096 84.1938 44.1009 84.1707 43.7691C84.1244 43.2597 84.3212 42.6616 84.7611 41.9748C85.1006 41.4346 85.4788 40.9947 85.8955 40.6552C86.3199 40.3079 86.6942 40.1574 87.0183 40.2037C87.4196 40.2655 87.7553 40.4777 88.0254 40.8404C88.0563 40.7864 88.0833 40.7401 88.1064 40.7015C88.2068 40.578 88.3187 40.5394 88.4421 40.5857C88.5656 40.6243 88.6775 40.7169 88.7778 40.8635C88.8782 41.0102 88.9206 41.1414 88.9052 41.2571C88.8975 41.3111 88.8473 41.4732 88.7547 41.7433C88.6467 42.0597 88.5618 42.3221 88.5 42.5304C88.4769 42.5999 88.4537 42.6771 88.4306 42.762C88.4229 42.7851 88.419 42.8044 88.419 42.8198C88.4113 42.8661 88.4036 42.9047 88.3958 42.9356C88.3573 43.1054 88.3264 43.2636 88.3032 43.4102C88.2801 43.5723 88.2646 43.7266 88.2569 43.8732C88.2569 43.8887 88.2569 43.9273 88.2569 43.989V44.0006C88.2569 44.0083 88.2569 44.0121 88.2569 44.0121C88.2646 44.0276 88.2685 44.0507 88.2685 44.0816C88.2685 44.1048 88.2685 44.1279 88.2685 44.1511C88.2762 44.1742 88.2839 44.1974 88.2917 44.2205C88.2917 44.2205 88.2955 44.2359 88.3032 44.2668C88.3032 44.2822 88.3032 44.29 88.3032 44.29C88.311 44.3131 88.3148 44.3285 88.3148 44.3363C88.3148 44.3363 88.3187 44.3363 88.3264 44.3363C88.3264 44.344 88.3264 44.3478 88.3264 44.3478C88.3264 44.3556 88.3264 44.3594 88.3264 44.3594H88.338C88.3303 44.3594 88.3264 44.3594 88.3264 44.3594H88.338C88.338 44.3594 88.338 44.3633 88.338 44.371C88.3457 44.371 88.3457 44.3749 88.338 44.3826H88.3495C88.3495 44.3749 88.3495 44.371 88.3495 44.371C88.3727 44.3787 88.392 44.3864 88.4074 44.3941C88.4074 44.3941 88.4113 44.3941 88.419 44.3941C88.4267 44.3941 88.4306 44.3941 88.4306 44.3941C88.5155 44.4096 88.5888 44.4212 88.6505 44.4289C88.8434 44.4366 89.0672 44.4134 89.3219 44.3594C90.1013 44.2051 90.8383 43.7961 91.5329 43.1324C91.7489 42.9317 91.9573 42.7079 92.158 42.461C92.158 42.4533 92.158 42.4494 92.158 42.4494C92.1657 42.4417 92.1734 42.434 92.1811 42.4263C92.1965 42.4108 92.2043 42.3993 92.2043 42.3915C92.2274 42.3607 92.2506 42.3298 92.2737 42.2989C92.2969 42.2681 92.3123 42.2411 92.32 42.2179ZM88.8589 41.3381L88.8473 41.3613H88.8357C88.8357 41.369 88.8357 41.3767 88.8357 41.3845C88.8589 41.369 88.8666 41.3536 88.8589 41.3381ZM87.5277 41.1529C87.5277 41.1607 87.5315 41.1684 87.5392 41.1761C87.5392 41.1684 87.5392 41.1645 87.5392 41.1645C87.5315 41.1568 87.5277 41.1529 87.5277 41.1529ZM84.9347 44.2668C84.9347 44.2668 84.9386 44.2668 84.9463 44.2668H84.9347ZM86.6595 43.0166C86.9604 42.6153 87.2807 42.1253 87.6203 41.5465C87.5663 41.4462 87.5392 41.3459 87.5392 41.2455C87.547 41.2147 87.547 41.1915 87.5392 41.1761C87.5315 41.1761 87.5277 41.1722 87.5277 41.1645C87.5277 41.1568 87.5277 41.1491 87.5277 41.1414C87.4968 41.1259 87.4659 41.1105 87.4351 41.0951C87.3888 41.0796 87.3425 41.068 87.2962 41.0603C87.2884 41.0603 87.2769 41.0603 87.2614 41.0603H87.2383C87.1765 41.068 87.1109 41.0873 87.0415 41.1182C86.9875 41.1336 86.9219 41.1684 86.8447 41.2224C86.7675 41.2687 86.6904 41.3227 86.6132 41.3845C86.2428 41.67 85.9071 42.0288 85.6061 42.461C85.4132 42.7388 85.255 43.0051 85.1315 43.2597C85.0157 43.5067 84.9501 43.7536 84.9347 44.0006C84.9347 44.0546 84.9386 44.1086 84.9463 44.1626C84.954 44.2012 84.9578 44.2321 84.9578 44.2552L84.9694 44.2784C84.9771 44.2784 84.9926 44.2822 85.0157 44.29C85.0466 44.29 85.0659 44.29 85.0736 44.29C85.0813 44.29 85.0852 44.29 85.0852 44.29C85.1006 44.2822 85.1161 44.2784 85.1315 44.2784C85.1546 44.2707 85.1739 44.2668 85.1894 44.2668C85.2434 44.2514 85.309 44.2282 85.3861 44.1974C85.3939 44.1974 85.4093 44.1935 85.4325 44.1858C85.4325 44.1858 85.4363 44.1819 85.444 44.1742C85.4749 44.1588 85.5019 44.1433 85.5251 44.1279C85.6485 44.0507 85.7797 43.9543 85.9186 43.8385C86.1656 43.6224 86.4125 43.3485 86.6595 43.0166ZM88.3264 44.371C88.3264 44.3787 88.3341 44.3864 88.3495 44.3941V44.3826C88.3418 44.3826 88.338 44.3787 88.338 44.371C88.3303 44.371 88.3264 44.371 88.3264 44.371Z" fill="#FAFAFA"/>
<path d="M99.8835 42.1253C99.9375 42.1562 99.9684 42.2025 99.9761 42.2642C99.9915 42.3182 99.98 42.3568 99.9414 42.38C99.9105 42.3877 99.8719 42.407 99.8256 42.4378C99.1388 42.8237 98.4172 43.2713 97.661 43.7806C96.7195 44.4134 95.8899 45.0347 95.1722 45.6443C95.1645 45.6598 95.1567 45.6752 95.149 45.6906C95.1413 45.7138 95.1374 45.7331 95.1374 45.7485C94.6898 47.1299 94.25 48.2682 93.8178 49.1634C93.5631 49.6958 93.3239 50.1164 93.1001 50.4251C92.8146 50.8032 92.5483 51.0348 92.3014 51.1197C92.147 51.1737 91.985 51.1698 91.8152 51.1081C91.6609 51.0463 91.5258 50.9537 91.4101 50.8303C91.2943 50.7068 91.2133 50.5679 91.167 50.4135C91.113 50.2592 91.0975 50.047 91.1207 49.7769C91.1592 49.2367 91.3406 48.6733 91.6647 48.0868C92.2126 47.099 93.1426 46.0456 94.4545 44.9266C94.5548 44.6025 94.659 44.263 94.767 43.908C94.4275 44.263 94.0802 44.5099 93.7252 44.6488C93.3008 44.8186 92.9188 44.7839 92.5792 44.5446C92.1779 44.2668 91.9657 43.8694 91.9425 43.3523C91.8962 42.6269 92.2126 41.8938 92.8917 41.1529C93.3857 40.605 93.9413 40.2076 94.5587 39.9606C94.7825 39.868 95.041 39.8372 95.3342 39.868C95.8281 39.922 96.2101 40.2616 96.4802 40.8867C96.5188 40.9716 96.5227 41.0603 96.4918 41.1529C96.4609 41.2455 96.3915 41.288 96.2834 41.2803C96.1754 41.2648 96.0751 41.2108 95.9825 41.1182C95.8899 41.0256 95.8166 40.9214 95.7625 40.8057C95.7625 40.7902 95.7587 40.7787 95.751 40.7709C95.751 40.7632 95.7471 40.7594 95.7394 40.7594C95.7394 40.7516 95.7394 40.7478 95.7394 40.7478C95.7317 40.7478 95.7278 40.7439 95.7278 40.7362C95.5966 40.7131 95.4616 40.7131 95.3227 40.7362C95.2609 40.7439 95.1799 40.7671 95.0796 40.8057C95.0641 40.8134 95.0333 40.825 94.987 40.8404C94.987 40.8404 94.9754 40.8481 94.9522 40.8635H94.9407C94.8866 40.8944 94.8288 40.9253 94.767 40.9561C94.4738 41.1259 94.1882 41.3266 93.9104 41.5581C93.1927 42.1986 92.7953 42.8584 92.7181 43.5375C92.7181 43.5761 92.7143 43.6147 92.7065 43.6533C92.7065 43.661 92.7065 43.6726 92.7065 43.688C92.7065 43.7035 92.7065 43.7112 92.7065 43.7112C92.7143 43.7575 92.7258 43.8115 92.7413 43.8732C92.749 43.8732 92.7528 43.8732 92.7528 43.8732C92.7606 43.8732 92.7683 43.8771 92.776 43.8848C92.83 43.8848 92.857 43.8848 92.857 43.8848C92.9188 43.8848 92.9921 43.8732 93.077 43.8501C93.2159 43.8115 93.3625 43.7382 93.5168 43.6301C93.7947 43.4449 94.0493 43.2173 94.2808 42.9472C94.5124 42.6771 94.7554 42.3452 95.0101 41.9517C95.0333 41.9285 95.068 41.8822 95.1143 41.8128C95.1606 41.7356 95.1992 41.6777 95.23 41.6391C95.2995 41.5388 95.3419 41.4809 95.3574 41.4655C95.4731 41.3729 95.6275 41.4115 95.8204 41.5812C95.967 41.7124 96.0519 41.8668 96.0751 42.0443C96.0982 42.1523 96.0674 42.3954 95.9825 42.7735C95.8899 43.1594 95.7818 43.5761 95.6584 44.0237C96.5535 43.4063 97.414 42.897 98.2397 42.4957C99.0732 42.0867 99.6211 41.9632 99.8835 42.1253ZM95.7394 40.7478C95.7471 40.7478 95.751 40.7516 95.751 40.7594C95.7432 40.7516 95.7394 40.7478 95.7394 40.7478ZM95.994 42.2526L96.0056 42.2411C95.9979 42.2488 95.994 42.2526 95.994 42.2526ZM92.9844 48.6887C93.2159 48.2411 93.4512 47.7087 93.6905 47.0913C93.6905 47.0836 93.6905 47.072 93.6905 47.0566C93.6982 47.0488 93.7059 47.0373 93.7136 47.0218C93.7214 47.0141 93.7252 47.0025 93.7252 46.9871C92.884 47.8669 92.3245 48.7196 92.0467 49.5453C92.0236 49.6148 92.0004 49.6843 91.9773 49.7537C91.9773 49.7769 91.9734 49.7923 91.9657 49.8C91.958 49.8386 91.9541 49.8733 91.9541 49.9042C91.931 50.0045 91.9155 50.1048 91.9078 50.2052C91.9232 50.1897 91.9387 50.1782 91.9541 50.1704C92.0544 50.0933 92.1702 49.9775 92.3014 49.8232C92.3014 49.8232 92.3091 49.8154 92.3245 49.8C92.3477 49.7769 92.3631 49.7576 92.3708 49.7421C92.394 49.7113 92.4172 49.6765 92.4403 49.638C92.502 49.5454 92.5638 49.4489 92.6255 49.3486C92.7413 49.1556 92.8609 48.9357 92.9844 48.6887Z" fill="#FAFAFA"/>
<path d="M104.134 42.1716C104.227 42.0713 104.3 42.0674 104.354 42.16C104.4 42.2526 104.397 42.4031 104.343 42.6115C104.312 42.735 104.223 42.9086 104.076 43.1324C103.93 43.3485 103.729 43.5916 103.474 43.8617C103.22 44.1318 102.938 44.3826 102.629 44.6141C102.328 44.8379 101.977 45.0192 101.576 45.1581C101.182 45.2971 100.789 45.3511 100.395 45.3202C100.056 45.2893 99.7548 45.1427 99.4924 44.8803C99.23 44.6179 99.0564 44.3093 98.9715 43.9543C98.848 43.4449 98.9869 42.8237 99.3882 42.0906C99.7586 41.3883 100.144 40.8867 100.546 40.5857C100.793 40.4005 101.02 40.3156 101.229 40.3311C101.321 40.3388 101.41 40.3696 101.495 40.4237C101.588 40.47 101.669 40.5317 101.738 40.6089C101.808 40.6783 101.865 40.7555 101.912 40.8404C102.12 41.2031 102.135 41.6507 101.958 42.1832C101.781 42.6925 101.495 43.0861 101.101 43.3639C100.878 43.5182 100.642 43.6147 100.395 43.6533C100.233 43.6764 100.052 43.6456 99.8512 43.5607C99.8281 43.553 99.8049 43.5414 99.7818 43.526C99.7123 43.7729 99.693 43.989 99.7239 44.1742C99.7316 44.2128 99.7393 44.2398 99.747 44.2552C99.7548 44.2707 99.7586 44.2822 99.7586 44.29C99.7586 44.2977 99.7663 44.3093 99.7818 44.3247V44.3363C99.7818 44.3363 99.7818 44.3324 99.7818 44.3247C99.7895 44.3324 99.8011 44.344 99.8165 44.3594C99.8242 44.3671 99.8435 44.3787 99.8744 44.3941C99.8821 44.4019 99.8898 44.4057 99.8975 44.4057C99.9593 44.4289 99.994 44.4404 100.002 44.4404C100.009 44.4482 100.044 44.4559 100.106 44.4636C100.144 44.4713 100.187 44.4752 100.233 44.4752C100.457 44.4752 100.723 44.4327 101.032 44.3478C101.51 44.2012 102.016 43.9427 102.548 43.5723C103.166 43.1401 103.694 42.6732 104.134 42.1716ZM101.287 40.933V40.9446C101.287 40.9369 101.287 40.933 101.287 40.933ZM100.58 42.0095C100.403 42.2565 100.249 42.4996 100.117 42.7388C100.164 42.7234 100.21 42.7079 100.256 42.6925C100.334 42.6616 100.422 42.6076 100.523 42.5304C100.615 42.461 100.7 42.3838 100.777 42.2989C100.847 42.2218 100.908 42.1369 100.962 42.0443C101.024 41.9517 101.078 41.8513 101.125 41.7433C101.171 41.6507 101.209 41.5465 101.24 41.4308C101.248 41.423 101.252 41.4192 101.252 41.4192V41.4076C101.26 41.3767 101.263 41.3574 101.263 41.3497C101.263 41.3497 101.267 41.3381 101.275 41.315C101.206 41.3536 101.14 41.4037 101.078 41.4655C100.908 41.6121 100.743 41.7935 100.58 42.0095ZM99.7586 44.29C99.7586 44.29 99.7548 44.29 99.747 44.29C99.747 44.29 99.747 44.2861 99.747 44.2784C99.747 44.2861 99.7509 44.2938 99.7586 44.3015V44.29Z" fill="#FAFAFA"/>
<path d="M38.3446 54.5731C38.4218 54.465 38.4912 54.4959 38.553 54.6657C38.5838 54.7583 38.5954 54.8393 38.5877 54.9088C38.5568 55.1249 38.4295 55.3911 38.2057 55.7075C37.9819 56.0239 37.6925 56.348 37.3375 56.6799C36.9825 57.0117 36.5465 57.332 36.0295 57.6406C35.5124 57.9571 34.9722 58.2117 34.4089 58.4047C33.9998 58.5358 33.533 58.5937 33.0082 58.5783C32.7227 58.5706 32.4989 58.5397 32.3368 58.4857C32.1439 58.4085 32.005 58.258 31.9201 58.0342C31.8892 57.9725 31.8815 57.8953 31.8969 57.8027C31.9046 57.7178 31.9471 57.6677 32.0243 57.6522C32.0551 57.6445 32.0898 57.6406 32.1284 57.6406H32.1516C32.1747 57.6406 32.2133 57.6445 32.2673 57.6522C32.3136 57.6599 32.3484 57.6638 32.3715 57.6638C32.4641 57.6715 32.5567 57.6754 32.6493 57.6754C32.6571 57.6754 32.7111 57.6754 32.8114 57.6754C32.8114 57.6754 32.8153 57.6754 32.823 57.6754C32.823 57.6754 32.823 57.6715 32.823 57.6638C32.8307 57.6638 32.8423 57.6638 32.8577 57.6638C32.8809 57.6638 32.8963 57.6638 32.904 57.6638C33.151 57.6484 33.3632 57.6098 33.5407 57.548C33.5715 57.5403 33.6217 57.521 33.6912 57.4902L33.7027 57.4786C33.7104 57.4786 33.7182 57.4747 33.7259 57.467C33.7413 57.4593 33.7529 57.4516 33.7606 57.4439C33.8378 57.3976 33.9072 57.3397 33.969 57.2702C33.9844 57.2625 34.0037 57.2316 34.0269 57.1776C34.0346 57.1699 34.0461 57.1506 34.0616 57.1197C34.0616 57.112 34.0654 57.1004 34.0732 57.085V57.0619L34.0847 57.0271C34.0847 56.9963 34.0847 56.9693 34.0847 56.9461C34.0847 56.9461 34.0847 56.9307 34.0847 56.8998C34.0847 56.8612 34.0847 56.8419 34.0847 56.8419C34.0847 56.8265 34.077 56.784 34.0616 56.7146C34.0616 56.7146 34.0616 56.7107 34.0616 56.703V56.6914C34.0076 56.5525 33.9728 56.4599 33.9574 56.4136C33.8416 56.1204 33.749 55.8426 33.6796 55.5802C33.5947 55.2792 33.5291 55.0207 33.4828 54.8046C33.4365 54.5885 33.4172 54.33 33.4249 54.029C33.4326 53.7281 33.4867 53.4657 33.587 53.2419C33.7182 52.9641 33.9304 52.7711 34.2236 52.6631C34.5169 52.555 34.7986 52.5782 35.0687 52.7325C35.169 52.7943 35.2539 52.8869 35.3233 53.0104C35.4005 53.1261 35.4352 53.238 35.4275 53.3461C35.4121 53.4464 35.3619 53.5043 35.277 53.5197C35.1921 53.5351 35.115 53.5197 35.0455 53.4734C35.0455 53.4734 35.0455 53.4772 35.0455 53.485C35.0532 53.485 35.061 53.485 35.0687 53.485C35.0532 53.4772 35.0417 53.4734 35.0339 53.4734C35.0339 53.4734 35.0301 53.4734 35.0224 53.4734C35.0224 53.4734 35.0185 53.4734 35.0108 53.4734C35.0108 53.4734 35.0031 53.4734 34.9876 53.4734C34.9799 53.4734 34.9722 53.4734 34.9645 53.4734C34.9028 53.4657 34.8256 53.4772 34.733 53.5081C34.733 53.5158 34.7098 53.5274 34.6635 53.5428H34.6519L34.6404 53.5544C34.5786 53.593 34.5323 53.6277 34.5015 53.6586C34.4937 53.6586 34.486 53.6625 34.4783 53.6702C34.4706 53.6779 34.4629 53.6895 34.4552 53.7049C34.4474 53.7126 34.4397 53.7203 34.432 53.7281C34.432 53.7281 34.4281 53.7319 34.4204 53.7396L34.4089 53.7512C34.3703 53.8129 34.3433 53.867 34.3278 53.9133C34.297 53.9596 34.2738 54.0174 34.2584 54.0869C34.2584 54.0869 34.2545 54.1101 34.2468 54.1564C34.2391 54.1949 34.2314 54.2335 34.2236 54.2721C34.2159 54.3493 34.2121 54.4342 34.2121 54.5268C34.2121 54.5885 34.2121 54.6464 34.2121 54.7004C34.2275 54.8933 34.2584 55.1017 34.3047 55.3255C34.351 55.5184 34.4359 55.7962 34.5593 56.159C34.6828 56.5139 34.7523 56.7146 34.7677 56.7609C34.814 56.923 34.8449 57.0812 34.8603 57.2355C35.1304 57.1275 35.3928 57.0078 35.6475 56.8767C36.8513 56.2438 37.7504 55.476 38.3446 54.5731Z" fill="#FAFAFA"/>
<path d="M42.9546 54.712C43.0472 54.6117 43.1206 54.6078 43.1746 54.7004C43.2209 54.793 43.217 54.9435 43.163 55.1519C43.1321 55.2753 43.0434 55.449 42.8968 55.6728C42.7501 55.8889 42.5495 56.1319 42.2948 56.402C42.0402 56.6721 41.7585 56.923 41.4498 57.1545C41.1488 57.3783 40.7977 57.5596 40.3964 57.6985C40.0028 57.8374 39.6093 57.8915 39.2157 57.8606C38.8761 57.8297 38.5752 57.6831 38.3128 57.4207C38.0504 57.1583 37.8768 56.8496 37.7919 56.4947C37.6684 55.9853 37.8073 55.3641 38.2086 54.631C38.579 53.9287 38.9649 53.4271 39.3662 53.1261C39.6131 52.9409 39.8408 52.856 40.0491 52.8714C40.1417 52.8792 40.2305 52.91 40.3154 52.9641C40.408 53.0104 40.489 53.0721 40.5585 53.1493C40.6279 53.2187 40.6858 53.2959 40.7321 53.3808C40.9405 53.7435 40.9559 54.1911 40.7784 54.7236C40.6009 55.2329 40.3154 55.6265 39.9218 55.9043C39.698 56.0586 39.4626 56.1551 39.2157 56.1937C39.0536 56.2168 38.8723 56.186 38.6716 56.1011C38.6485 56.0934 38.6253 56.0818 38.6022 56.0663C38.5327 56.3133 38.5134 56.5294 38.5443 56.7146C38.552 56.7532 38.5597 56.7802 38.5674 56.7956C38.5752 56.8111 38.579 56.8226 38.579 56.8303C38.579 56.8381 38.5867 56.8496 38.6022 56.8651V56.8767C38.6022 56.8767 38.6022 56.8728 38.6022 56.8651C38.6099 56.8728 38.6215 56.8844 38.6369 56.8998C38.6446 56.9075 38.6639 56.9191 38.6948 56.9345C38.7025 56.9422 38.7102 56.9461 38.7179 56.9461C38.7797 56.9693 38.8144 56.9808 38.8221 56.9808C38.8298 56.9886 38.8645 56.9963 38.9263 57.004C38.9649 57.0117 39.0073 57.0156 39.0536 57.0156C39.2774 57.0156 39.5437 56.9731 39.8523 56.8882C40.3308 56.7416 40.8363 56.4831 41.3688 56.1127C41.9861 55.6805 42.5148 55.2136 42.9546 54.712ZM40.107 53.4734V53.485C40.107 53.4772 40.107 53.4734 40.107 53.4734ZM39.4009 54.5499C39.2234 54.7969 39.0691 55.04 38.9379 55.2792C38.9842 55.2638 39.0305 55.2483 39.0768 55.2329C39.1539 55.202 39.2427 55.148 39.343 55.0708C39.4356 55.0014 39.5205 54.9242 39.5977 54.8393C39.6671 54.7621 39.7289 54.6773 39.7829 54.5847C39.8446 54.4921 39.8986 54.3917 39.945 54.2837C39.9913 54.1911 40.0298 54.0869 40.0607 53.9711C40.0684 53.9634 40.0723 53.9596 40.0723 53.9596V53.948C40.08 53.9171 40.0839 53.8978 40.0839 53.8901C40.0839 53.8901 40.0877 53.8785 40.0954 53.8554C40.026 53.894 39.9604 53.9441 39.8986 54.0059C39.7289 54.1525 39.563 54.3338 39.4009 54.5499ZM38.579 56.8303C38.579 56.8303 38.5752 56.8303 38.5674 56.8303C38.5674 56.8303 38.5674 56.8265 38.5674 56.8188C38.5674 56.8265 38.5713 56.8342 38.579 56.8419V56.8303Z" fill="#FAFAFA"/>
<path d="M46.458 53.566C46.4735 53.674 46.4464 53.7551 46.377 53.8091C46.3153 53.8631 46.2342 53.8708 46.1339 53.8322C46.1262 53.8245 46.1108 53.8168 46.0876 53.8091C46.0644 53.8014 46.049 53.7975 46.0413 53.7975C46.0336 53.7898 46.022 53.7821 46.0066 53.7744C45.9603 53.7666 45.9217 53.7628 45.8908 53.7628C45.8831 53.7628 45.8599 53.7628 45.8214 53.7628L45.7635 53.7512C45.7172 53.7589 45.6786 53.7666 45.6477 53.7744C45.4625 53.8052 45.2773 53.8863 45.0921 54.0174C44.7757 54.2412 44.4631 54.5731 44.1544 55.013C43.8921 55.3834 43.6297 55.8194 43.3673 56.321C43.0663 56.8998 42.8271 57.4439 42.6496 57.9532C42.6187 58.0227 42.5686 58.0574 42.4991 58.0574C42.4297 58.0574 42.3641 58.0381 42.3023 57.9995C42.2406 57.9686 42.1866 57.9339 42.1403 57.8953C41.9165 57.6947 41.8393 57.4902 41.9088 57.2818C41.9473 57.166 41.9975 57.0156 42.0592 56.8303C42.3062 56.0355 42.5146 55.3332 42.6843 54.7236C42.7847 54.3377 42.8618 54.0059 42.9158 53.7281C42.9467 53.566 42.966 53.4348 42.9737 53.3345C42.9737 53.319 42.9737 53.2959 42.9737 53.265C42.9814 53.2264 42.9853 53.1994 42.9853 53.184C42.9853 53.1686 42.9853 53.157 42.9853 53.1493C42.9622 53.0412 42.9814 52.9641 43.0432 52.9177C43.1126 52.8637 43.1975 52.856 43.2978 52.8946C43.4059 52.9332 43.5023 53.0065 43.5872 53.1145C43.6721 53.2149 43.7261 53.3268 43.7493 53.4502C43.7725 53.5737 43.7725 53.7281 43.7493 53.9133C44.5133 52.9949 45.2657 52.694 46.0066 53.0104C46.1146 53.0567 46.2111 53.1338 46.296 53.2419C46.3809 53.3422 46.4349 53.4502 46.458 53.566Z" fill="#FAFAFA"/>
<path d="M50.9386 52.6399C51.0313 52.9563 51.0274 53.3268 50.9271 53.7512C50.8267 54.1602 50.6763 54.5924 50.4756 55.0477C50.082 55.9043 49.6344 56.6258 49.1328 57.2123C49.0171 57.3435 48.9052 57.4554 48.7971 57.548C48.6968 57.6407 48.5849 57.7178 48.4614 57.7796C48.1296 57.9493 47.8093 57.903 47.5007 57.6406C47.0145 57.2239 46.8138 56.4522 46.8987 55.3255C46.9373 54.8856 47.0183 54.438 47.1418 53.9827C47.2653 53.5583 47.408 53.2264 47.5701 52.9872C47.5933 52.9486 47.6203 52.9216 47.6511 52.9062C47.6897 52.8907 47.7245 52.8869 47.7553 52.8946C47.7939 52.8946 47.8325 52.9023 47.8711 52.9177C47.9097 52.9332 47.9444 52.9525 47.9753 52.9756C48.0061 52.9911 48.037 53.0142 48.0679 53.0451C48.1528 53.1223 48.2261 53.2226 48.2878 53.3461C48.3495 53.4695 48.3534 53.5737 48.2994 53.6586C48.1296 53.9133 47.9868 54.2605 47.8711 54.7004C47.763 55.1017 47.6974 55.53 47.6743 55.9853C47.6666 56.0856 47.6627 56.1821 47.6627 56.2747C47.6627 56.321 47.6627 56.3635 47.6627 56.402C47.6627 56.4175 47.6627 56.4368 47.6627 56.4599C47.6627 56.4676 47.6627 56.4715 47.6627 56.4715C47.6781 56.6336 47.7013 56.7956 47.7322 56.9577C47.7322 56.9654 47.7322 56.9731 47.7322 56.9808C47.7322 56.9886 47.736 56.9924 47.7437 56.9924C47.7437 57.0001 47.7437 57.004 47.7437 57.004C47.7746 56.9963 47.8132 56.9847 47.8595 56.9693C47.8672 56.9693 47.8749 56.9693 47.8827 56.9693C47.8904 56.9615 47.8942 56.9538 47.8942 56.9461C47.9251 56.9307 47.9482 56.9191 47.9637 56.9114C48.01 56.8805 48.0563 56.8458 48.1026 56.8072C48.3032 56.6374 48.5039 56.4175 48.7045 56.1474C49.1676 55.5377 49.5534 54.8509 49.8621 54.0869C49.9393 53.9094 50.0049 53.7396 50.0589 53.5776C50.082 53.4927 50.1052 53.4078 50.1283 53.3229C50.1283 53.3152 50.1322 53.3113 50.1399 53.3113C50.1399 53.3036 50.1399 53.2997 50.1399 53.2997C50.1399 53.2766 50.1438 53.2612 50.1515 53.2534C50.1592 53.2071 50.1669 53.1724 50.1746 53.1493C50.2055 52.9949 50.2248 52.856 50.2325 52.7325C50.2325 52.7171 50.2325 52.6978 50.2325 52.6747C50.2325 52.6515 50.2325 52.6361 50.2325 52.6284C50.2325 52.6206 50.2325 52.6129 50.2325 52.6052C50.2248 52.5743 50.221 52.5512 50.221 52.5357C50.221 52.5357 50.221 52.5319 50.221 52.5242C50.1824 52.447 50.1785 52.366 50.2094 52.2811C50.2402 52.1885 50.3097 52.1499 50.4177 52.1653C50.5258 52.173 50.63 52.2271 50.7303 52.3274C50.8306 52.42 50.9001 52.5242 50.9386 52.6399ZM47.7785 57.085C47.8016 57.1159 47.8093 57.1352 47.8016 57.1429C47.8093 57.1275 47.7978 57.1082 47.7669 57.085H47.7785Z" fill="#FAFAFA"/>
<path d="M56.538 54.631C56.6228 54.5538 56.6769 54.6001 56.7 54.7699C56.7155 54.9088 56.7 55.04 56.6537 55.1634C56.6228 55.2406 56.5341 55.3718 56.3875 55.557C56.2409 55.7422 56.0363 55.9622 55.774 56.2168C55.5193 56.4715 55.2415 56.7146 54.9405 56.9461C54.6473 57.1699 54.3154 57.359 53.945 57.5133C53.5746 57.6754 53.2196 57.7564 52.88 57.7564C52.4787 57.7564 52.1392 57.5403 51.8614 57.1082C51.6916 56.8381 51.6144 56.4985 51.6298 56.0895C51.6607 55.557 51.8652 54.8548 52.2434 53.9827C52.4209 53.566 52.6022 53.1917 52.7874 52.8599C52.88 52.6901 53.0382 52.7017 53.262 52.8946C53.4781 53.0798 53.5746 53.2612 53.5514 53.4387C53.5437 53.4695 53.5321 53.5004 53.5167 53.5313C53.316 53.894 53.1193 54.303 52.9263 54.7583C52.7797 55.1133 52.6601 55.4413 52.5675 55.7422C52.5598 55.7808 52.5482 55.831 52.5328 55.8927C52.5328 55.8927 52.5289 55.9004 52.5212 55.9159C52.5212 55.9313 52.5173 55.9429 52.5096 55.9506C52.4942 56.0432 52.4787 56.1204 52.4633 56.1821C52.4324 56.3519 52.417 56.5024 52.417 56.6336C52.4093 56.649 52.4093 56.6837 52.417 56.7377C52.417 56.7377 52.417 56.7455 52.417 56.7609V56.8072L52.4286 56.8767C52.4517 56.8844 52.4672 56.8882 52.4749 56.8882C52.6061 56.9037 52.7643 56.8959 52.9495 56.8651C53.6054 56.7416 54.3965 56.3365 55.3225 55.6496C55.7933 55.2946 56.1984 54.9551 56.538 54.631ZM53.4588 52.2001C53.3739 52.1229 53.3045 52.0264 53.2505 51.9107C53.1964 51.7872 53.1887 51.6791 53.2273 51.5865C53.2813 51.4553 53.3662 51.2586 53.482 50.9962C53.5128 50.9344 53.563 50.9036 53.6324 50.9036C53.7019 50.8959 53.7636 50.9113 53.8177 50.9499C53.8794 50.9807 53.9373 51.0155 53.9913 51.0541C54.0762 51.1312 54.1456 51.2277 54.1997 51.3434C54.2537 51.4592 54.2614 51.5672 54.2228 51.6676C54.1611 51.7988 54.0762 51.9917 53.9681 52.2464C53.9373 52.3158 53.8871 52.3505 53.8177 52.3505C53.7482 52.3505 53.6826 52.3351 53.6209 52.3042C53.5669 52.2734 53.5128 52.2386 53.4588 52.2001Z" fill="#FAFAFA"/>
<path d="M61.6057 54.6657C61.6751 54.5885 61.7253 54.6194 61.7562 54.7583C61.7793 54.9126 61.7485 55.0824 61.6636 55.2676C61.4012 55.8233 60.8841 56.3789 60.1124 56.9345C59.3407 57.4825 58.623 57.7564 57.9593 57.7564C57.4191 57.7564 56.9638 57.5712 56.5934 57.2008C56.2307 56.8226 56.0802 56.3712 56.1419 55.8464C56.1882 55.4065 56.358 54.9204 56.6513 54.3879C56.9214 53.894 57.2262 53.4811 57.5658 53.1493C57.913 52.8097 58.2333 52.6515 58.5265 52.6747C58.8507 52.6978 59.1053 52.8792 59.2905 53.2187C59.4295 53.458 59.4603 53.7473 59.3832 54.0869C59.3368 54.2953 59.2018 54.33 58.978 54.1911C58.7696 54.0599 58.6462 53.8978 58.6076 53.7049C58.5999 53.674 58.596 53.647 58.596 53.6239C58.5806 53.6316 58.569 53.6354 58.5613 53.6354C58.268 53.8284 57.9786 54.1371 57.6931 54.5615C57.423 54.9474 57.2146 55.3409 57.068 55.7422C56.9908 55.9506 56.9407 56.1397 56.9175 56.3094C56.9021 56.4329 56.9021 56.5332 56.9175 56.6104C56.9175 56.6181 56.9175 56.6336 56.9175 56.6567C56.9252 56.6799 56.9291 56.6953 56.9291 56.703C56.9368 56.703 56.9407 56.7107 56.9407 56.7262C56.9484 56.7339 56.9522 56.7416 56.9522 56.7493C56.9522 56.7493 56.9522 56.7455 56.9522 56.7377V56.7493L56.9638 56.7609C56.9638 56.7609 56.9638 56.7648 56.9638 56.7725C56.9715 56.7725 56.9793 56.7763 56.987 56.784L56.9638 56.7493C56.9638 56.757 56.9638 56.7609 56.9638 56.7609C56.987 56.7686 57.0101 56.7802 57.0333 56.7956C57.041 56.7956 57.0526 56.7995 57.068 56.8072C57.0989 56.8226 57.1143 56.8303 57.1143 56.8303C57.1606 56.8458 57.1876 56.8535 57.1953 56.8535C57.2571 56.8689 57.3188 56.8767 57.3806 56.8767C57.7124 56.9152 58.1021 56.8612 58.5497 56.7146C59.2211 56.4985 59.9311 56.0895 60.6796 55.4876C61.0578 55.1943 61.3665 54.9204 61.6057 54.6657Z" fill="#FAFAFA"/>
<path d="M66.174 54.712C66.2666 54.6117 66.3399 54.6078 66.3939 54.7004C66.4402 54.793 66.4363 54.9435 66.3823 55.1519C66.3514 55.2753 66.2627 55.449 66.1161 55.6728C65.9694 55.8889 65.7688 56.1319 65.5141 56.402C65.2595 56.6721 64.9778 56.923 64.6691 57.1545C64.3681 57.3783 64.017 57.5596 63.6157 57.6985C63.2221 57.8374 62.8286 57.8915 62.435 57.8606C62.0954 57.8297 61.7945 57.6831 61.5321 57.4207C61.2697 57.1583 61.0961 56.8496 61.0112 56.4947C60.8877 55.9853 61.0266 55.3641 61.4279 54.631C61.7983 53.9287 62.1842 53.4271 62.5855 53.1261C62.8324 52.9409 63.0601 52.856 63.2684 52.8714C63.361 52.8792 63.4498 52.91 63.5347 52.9641C63.6273 53.0104 63.7083 53.0721 63.7778 53.1493C63.8472 53.2187 63.9051 53.2959 63.9514 53.3808C64.1598 53.7435 64.1752 54.1911 63.9977 54.7236C63.8202 55.2329 63.5347 55.6265 63.1411 55.9043C62.9173 56.0586 62.6819 56.1551 62.435 56.1937C62.2729 56.2168 62.0916 56.186 61.8909 56.1011C61.8678 56.0934 61.8446 56.0818 61.8215 56.0663C61.752 56.3133 61.7327 56.5294 61.7636 56.7146C61.7713 56.7532 61.779 56.7802 61.7867 56.7956C61.7945 56.8111 61.7983 56.8226 61.7983 56.8303C61.7983 56.8381 61.806 56.8496 61.8215 56.8651V56.8767C61.8215 56.8767 61.8215 56.8728 61.8215 56.8651C61.8292 56.8728 61.8408 56.8844 61.8562 56.8998C61.8639 56.9075 61.8832 56.9191 61.9141 56.9345C61.9218 56.9422 61.9295 56.9461 61.9372 56.9461C61.999 56.9693 62.0337 56.9808 62.0414 56.9808C62.0491 56.9886 62.0839 56.9963 62.1456 57.004C62.1842 57.0117 62.2266 57.0156 62.2729 57.0156C62.4967 57.0156 62.763 56.9731 63.0717 56.8882C63.5501 56.7416 64.0556 56.4831 64.5881 56.1127C65.2054 55.6805 65.7341 55.2136 66.174 54.712ZM63.3263 53.4734V53.485C63.3263 53.4772 63.3263 53.4734 63.3263 53.4734ZM62.6202 54.5499C62.4427 54.7969 62.2884 55.04 62.1572 55.2792C62.2035 55.2638 62.2498 55.2483 62.2961 55.2329C62.3732 55.202 62.462 55.148 62.5623 55.0708C62.6549 55.0014 62.7398 54.9242 62.817 54.8393C62.8864 54.7621 62.9482 54.6773 63.0022 54.5847C63.0639 54.4921 63.118 54.3917 63.1643 54.2837C63.2106 54.1911 63.2491 54.0869 63.28 53.9711C63.2877 53.9634 63.2916 53.9596 63.2916 53.9596V53.948C63.2993 53.9171 63.3032 53.8978 63.3032 53.8901C63.3032 53.8901 63.307 53.8785 63.3147 53.8554C63.2453 53.894 63.1797 53.9441 63.118 54.0059C62.9482 54.1525 62.7823 54.3338 62.6202 54.5499ZM61.7983 56.8303C61.7983 56.8303 61.7945 56.8303 61.7867 56.8303C61.7867 56.8303 61.7867 56.8265 61.7867 56.8188C61.7867 56.8265 61.7906 56.8342 61.7983 56.8419V56.8303Z" fill="#FAFAFA"/>
<path d="M70.777 54.5731C70.8542 54.465 70.9237 54.4959 70.9854 54.6657C71.0163 54.7583 71.0278 54.8393 71.0201 54.9088C70.9892 55.1249 70.8619 55.3911 70.6381 55.7075C70.4143 56.0239 70.1249 56.348 69.7699 56.6799C69.4149 57.0117 68.9789 57.332 68.4619 57.6406C67.9448 57.9571 67.4046 58.2117 66.8413 58.4047C66.4323 58.5358 65.9654 58.5937 65.4406 58.5783C65.1551 58.5706 64.9313 58.5397 64.7692 58.4857C64.5763 58.4085 64.4374 58.258 64.3525 58.0342C64.3216 57.9725 64.3139 57.8953 64.3293 57.8027C64.3371 57.7178 64.3795 57.6677 64.4567 57.6522C64.4875 57.6445 64.5223 57.6406 64.5609 57.6406H64.584C64.6072 57.6406 64.6457 57.6445 64.6998 57.6522C64.7461 57.6599 64.7808 57.6638 64.8039 57.6638C64.8965 57.6715 64.9892 57.6754 65.0818 57.6754C65.0895 57.6754 65.1435 57.6754 65.2438 57.6754C65.2438 57.6754 65.2477 57.6754 65.2554 57.6754C65.2554 57.6754 65.2554 57.6715 65.2554 57.6638C65.2631 57.6638 65.2747 57.6638 65.2901 57.6638C65.3133 57.6638 65.3287 57.6638 65.3364 57.6638C65.5834 57.6484 65.7956 57.6098 65.9731 57.548C66.004 57.5403 66.0541 57.521 66.1236 57.4902L66.1352 57.4786C66.1429 57.4786 66.1506 57.4747 66.1583 57.467C66.1737 57.4593 66.1853 57.4516 66.193 57.4439C66.2702 57.3976 66.3397 57.3397 66.4014 57.2702C66.4168 57.2625 66.4361 57.2316 66.4593 57.1776C66.467 57.1699 66.4786 57.1506 66.494 57.1197C66.494 57.112 66.4979 57.1004 66.5056 57.085V57.0619L66.5172 57.0271C66.5172 56.9963 66.5172 56.9693 66.5172 56.9461C66.5172 56.9461 66.5172 56.9307 66.5172 56.8998C66.5172 56.8612 66.5172 56.8419 66.5172 56.8419C66.5172 56.8265 66.5094 56.784 66.494 56.7146C66.494 56.7146 66.494 56.7107 66.494 56.703V56.6914C66.44 56.5525 66.4053 56.4599 66.3898 56.4136C66.2741 56.1204 66.1815 55.8426 66.112 55.5802C66.0271 55.2792 65.9615 55.0207 65.9152 54.8046C65.8689 54.5885 65.8496 54.33 65.8573 54.029C65.8651 53.7281 65.9191 53.4657 66.0194 53.2419C66.1506 52.9641 66.3628 52.7711 66.6561 52.6631C66.9493 52.555 67.231 52.5782 67.5011 52.7325C67.6014 52.7943 67.6863 52.8869 67.7558 53.0104C67.8329 53.1261 67.8677 53.238 67.8599 53.3461C67.8445 53.4464 67.7943 53.5043 67.7094 53.5197C67.6246 53.5351 67.5474 53.5197 67.4779 53.4734C67.4779 53.4734 67.4779 53.4772 67.4779 53.485C67.4857 53.485 67.4934 53.485 67.5011 53.485C67.4857 53.4772 67.4741 53.4734 67.4664 53.4734C67.4664 53.4734 67.4625 53.4734 67.4548 53.4734C67.4548 53.4734 67.4509 53.4734 67.4432 53.4734C67.4432 53.4734 67.4355 53.4734 67.4201 53.4734C67.4123 53.4734 67.4046 53.4734 67.3969 53.4734C67.3352 53.4657 67.258 53.4772 67.1654 53.5081C67.1654 53.5158 67.1422 53.5274 67.0959 53.5428H67.0844L67.0728 53.5544C67.0111 53.593 66.9647 53.6277 66.9339 53.6586C66.9262 53.6586 66.9184 53.6625 66.9107 53.6702C66.903 53.6779 66.8953 53.6895 66.8876 53.7049C66.8799 53.7126 66.8721 53.7203 66.8644 53.7281C66.8644 53.7281 66.8606 53.7319 66.8528 53.7396L66.8413 53.7512C66.8027 53.8129 66.7757 53.867 66.7602 53.9133C66.7294 53.9596 66.7062 54.0174 66.6908 54.0869C66.6908 54.0869 66.6869 54.1101 66.6792 54.1564C66.6715 54.1949 66.6638 54.2335 66.6561 54.2721C66.6483 54.3493 66.6445 54.4342 66.6445 54.5268C66.6445 54.5885 66.6445 54.6464 66.6445 54.7004C66.6599 54.8933 66.6908 55.1017 66.7371 55.3255C66.7834 55.5184 66.8683 55.7962 66.9918 56.159C67.1152 56.5139 67.1847 56.7146 67.2001 56.7609C67.2464 56.923 67.2773 57.0812 67.2927 57.2355C67.5628 57.1275 67.8252 57.0078 68.0799 56.8767C69.2838 56.2438 70.1828 55.476 70.777 54.5731Z" fill="#FAFAFA"/>
</svg>
