<svg width="105" height="59" viewBox="0 0 105 59" fill="none" xmlns="http://www.w3.org/2000/svg">
<path d="M11.1636 0C14.3047 0 17.0497 0.622559 19.3984 1.86768C21.7472 3.1128 23.5582 4.86729 24.8316 7.13114C26.1334 9.3667 26.7842 11.956 26.7842 14.899C26.7842 17.8137 26.1334 20.403 24.8316 22.6668C23.5582 24.9307 21.733 26.6852 19.356 27.9303C17.0072 29.1754 14.2764 29.798 11.1636 29.798H0V0H11.1636ZM10.6967 23.5158C13.4416 23.5158 15.5781 22.7659 17.1062 21.2661C18.6344 19.7663 19.3984 17.6439 19.3984 14.899C19.3984 12.1541 18.6344 10.0176 17.1062 8.48945C15.5781 6.96135 13.4416 6.1973 10.6967 6.1973H7.25848V23.5158H10.6967Z" fill="#FAFAFA"/>
<path d="M38.0991 5.81528V11.8428H47.8195V17.4458H38.0991V23.9827H49.0929V29.798H30.8406V0H49.0929V5.81528H38.0991Z" fill="#FAFAFA"/>
<path d="M61.0637 5.81528V11.8428H70.7841V17.4458H61.0637V23.9827H72.0575V29.798H53.8052V0H72.0575V5.81528H61.0637Z" fill="#FAFAFA"/>
<path d="M103.427 29.798H96.1683L84.0284 11.4183V29.798H76.7699V0H84.0284L96.1683 18.4646V0H103.427V29.798Z" fill="#FAFAFA"/>
<path d="M5.46896 41.7174C5.55385 41.6171 5.63102 41.6441 5.70047 41.7985C5.74678 41.8988 5.75835 41.9991 5.7352 42.0994C5.63488 42.4853 5.24902 43.0178 4.57763 43.6969C3.90623 44.376 3.26185 44.839 2.64448 45.086C1.82646 45.4101 1.20137 45.4371 0.769208 45.167C0.352481 44.9123 0.105532 44.4995 0.0283606 43.9284C-0.0256596 43.5271 -0.00250808 43.0255 0.097815 42.4236C0.198138 41.8756 0.360198 41.2467 0.583996 40.5367C0.962137 39.3251 1.46375 38.0364 2.08884 36.6704C2.35123 36.0993 2.59818 35.5977 2.82969 35.1656C3.05349 34.7488 3.24642 34.4402 3.40848 34.2395C3.44706 34.1778 3.50494 34.1623 3.58211 34.1932C3.667 34.2241 3.74031 34.2627 3.80205 34.309C3.86379 34.3553 3.91395 34.4016 3.95254 34.4479C4.13775 34.6717 4.16862 34.8646 4.04514 35.0267C4.06058 35.0035 4.06829 34.9919 4.06829 34.9919L4.03357 35.0382C4.01813 35.0614 4.0027 35.0884 3.98726 35.1193C3.64771 35.6286 3.20783 36.4813 2.66763 37.6775C2.06569 39.028 1.59109 40.2782 1.24381 41.428C1.19751 41.5824 1.15507 41.7329 1.11648 41.8795C1.07789 42.0107 1.04703 42.1419 1.02387 42.2731C0.946703 42.5663 0.888824 42.8403 0.850238 43.095C0.811652 43.3651 0.788501 43.612 0.780784 43.8358C0.780784 43.8898 0.780784 43.9438 0.780784 43.9979C0.780784 44.0056 0.780784 44.0249 0.780784 44.0557C0.780784 44.0557 0.780784 44.0596 0.780784 44.0673C0.788501 44.1831 0.800077 44.2757 0.815511 44.3451C0.815511 44.3529 0.819369 44.3683 0.827087 44.3914C0.834804 44.4069 0.842521 44.43 0.850238 44.4609C0.857955 44.4609 0.865672 44.4609 0.87339 44.4609C1.42131 44.5149 2.06183 44.3336 2.79496 43.9168C3.75961 43.3766 4.65094 42.6435 5.46896 41.7174ZM0.861814 44.4956V44.484C0.861814 44.4918 0.861814 44.4956 0.861814 44.4956Z" fill="#FAFAFA"/>
<path d="M11.8979 41.6364C11.9751 41.567 12.0484 41.5747 12.1179 41.6596C12.195 41.7445 12.2143 41.8216 12.1757 41.8911C11.9056 42.3387 11.4272 42.7014 10.7404 42.9792C10.0535 43.257 9.37056 43.3689 8.69145 43.3149C8.66829 43.3689 8.64514 43.4152 8.62199 43.4538C8.29787 44.1175 7.86185 44.5265 7.31393 44.6808C6.95123 44.7812 6.59624 44.7464 6.24896 44.5766C5.90941 44.4069 5.65088 44.1522 5.47339 43.8127C5.14927 43.1721 5.12998 42.4351 5.41551 41.6017C5.47725 41.4396 5.5467 41.2814 5.62387 41.1271C5.70876 40.9727 5.80523 40.83 5.91327 40.6988C6.02131 40.5599 6.14478 40.4364 6.28369 40.3284C6.43032 40.2203 6.5808 40.1393 6.73515 40.0853C6.75058 40.0853 6.76601 40.0814 6.78145 40.0737C7.02068 39.9734 7.29078 39.9618 7.59175 40.039C7.83098 40.093 8.04706 40.1972 8.23999 40.3515C8.43292 40.5058 8.58726 40.6911 8.70302 40.9071C8.81878 41.1155 8.89981 41.3432 8.94611 41.5901C8.99241 41.8679 8.99241 42.165 8.94611 42.4814C8.94611 42.4814 8.94997 42.4853 8.95769 42.493C8.9654 42.493 8.96926 42.493 8.96926 42.493C9.72554 42.547 10.4548 42.4158 11.1571 42.0994C11.1725 42.0917 11.1879 42.084 11.2034 42.0763C11.2343 42.0609 11.2651 42.0454 11.296 42.03C11.3423 41.9991 11.3925 41.9721 11.4465 41.949C11.5314 41.8949 11.6124 41.8409 11.6896 41.7869C11.7822 41.7252 11.8516 41.675 11.8979 41.6364ZM7.63805 40.8608C7.58403 40.8608 7.53387 40.8647 7.48757 40.8724C7.36409 40.8878 7.26763 40.9303 7.19817 40.9997C7.18274 41.0152 7.16345 41.0345 7.1403 41.0576C7.13258 41.0653 7.12486 41.0731 7.11715 41.0808C7.09399 41.1348 7.0747 41.1811 7.05927 41.2197C7.05927 41.2197 7.05927 41.2235 7.05927 41.2313C7.05155 41.2544 7.04769 41.2698 7.04769 41.2776C7.04769 41.3084 7.04769 41.3393 7.04769 41.3702C7.04769 41.3779 7.04769 41.3856 7.04769 41.3933C7.04769 41.3856 7.04769 41.3817 7.04769 41.3817C7.04769 41.3895 7.04769 41.3933 7.04769 41.3933V41.4049C7.04769 41.4435 7.05155 41.4705 7.05927 41.4859C7.05927 41.5014 7.06313 41.5207 7.07084 41.5438V41.567L7.09399 41.6017C7.09399 41.6171 7.10171 41.6403 7.11715 41.6711V41.6827C7.12486 41.6981 7.12872 41.7059 7.12872 41.7059C7.12872 41.6981 7.12872 41.6904 7.12872 41.6827C7.12872 41.6981 7.13258 41.7097 7.1403 41.7174C7.14801 41.7329 7.16345 41.7599 7.1866 41.7985C7.20203 41.8216 7.20975 41.8332 7.20975 41.8332C7.20203 41.8178 7.19432 41.8062 7.1866 41.7985C7.19432 41.8139 7.20203 41.8293 7.20975 41.8448C7.22519 41.8525 7.24062 41.8641 7.25605 41.8795C7.27149 41.8949 7.28306 41.9104 7.29078 41.9258C7.2985 41.9335 7.30622 41.9374 7.31393 41.9374C7.3448 41.9682 7.37953 42.003 7.41811 42.0416C7.44127 42.057 7.4567 42.0686 7.46442 42.0763C7.503 42.0994 7.53773 42.1187 7.5686 42.1342C7.59175 42.1496 7.6149 42.1612 7.63805 42.1689C7.76925 42.2383 7.91587 42.2962 8.07793 42.3425C8.08565 42.3039 8.09337 42.2692 8.10108 42.2383C8.1088 42.2383 8.11266 42.2268 8.11266 42.2036C8.11266 42.2036 8.11266 42.1998 8.11266 42.192C8.12809 42.1535 8.13581 42.1226 8.13581 42.0994C8.16668 41.9682 8.18597 41.8371 8.19369 41.7059C8.19369 41.6673 8.19369 41.6017 8.19369 41.5091C8.19369 41.5014 8.19369 41.4936 8.19369 41.4859C8.19369 41.4782 8.19369 41.4666 8.19369 41.4512C8.19369 41.428 8.19369 41.4126 8.19369 41.4049C8.18597 41.3432 8.1744 41.2814 8.15896 41.2197C8.15896 41.2197 8.1551 41.2081 8.14739 41.185V41.1618C8.13967 41.1464 8.13581 41.1387 8.13581 41.1387C8.13581 41.1232 8.13195 41.1078 8.12424 41.0924C8.11652 41.0769 8.1088 41.0653 8.10108 41.0576C8.10108 41.0422 8.09337 41.0268 8.07793 41.0113C8.07793 41.0036 8.07021 40.992 8.05478 40.9766C8.05478 40.9766 8.05092 40.9727 8.0432 40.965C8.03549 40.9573 8.02777 40.9534 8.02005 40.9534C8.02005 40.9534 8.01619 40.9496 8.00848 40.9419C8.01619 40.9419 8.02005 40.9419 8.02005 40.9419C8.01234 40.9419 8.00848 40.9419 8.00848 40.9419C7.99304 40.9341 7.98147 40.9303 7.97375 40.9303C7.96603 40.9226 7.95832 40.9187 7.9506 40.9187C7.94288 40.911 7.92745 40.9071 7.90429 40.9071C7.88886 40.8994 7.87729 40.8956 7.86957 40.8956C7.86185 40.8878 7.85413 40.884 7.84642 40.884C7.76925 40.8686 7.69979 40.8608 7.63805 40.8608ZM7.44127 43.4307C7.53387 43.3458 7.61104 43.257 7.67278 43.1644C7.68821 43.1413 7.70365 43.1142 7.71908 43.0834C7.43355 42.9522 7.17502 42.7631 6.94351 42.5162C6.71199 42.2692 6.53836 41.9914 6.4226 41.6827C6.25282 41.9528 6.13707 42.2422 6.07533 42.5509C6.03674 42.7052 6.01359 42.8596 6.00587 43.0139C5.99816 43.0911 5.99816 43.1683 6.00587 43.2454C6.00587 43.2532 6.00587 43.257 6.00587 43.257C6.00587 43.2647 6.00587 43.2763 6.00587 43.2917C6.00587 43.2995 6.00587 43.311 6.00587 43.3265C6.00587 43.3342 6.00587 43.3419 6.00587 43.3496C6.01359 43.3573 6.01745 43.3689 6.01745 43.3843C6.01745 43.4075 6.02131 43.4422 6.02903 43.4885C6.04446 43.5271 6.05218 43.558 6.05218 43.5811C6.05218 43.5889 6.05604 43.5966 6.06375 43.6043C6.07919 43.6429 6.0869 43.6699 6.0869 43.6853C6.0869 43.6853 6.09076 43.6892 6.09848 43.6969C6.11391 43.7278 6.12549 43.7471 6.13321 43.7548C6.14092 43.7702 6.14864 43.7818 6.15636 43.7895C6.16408 43.7895 6.17179 43.7934 6.17951 43.8011L6.21424 43.8127C6.21424 43.8127 6.2181 43.8165 6.22581 43.8242C6.24125 43.8242 6.25282 43.8281 6.26054 43.8358C6.26826 43.8358 6.27597 43.8397 6.28369 43.8474C6.28369 43.8474 6.29141 43.8474 6.30684 43.8474C6.36086 43.8551 6.38787 43.859 6.38787 43.859C6.43418 43.8667 6.4882 43.8705 6.54993 43.8705C6.54993 43.8705 6.55765 43.8705 6.57309 43.8705C6.59624 43.8705 6.61167 43.8667 6.61939 43.859C6.65026 43.859 6.68113 43.8551 6.71199 43.8474C6.76601 43.8397 6.82003 43.8242 6.87405 43.8011C6.89721 43.7934 6.92807 43.7856 6.96666 43.7779C6.96666 43.7702 6.97438 43.7663 6.98981 43.7663C7.00525 43.7586 7.01296 43.7548 7.01296 43.7548C7.06698 43.7239 7.11329 43.6969 7.15187 43.6737C7.2522 43.6043 7.34866 43.5233 7.44127 43.4307ZM6.17951 43.8011C6.19494 43.8088 6.20652 43.8127 6.21424 43.8127C6.20652 43.8049 6.19494 43.8011 6.17951 43.8011ZM8.00848 40.9419C7.99304 40.9341 7.98147 40.9303 7.97375 40.9303C7.98918 40.938 8.00076 40.9419 8.00848 40.9419ZM7.04769 41.3933C7.04769 41.3933 7.04769 41.3972 7.04769 41.4049V41.3933ZM7.12872 41.6827C7.121 41.6827 7.11715 41.6827 7.11715 41.6827C7.11715 41.675 7.121 41.675 7.12872 41.6827Z" fill="#FAFAFA"/>
<path d="M19.4864 41.7059C19.5404 41.7367 19.5713 41.783 19.579 41.8448C19.5944 41.8988 19.5828 41.9374 19.5442 41.9605C19.5134 41.9682 19.4748 41.9875 19.4285 42.0184C18.7417 42.4043 18.0201 42.8519 17.2638 43.3612C16.3223 43.994 15.4927 44.6152 14.775 45.2249C14.7673 45.2403 14.7596 45.2558 14.7519 45.2712C14.7442 45.2943 14.7403 45.3136 14.7403 45.3291C14.2927 46.7104 13.8528 47.8487 13.4207 48.7439C13.166 49.2764 12.9268 49.697 12.703 50.0057C12.4174 50.3838 12.1512 50.6153 11.9043 50.7002C11.7499 50.7542 11.5879 50.7504 11.4181 50.6886C11.2637 50.6269 11.1287 50.5343 11.0129 50.4108C10.8972 50.2873 10.8161 50.1484 10.7698 49.9941C10.7158 49.8398 10.7004 49.6275 10.7235 49.3574C10.7621 48.8172 10.9435 48.2539 11.2676 47.6674C11.8155 46.6796 12.7454 45.6262 14.0573 44.5072C14.1577 44.1831 14.2618 43.8435 14.3699 43.4885C14.0303 43.8435 13.6831 44.0905 13.3281 44.2294C12.9036 44.3992 12.5216 44.3644 12.1821 44.1252C11.7808 43.8474 11.5686 43.4499 11.5454 42.9329C11.4991 42.2075 11.8155 41.4744 12.4946 40.7335C12.9885 40.1856 13.5442 39.7882 14.1615 39.5412C14.3853 39.4486 14.6438 39.4177 14.9371 39.4486C15.431 39.5026 15.813 39.8422 16.0831 40.4673C16.1217 40.5522 16.1255 40.6409 16.0947 40.7335C16.0638 40.8261 15.9944 40.8686 15.8863 40.8608C15.7783 40.8454 15.6779 40.7914 15.5853 40.6988C15.4927 40.6062 15.4194 40.502 15.3654 40.3862C15.3654 40.3708 15.3615 40.3592 15.3538 40.3515C15.3538 40.3438 15.35 40.3399 15.3423 40.3399C15.3423 40.3322 15.3423 40.3284 15.3423 40.3284C15.3345 40.3284 15.3307 40.3245 15.3307 40.3168C15.1995 40.2936 15.0644 40.2936 14.9255 40.3168C14.8638 40.3245 14.7828 40.3476 14.6824 40.3862C14.667 40.3939 14.6361 40.4055 14.5898 40.421C14.5898 40.421 14.5783 40.4287 14.5551 40.4441H14.5435C14.4895 40.475 14.4316 40.5058 14.3699 40.5367C14.0766 40.7065 13.7911 40.9071 13.5133 41.1387C12.7956 41.7792 12.3982 42.439 12.321 43.1181C12.321 43.1567 12.3171 43.1953 12.3094 43.2339C12.3094 43.2416 12.3094 43.2532 12.3094 43.2686C12.3094 43.284 12.3094 43.2917 12.3094 43.2917C12.3171 43.338 12.3287 43.3921 12.3441 43.4538C12.3519 43.4538 12.3557 43.4538 12.3557 43.4538C12.3634 43.4538 12.3711 43.4577 12.3789 43.4654C12.4329 43.4654 12.4599 43.4654 12.4599 43.4654C12.5216 43.4654 12.5949 43.4538 12.6798 43.4307C12.8187 43.3921 12.9654 43.3188 13.1197 43.2107C13.3975 43.0255 13.6522 42.7978 13.8837 42.5277C14.1152 42.2576 14.3583 41.9258 14.613 41.5322C14.6361 41.5091 14.6709 41.4628 14.7172 41.3933C14.7635 41.3161 14.8021 41.2583 14.8329 41.2197C14.9024 41.1194 14.9448 41.0615 14.9603 41.046C15.076 40.9534 15.2304 40.992 15.4233 41.1618C15.5699 41.293 15.6548 41.4473 15.6779 41.6248C15.7011 41.7329 15.6702 41.976 15.5853 42.3541C15.4927 42.74 15.3847 43.1567 15.2612 43.6043C16.1564 42.9869 17.0169 42.4776 17.8426 42.0763C18.6761 41.6673 19.224 41.5438 19.4864 41.7059ZM15.3423 40.3284C15.35 40.3284 15.3538 40.3322 15.3538 40.3399C15.3461 40.3322 15.3423 40.3284 15.3423 40.3284ZM15.5969 41.8332L15.6085 41.8216C15.6008 41.8293 15.5969 41.8332 15.5969 41.8332ZM12.5872 48.2693C12.8187 47.8217 13.0541 47.2892 13.2933 46.6719C13.2933 46.6641 13.2933 46.6526 13.2933 46.6371C13.3011 46.6294 13.3088 46.6178 13.3165 46.6024C13.3242 46.5947 13.3281 46.5831 13.3281 46.5677C12.4869 47.4474 11.9274 48.3002 11.6496 49.1259C11.6264 49.1954 11.6033 49.2648 11.5801 49.3343C11.5801 49.3574 11.5763 49.3729 11.5686 49.3806C11.5608 49.4192 11.557 49.4539 11.557 49.4848C11.5338 49.5851 11.5184 49.6854 11.5107 49.7857C11.5261 49.7703 11.5415 49.7587 11.557 49.751C11.6573 49.6738 11.7731 49.5581 11.9043 49.4037C11.9043 49.4037 11.912 49.396 11.9274 49.3806C11.9506 49.3574 11.966 49.3381 11.9737 49.3227C11.9969 49.2918 12.02 49.2571 12.0432 49.2185C12.1049 49.1259 12.1666 49.0295 12.2284 48.9291C12.3441 48.7362 12.4638 48.5163 12.5872 48.2693Z" fill="#FAFAFA"/>
<path d="M23.5403 41.6711C23.6252 41.594 23.6792 41.6403 23.7024 41.81C23.7178 41.949 23.7024 42.0801 23.6561 42.2036C23.6252 42.2808 23.5365 42.412 23.3898 42.5972C23.2432 42.7824 23.0387 43.0023 22.7763 43.257C22.5217 43.5117 22.2438 43.7548 21.9429 43.9863C21.6496 44.2101 21.3178 44.3992 20.9474 44.5535C20.5769 44.7156 20.2219 44.7966 19.8824 44.7966C19.4811 44.7966 19.1415 44.5805 18.8637 44.1483C18.6939 43.8782 18.6168 43.5387 18.6322 43.1297C18.6631 42.5972 18.8676 41.8949 19.2457 41.0229C19.4232 40.6062 19.6046 40.2319 19.7898 39.9001C19.8824 39.7303 20.0406 39.7418 20.2644 39.9348C20.4805 40.12 20.5769 40.3013 20.5538 40.4788C20.5461 40.5097 20.5345 40.5406 20.519 40.5714C20.3184 40.9341 20.1216 41.3432 19.9287 41.7985C19.7821 42.1535 19.6624 42.4814 19.5698 42.7824C19.5621 42.821 19.5505 42.8712 19.5351 42.9329C19.5351 42.9329 19.5313 42.9406 19.5235 42.956C19.5235 42.9715 19.5197 42.9831 19.512 42.9908C19.4965 43.0834 19.4811 43.1606 19.4657 43.2223C19.4348 43.3921 19.4194 43.5426 19.4194 43.6737C19.4116 43.6892 19.4116 43.7239 19.4194 43.7779C19.4194 43.7779 19.4194 43.7856 19.4194 43.8011V43.8474L19.4309 43.9168C19.4541 43.9246 19.4695 43.9284 19.4772 43.9284C19.6084 43.9438 19.7666 43.9361 19.9518 43.9053C20.6078 43.7818 21.3988 43.3766 22.3249 42.6898C22.7956 42.3348 23.2008 41.9953 23.5403 41.6711ZM20.4612 39.2402C20.3763 39.1631 20.3068 39.0666 20.2528 38.9508C20.1988 38.8274 20.1911 38.7193 20.2297 38.6267C20.2837 38.4955 20.3686 38.2987 20.4843 38.0364C20.5152 37.9746 20.5654 37.9437 20.6348 37.9437C20.7043 37.936 20.766 37.9515 20.82 37.9901C20.8818 38.0209 20.9396 38.0556 20.9937 38.0942C21.0785 38.1714 21.148 38.2679 21.202 38.3836C21.256 38.4994 21.2638 38.6074 21.2252 38.7077C21.1634 38.8389 21.0785 39.0319 20.9705 39.2865C20.9396 39.356 20.8895 39.3907 20.82 39.3907C20.7506 39.3907 20.685 39.3753 20.6232 39.3444C20.5692 39.3135 20.5152 39.2788 20.4612 39.2402Z" fill="#FAFAFA"/>
<path d="M28.2724 41.6133C28.3495 41.5052 28.419 41.5361 28.4807 41.7059C28.5116 41.7985 28.5232 41.8795 28.5154 41.949C28.4846 42.165 28.3572 42.4313 28.1334 42.7477C27.9096 43.0641 27.6203 43.3882 27.2653 43.72C26.9103 44.0519 26.4743 44.3721 25.9572 44.6808C25.4402 44.9972 24.9 45.2519 24.3366 45.4448C23.9276 45.576 23.4607 45.6339 22.9359 45.6185C22.6504 45.6107 22.4266 45.5799 22.2645 45.5259C22.0716 45.4487 21.9327 45.2982 21.8478 45.0744C21.8169 45.0127 21.8092 44.9355 21.8247 44.8429C21.8324 44.758 21.8748 44.7078 21.952 44.6924C21.9829 44.6847 22.0176 44.6808 22.0562 44.6808H22.0793C22.1025 44.6808 22.1411 44.6847 22.1951 44.6924C22.2414 44.7001 22.2761 44.704 22.2993 44.704C22.3919 44.7117 22.4845 44.7156 22.5771 44.7156C22.5848 44.7156 22.6388 44.7156 22.7391 44.7156C22.7391 44.7156 22.743 44.7156 22.7507 44.7156C22.7507 44.7156 22.7507 44.7117 22.7507 44.704C22.7584 44.704 22.77 44.704 22.7855 44.704C22.8086 44.704 22.824 44.704 22.8318 44.704C23.0787 44.6885 23.2909 44.65 23.4684 44.5882C23.4993 44.5805 23.5495 44.5612 23.6189 44.5303L23.6305 44.5188C23.6382 44.5188 23.6459 44.5149 23.6536 44.5072C23.6691 44.4995 23.6806 44.4918 23.6884 44.484C23.7655 44.4377 23.835 44.3799 23.8967 44.3104C23.9122 44.3027 23.9314 44.2718 23.9546 44.2178C23.9623 44.2101 23.9739 44.1908 23.9893 44.1599C23.9893 44.1522 23.9932 44.1406 24.0009 44.1252V44.102L24.0125 44.0673C24.0125 44.0364 24.0125 44.0094 24.0125 43.9863C24.0125 43.9863 24.0125 43.9709 24.0125 43.94C24.0125 43.9014 24.0125 43.8821 24.0125 43.8821C24.0125 43.8667 24.0048 43.8242 23.9893 43.7548C23.9893 43.7548 23.9893 43.7509 23.9893 43.7432V43.7316C23.9353 43.5927 23.9006 43.5001 23.8851 43.4538C23.7694 43.1606 23.6768 42.8827 23.6073 42.6203C23.5224 42.3194 23.4568 42.0609 23.4105 41.8448C23.3642 41.6287 23.3449 41.3702 23.3527 41.0692C23.3604 40.7682 23.4144 40.5058 23.5147 40.282C23.6459 40.0042 23.8581 39.8113 24.1514 39.7033C24.4446 39.5952 24.7263 39.6184 24.9964 39.7727C25.0967 39.8345 25.1816 39.9271 25.2511 40.0505C25.3283 40.1663 25.363 40.2782 25.3553 40.3862C25.3398 40.4866 25.2897 40.5444 25.2048 40.5599C25.1199 40.5753 25.0427 40.5599 24.9733 40.5136C24.9733 40.5136 24.9733 40.5174 24.9733 40.5251C24.981 40.5251 24.9887 40.5251 24.9964 40.5251C24.981 40.5174 24.9694 40.5136 24.9617 40.5136C24.9617 40.5136 24.9578 40.5136 24.9501 40.5136C24.9501 40.5136 24.9463 40.5136 24.9385 40.5136C24.9385 40.5136 24.9308 40.5136 24.9154 40.5136C24.9077 40.5136 24.9 40.5136 24.8922 40.5136C24.8305 40.5058 24.7533 40.5174 24.6607 40.5483C24.6607 40.556 24.6376 40.5676 24.5913 40.583H24.5797L24.5681 40.5946C24.5064 40.6332 24.4601 40.6679 24.4292 40.6988C24.4215 40.6988 24.4138 40.7026 24.4061 40.7104C24.3983 40.7181 24.3906 40.7296 24.3829 40.7451C24.3752 40.7528 24.3675 40.7605 24.3598 40.7682C24.3598 40.7682 24.3559 40.7721 24.3482 40.7798L24.3366 40.7914C24.298 40.8531 24.271 40.9071 24.2556 40.9534C24.2247 40.9997 24.2015 41.0576 24.1861 41.1271C24.1861 41.1271 24.1823 41.1502 24.1745 41.1965C24.1668 41.2351 24.1591 41.2737 24.1514 41.3123C24.1437 41.3895 24.1398 41.4744 24.1398 41.567C24.1398 41.6287 24.1398 41.6866 24.1398 41.7406C24.1552 41.9335 24.1861 42.1419 24.2324 42.3657C24.2787 42.5586 24.3636 42.8364 24.4871 43.1991C24.6106 43.5541 24.68 43.7548 24.6954 43.8011C24.7418 43.9631 24.7726 44.1213 24.7881 44.2757C25.0582 44.1676 25.3205 44.048 25.5752 43.9168C26.7791 43.284 27.6781 42.5162 28.2724 41.6133Z" fill="#FAFAFA"/>
<path d="M28.9466 45.5953C28.9466 45.5876 28.9428 45.5837 28.9351 45.5837L28.9466 45.5953ZM34.9429 36.9251C34.9583 37.0254 34.9313 37.1064 34.8618 37.1682C34.8001 37.2222 34.7229 37.2261 34.6303 37.1798C34.5146 37.1334 34.3872 37.0871 34.2483 37.0408C34.2406 37.0408 34.229 37.037 34.2136 37.0293C34.1982 37.0293 34.1866 37.0293 34.1789 37.0293C34.1403 37.0138 34.1094 37.0061 34.0863 37.0061C34.0168 36.9907 33.9474 36.9752 33.8779 36.9598C33.5847 36.9135 33.2605 36.8904 32.9055 36.8904C32.1801 36.8826 31.3775 36.956 30.4978 37.1103C29.7415 38.9856 29.2206 40.637 28.9351 42.0647C28.827 42.5972 28.7537 43.0872 28.7151 43.5348C28.6997 43.7741 28.692 43.9979 28.692 44.2062C28.692 44.2371 28.692 44.2988 28.692 44.3914C28.692 44.3992 28.692 44.4069 28.692 44.4146C28.692 44.4455 28.692 44.4648 28.692 44.4725C28.6997 44.5728 28.7113 44.6693 28.7267 44.7619C28.7344 44.8622 28.7499 44.9625 28.773 45.0628C28.7807 45.1091 28.7884 45.1516 28.7962 45.1902C28.7962 45.1979 28.7962 45.2056 28.7962 45.2133C28.8039 45.2288 28.8077 45.2365 28.8077 45.2365C28.854 45.3677 28.881 45.4525 28.8888 45.4911C28.8965 45.4989 28.9003 45.5066 28.9003 45.5143C28.9081 45.5297 28.9158 45.5413 28.9235 45.549C28.9312 45.5644 28.9351 45.576 28.9351 45.5837C28.9351 45.5837 28.9351 45.5876 28.9351 45.5953C28.9428 45.603 28.9466 45.6107 28.9466 45.6185C28.9466 45.6107 28.9466 45.603 28.9466 45.5953C28.9466 45.603 28.9505 45.6107 28.9582 45.6185C28.9659 45.6339 28.9891 45.6725 29.0277 45.7342C29.0277 45.7342 29.0277 45.7381 29.0277 45.7458C29.0354 45.7535 29.0585 45.7844 29.0971 45.8384H29.1087C29.1164 45.8538 29.1473 45.8847 29.2013 45.931C29.2862 45.9927 29.3556 46.0352 29.4097 46.0583C29.51 46.1124 29.5949 46.2011 29.6643 46.3246C29.7415 46.4481 29.7762 46.56 29.7685 46.6603C29.7531 46.7683 29.6952 46.8262 29.5949 46.8339C29.5023 46.8416 29.4174 46.8223 29.3402 46.776C28.9312 46.56 28.6071 46.232 28.3679 45.7921C28.1363 45.3599 27.9936 44.8853 27.9396 44.3683C27.8624 43.558 27.9434 42.5818 28.1826 41.4396C28.3833 40.4827 28.6843 39.4254 29.0855 38.2679C29.1859 37.9746 29.2978 37.6659 29.4212 37.3418C29.2901 37.3727 29.1666 37.4035 29.0508 37.4344C27.7929 37.7431 26.8283 38.0556 26.1569 38.3721C26.0643 38.4184 25.964 38.3952 25.8559 38.3026C25.7402 38.21 25.6553 38.1135 25.6013 38.0132C25.4623 37.7663 25.4816 37.6003 25.6591 37.5154C25.9987 37.3534 26.4656 37.1798 27.0598 36.9945C28.0013 36.6936 28.9235 36.4582 29.8264 36.2884C30.0811 35.6788 30.3627 35.0267 30.6714 34.3321C30.7486 34.1623 30.8914 34.1662 31.0997 34.3437C31.3158 34.5135 31.4238 34.6948 31.4238 34.8878C31.4238 34.9263 31.4161 34.9611 31.4007 34.9919C31.2078 35.4318 31.0418 35.81 30.9029 36.1264C31.3737 36.0723 31.7827 36.0376 32.13 36.0222C32.4772 35.999 32.8708 36.0145 33.3107 36.0685C33.7583 36.1148 34.1519 36.2151 34.4914 36.3694C34.6072 36.4158 34.7075 36.4929 34.7924 36.601C34.8773 36.7013 34.9274 36.8093 34.9429 36.9251Z" fill="#FAFAFA"/>
<path d="M35.5908 41.6711C35.6757 41.594 35.7298 41.6403 35.7529 41.81C35.7683 41.949 35.7529 42.0801 35.7066 42.2036C35.6757 42.2808 35.587 42.412 35.4404 42.5972C35.2937 42.7824 35.0892 43.0023 34.8268 43.257C34.5722 43.5117 34.2944 43.7548 33.9934 43.9863C33.7001 44.2101 33.3683 44.3992 32.9979 44.5535C32.6275 44.7156 32.2725 44.7966 31.9329 44.7966C31.5316 44.7966 31.1921 44.5805 30.9142 44.1483C30.7445 43.8782 30.6673 43.5387 30.6827 43.1297C30.7136 42.5972 30.9181 41.8949 31.2962 41.0229C31.4737 40.6062 31.6551 40.2319 31.8403 39.9001C31.9329 39.7303 32.0911 39.7418 32.3149 39.9348C32.531 40.12 32.6275 40.3013 32.6043 40.4788C32.5966 40.5097 32.585 40.5406 32.5696 40.5714C32.3689 40.9341 32.1721 41.3432 31.9792 41.7985C31.8326 42.1535 31.713 42.4814 31.6204 42.7824C31.6126 42.821 31.6011 42.8712 31.5856 42.9329C31.5856 42.9329 31.5818 42.9406 31.5741 42.956C31.5741 42.9715 31.5702 42.9831 31.5625 42.9908C31.5471 43.0834 31.5316 43.1606 31.5162 43.2223C31.4853 43.3921 31.4699 43.5426 31.4699 43.6737C31.4622 43.6892 31.4622 43.7239 31.4699 43.7779C31.4699 43.7779 31.4699 43.7856 31.4699 43.8011V43.8474L31.4815 43.9168C31.5046 43.9246 31.52 43.9284 31.5278 43.9284C31.6589 43.9438 31.8172 43.9361 32.0024 43.9053C32.6583 43.7818 33.4493 43.3766 34.3754 42.6898C34.8461 42.3348 35.2513 41.9953 35.5908 41.6711ZM32.5117 39.2402C32.4268 39.1631 32.3574 39.0666 32.3033 38.9508C32.2493 38.8274 32.2416 38.7193 32.2802 38.6267C32.3342 38.4955 32.4191 38.2987 32.5348 38.0364C32.5657 37.9746 32.6159 37.9437 32.6853 37.9437C32.7548 37.936 32.8165 37.9515 32.8705 37.9901C32.9323 38.0209 32.9902 38.0556 33.0442 38.0942C33.1291 38.1714 33.1985 38.2679 33.2525 38.3836C33.3066 38.4994 33.3143 38.6074 33.2757 38.7077C33.214 38.8389 33.1291 39.0319 33.021 39.2865C32.9902 39.356 32.94 39.3907 32.8705 39.3907C32.8011 39.3907 32.7355 39.3753 32.6738 39.3444C32.6197 39.3135 32.5657 39.2788 32.5117 39.2402Z" fill="#FAFAFA"/>
<path d="M40.6586 41.7059C40.728 41.6287 40.7782 41.6596 40.8091 41.7985C40.8322 41.9528 40.8013 42.1226 40.7165 42.3078C40.4541 42.8634 39.937 43.4191 39.1653 43.9747C38.3936 44.5226 37.6759 44.7966 37.0122 44.7966C36.472 44.7966 36.0167 44.6114 35.6463 44.241C35.2836 43.8628 35.1331 43.4114 35.1948 42.8866C35.2411 42.4467 35.4109 41.9605 35.7042 41.428C35.9743 40.9341 36.2791 40.5213 36.6186 40.1894C36.9659 39.8499 37.2862 39.6917 37.5794 39.7148C37.9036 39.738 38.1582 39.9193 38.3434 40.2589C38.4823 40.4981 38.5132 40.7875 38.436 41.1271C38.3897 41.3354 38.2547 41.3702 38.0309 41.2313C37.8225 41.1001 37.699 40.938 37.6605 40.7451C37.6527 40.7142 37.6489 40.6872 37.6489 40.664C37.6334 40.6718 37.6219 40.6756 37.6142 40.6756C37.3209 40.8686 37.0315 41.1772 36.746 41.6017C36.4759 41.9875 36.2675 42.3811 36.1209 42.7824C36.0437 42.9908 35.9935 43.1798 35.9704 43.3496C35.955 43.4731 35.955 43.5734 35.9704 43.6506C35.9704 43.6583 35.9704 43.6737 35.9704 43.6969C35.9781 43.72 35.982 43.7355 35.982 43.7432C35.9897 43.7432 35.9936 43.7509 35.9936 43.7663C36.0013 43.7741 36.0051 43.7818 36.0051 43.7895C36.0051 43.7895 36.0051 43.7856 36.0051 43.7779V43.7895L36.0167 43.8011C36.0167 43.8011 36.0167 43.8049 36.0167 43.8127C36.0244 43.8127 36.0321 43.8165 36.0399 43.8242L36.0167 43.7895C36.0167 43.7972 36.0167 43.8011 36.0167 43.8011C36.0399 43.8088 36.063 43.8204 36.0862 43.8358C36.0939 43.8358 36.1055 43.8397 36.1209 43.8474C36.1518 43.8628 36.1672 43.8705 36.1672 43.8705C36.2135 43.886 36.2405 43.8937 36.2482 43.8937C36.31 43.9091 36.3717 43.9168 36.4334 43.9168C36.7653 43.9554 37.155 43.9014 37.6026 43.7548C38.274 43.5387 38.984 43.1297 39.7325 42.5277C40.1107 42.2345 40.4193 41.9605 40.6586 41.7059Z" fill="#FAFAFA"/>
<path d="M48.086 39.1708C48.0938 39.1631 48.1015 39.1592 48.1092 39.1592C48.0938 39.1592 48.086 39.1631 48.086 39.1708ZM51.1189 38.7077C51.1961 38.5457 51.3427 38.5495 51.5588 38.7193C51.7748 38.8891 51.879 39.0705 51.8713 39.2634L51.8482 39.3791C51.717 39.6724 51.5163 39.8962 51.2462 40.0505C50.9761 40.2049 50.6443 40.3361 50.2507 40.4441C50.4205 40.8686 50.4899 41.3123 50.4591 41.7753C50.4359 42.2306 50.3202 42.6628 50.1118 43.0718C49.8803 43.5117 49.5639 43.8667 49.1626 44.1368C48.7613 44.3992 48.3176 44.5342 47.8314 44.5419C47.2989 44.5496 46.8127 44.3721 46.3728 44.0094C45.9407 43.6467 45.6513 43.1991 45.5047 42.6667C45.3503 42.1187 45.358 41.5477 45.5278 40.9534C45.7053 40.3515 45.9831 39.8036 46.3613 39.3097C46.6468 38.947 46.9516 38.6653 47.2757 38.4647C47.0442 38.1174 46.8783 37.7315 46.778 37.3071C46.6777 36.9289 46.6661 36.5238 46.7433 36.0916C46.8204 35.6518 46.9748 35.2698 47.2063 34.9456C47.6384 34.3514 48.279 34.0504 49.1279 34.0427C49.4211 34.0427 49.6989 34.0967 49.9613 34.2048C50.2237 34.3051 50.4552 34.4517 50.6559 34.6447C50.8565 34.8376 51.0186 35.0691 51.142 35.3392C51.4893 36.0646 51.5086 36.9097 51.1999 37.8743C51.1768 37.9437 51.1266 37.9785 51.0494 37.9785C50.98 37.9785 50.9144 37.963 50.8526 37.9322C50.7909 37.9013 50.7407 37.8666 50.7022 37.828C50.4784 37.6273 50.3973 37.4228 50.4591 37.2145C50.5903 36.7978 50.6481 36.4119 50.6327 36.0569C50.6327 35.972 50.625 35.8833 50.6096 35.7907C50.6018 35.7752 50.5903 35.7173 50.5748 35.617C50.5748 35.617 50.5748 35.6132 50.5748 35.6054C50.5517 35.536 50.5247 35.4627 50.4938 35.3855C50.4938 35.3778 50.4822 35.3546 50.4591 35.3161C50.4514 35.3083 50.4321 35.2736 50.4012 35.2119C50.4089 35.235 50.4128 35.2466 50.4128 35.2466L50.3433 35.1656L50.3665 35.1771C50.3665 35.1771 50.3549 35.1694 50.3317 35.154C50.3163 35.1386 50.3047 35.1231 50.297 35.1077C50.297 35.1077 50.2932 35.1077 50.2854 35.1077C50.2854 35.1 50.2816 35.0961 50.2739 35.0961C50.2661 35.0884 50.2584 35.0845 50.2507 35.0845C50.243 35.0768 50.2314 35.0691 50.216 35.0614C50.2083 35.0537 50.2005 35.0498 50.1928 35.0498C50.1851 35.0421 50.1697 35.0344 50.1465 35.0267C50.0848 34.9958 50.023 34.9726 49.9613 34.9572C49.9613 34.9495 49.9382 34.9418 49.8919 34.9341C49.8456 34.9263 49.7993 34.9225 49.7529 34.9225C49.6912 34.9148 49.614 34.9109 49.5214 34.9109C49.3748 34.9032 49.2282 34.9148 49.0816 34.9456C48.4873 35.046 48.0513 35.3585 47.7735 35.8833C47.6192 36.1842 47.5227 36.5045 47.4841 36.8441C47.4687 37.037 47.4725 37.2183 47.4957 37.3881C47.5188 37.5193 47.5497 37.6466 47.5883 37.7701C47.6114 37.8164 47.6307 37.8589 47.6462 37.8974C47.6462 37.9052 47.65 37.9206 47.6577 37.9437C47.6732 37.9592 47.6809 37.9669 47.6809 37.9669C47.704 38.0132 47.7233 38.0518 47.7388 38.0827C47.7465 38.1058 47.7542 38.129 47.7619 38.1521C47.7774 38.1675 47.7928 38.1868 47.8082 38.21C47.8237 38.2254 47.8352 38.2409 47.843 38.2563C47.843 38.2563 47.843 38.2602 47.843 38.2679C47.8584 38.2756 47.8661 38.2794 47.8661 38.2794C47.8738 38.2949 47.8815 38.3103 47.8893 38.3257C47.9047 38.3412 47.9163 38.3566 47.924 38.3721C47.9394 38.3798 47.9548 38.3952 47.9703 38.4184C47.9857 38.4338 47.9973 38.4454 48.005 38.4531C48.0667 38.5148 48.1208 38.5881 48.1671 38.673C48.2211 38.7579 48.2481 38.8505 48.2481 38.9508C48.2481 39.0434 48.2018 39.109 48.1092 39.1476V39.1592C48.086 39.1669 48.0745 39.1708 48.0745 39.1708H48.086C48.0706 39.1708 48.059 39.1746 48.0513 39.1824C47.9587 39.2364 47.8622 39.2981 47.7619 39.3676C47.4455 39.5914 47.1754 39.8576 46.9516 40.1663C46.6507 40.5907 46.4307 41.0615 46.2918 41.5785C46.2146 41.8409 46.176 42.1072 46.176 42.3773C46.176 42.4776 46.1876 42.5895 46.2108 42.713C46.2185 42.7593 46.2301 42.8056 46.2455 42.8519C46.2455 42.8596 46.2455 42.8673 46.2455 42.875C46.2455 42.875 46.2494 42.8866 46.2571 42.9097C46.2648 42.9252 46.2687 42.9368 46.2687 42.9445C46.2995 43.0139 46.315 43.0525 46.315 43.0602C46.3381 43.1065 46.3574 43.1413 46.3728 43.1644C46.3805 43.1721 46.3883 43.1876 46.396 43.2107C46.4346 43.2493 46.4654 43.284 46.4886 43.3149C46.4886 43.3149 46.4924 43.3226 46.5002 43.338C46.5156 43.3458 46.5272 43.3535 46.5349 43.3612C46.5812 43.4075 46.6082 43.4307 46.6159 43.4307C46.6159 43.4307 46.6043 43.4191 46.5812 43.3959C46.5889 43.4036 46.6043 43.4152 46.6275 43.4307C46.6506 43.4461 46.6699 43.4615 46.6854 43.477C46.6854 43.477 46.697 43.4847 46.7201 43.5001C46.751 43.5155 46.7703 43.5233 46.778 43.5233C46.778 43.5233 46.7818 43.5271 46.7896 43.5348C46.805 43.5425 46.8166 43.5464 46.8243 43.5464C46.8474 43.5541 46.8706 43.5618 46.8937 43.5696C46.9323 43.585 46.9748 43.6004 47.0211 43.6159C47.0288 43.6236 47.0365 43.6274 47.0442 43.6274C47.0674 43.6352 47.0867 43.639 47.1021 43.639C47.1484 43.6467 47.1908 43.6544 47.2294 43.6622C47.4146 43.6853 47.6037 43.6776 47.7966 43.639C48.059 43.585 48.3021 43.4885 48.5259 43.3496C48.7497 43.203 48.9388 43.0294 49.0931 42.8287C49.2552 42.6203 49.3864 42.3927 49.4867 42.1457C49.6256 41.8062 49.6951 41.4551 49.6951 41.0924C49.6951 41.0306 49.6951 40.9997 49.6951 40.9997C49.6874 40.9612 49.6835 40.9264 49.6835 40.8956C49.6758 40.8107 49.6603 40.7258 49.6372 40.6409C49.6372 40.6332 49.6372 40.6216 49.6372 40.6062C49.6295 40.6062 49.6218 40.61 49.614 40.6177C49.6063 40.6177 49.6025 40.6177 49.6025 40.6177C49.4095 40.6718 49.2706 40.7258 49.1857 40.7798C48.8925 40.9496 48.7034 41.185 48.6185 41.4859C48.6031 41.5554 48.5568 41.5901 48.4796 41.5901C48.4102 41.5901 48.3407 41.5747 48.2713 41.5438C48.2095 41.5052 48.1594 41.4705 48.1208 41.4396C47.9047 41.2467 47.8275 41.0422 47.8893 40.8261C47.9356 40.6486 48.0089 40.4943 48.1092 40.3631C48.2172 40.2242 48.3484 40.1123 48.5028 40.0274C48.6571 39.9348 48.8037 39.8653 48.9426 39.819C49.0893 39.765 49.259 39.711 49.452 39.657C49.9536 39.5258 50.2854 39.4254 50.4475 39.356C50.7639 39.2094 50.9877 38.9933 51.1189 38.7077Z" fill="#FAFAFA"/>
<path d="M64.4794 41.7174C64.5565 41.6094 64.6183 41.6171 64.6646 41.7406C64.7032 41.8409 64.7032 41.9682 64.6646 42.1226C64.6491 42.1843 64.599 42.2962 64.5141 42.4583C64.4292 42.6126 64.3019 42.8094 64.1321 43.0487C63.97 43.2879 63.7887 43.5233 63.588 43.7548C63.3874 43.9786 63.1443 44.1947 62.8588 44.403C62.581 44.6114 62.3031 44.758 62.0253 44.8429C61.678 44.9586 61.3501 44.9586 61.0414 44.8429C60.7404 44.7349 60.4973 44.5188 60.3121 44.1946C60.0883 43.8165 59.9996 43.2647 60.0459 42.5393C60.0536 42.385 60.0652 42.2191 60.0806 42.0416C60.1037 41.8641 60.1269 41.6789 60.15 41.4859C60.1732 41.2853 60.1925 41.1194 60.2079 40.9882C60.2079 40.9882 60.2041 40.992 60.1963 40.9997C60.1886 40.9997 60.1848 40.9997 60.1848 40.9997C60.015 41.1232 59.8182 41.2814 59.5944 41.4744C59.224 41.8062 58.7764 42.2461 58.2516 42.794C57.6574 43.4191 57.0979 44.0326 56.5731 44.6345C56.5346 44.6654 56.496 44.6808 56.4574 44.6808C56.4111 44.6885 56.3609 44.677 56.3069 44.6461C56.2529 44.6152 56.2066 44.5844 56.168 44.5535C56.1294 44.5303 56.0985 44.5033 56.0754 44.4725C55.8747 44.2641 55.8091 44.075 55.8786 43.9053C55.9944 43.6429 56.1371 43.2995 56.3069 42.875C57.04 41.0924 57.6574 39.5181 58.159 38.1521C58.514 37.1952 58.788 36.4003 58.9809 35.7675C59.0349 35.59 59.0812 35.428 59.1198 35.2813C59.1352 35.2427 59.1468 35.2042 59.1545 35.1656C59.1545 35.1656 59.1584 35.1501 59.1661 35.1193L59.1777 35.0961C59.1931 35.0267 59.2047 34.9726 59.2124 34.9341C59.2741 34.664 59.305 34.4595 59.305 34.3205C59.305 34.2125 59.359 34.1546 59.4671 34.1469C59.5751 34.1315 59.6639 34.1508 59.7333 34.2048C59.9725 34.3591 60.0922 34.5636 60.0922 34.8183C60.0922 34.9726 60.0497 35.208 59.9648 35.5244C59.8877 35.8563 59.7835 36.2305 59.6523 36.6473C59.2664 37.8511 58.6452 39.5335 57.7886 41.6943C57.7809 41.7174 57.7654 41.756 57.7423 41.81C57.7269 41.8564 57.7114 41.8911 57.696 41.9142C57.7732 41.8371 57.8542 41.756 57.9391 41.6711C58.4638 41.1387 58.8999 40.7296 59.2471 40.4441C59.2549 40.4364 59.2857 40.4094 59.3397 40.3631C59.3938 40.3168 59.4285 40.2898 59.4439 40.282C59.4594 40.2743 59.4941 40.2512 59.5481 40.2126C59.6021 40.1663 59.6407 40.1354 59.6639 40.12C59.687 40.1046 59.7217 40.0814 59.768 40.0505C59.8221 40.0197 59.8645 40.0004 59.8954 39.9927C59.9262 39.9772 59.9648 39.9618 60.0111 39.9464C60.0574 39.9309 60.0999 39.9232 60.1385 39.9232C60.1771 39.9155 60.2195 39.9155 60.2658 39.9232C60.4124 39.9386 60.5475 40.0119 60.671 40.1431C60.7944 40.2666 60.8832 40.4055 60.9372 40.5599C60.9912 40.7296 61.0144 40.9534 61.0066 41.2313C60.9912 41.4319 60.9603 41.7097 60.914 42.0647C60.8755 42.4197 60.8523 42.6628 60.8446 42.794C60.8292 42.9483 60.8176 43.0911 60.8099 43.2223C60.8099 43.2917 60.8099 43.3573 60.8099 43.4191C60.8099 43.4345 60.8099 43.4538 60.8099 43.477C60.8099 43.5001 60.8099 43.5155 60.8099 43.5233C60.8099 43.531 60.8099 43.5348 60.8099 43.5348C60.8253 43.666 60.8446 43.7895 60.8677 43.9053C60.8677 43.9053 60.8677 43.9168 60.8677 43.94C60.8755 43.9631 60.8793 43.9747 60.8793 43.9747C60.887 43.9901 60.8947 44.0056 60.9025 44.021C60.9102 44.021 60.9179 44.0249 60.9256 44.0326C60.9488 44.0403 60.9642 44.0442 60.9719 44.0442C61.2189 44.075 61.5353 44.0172 61.9211 43.8705C62.4768 43.6467 63.0787 43.2107 63.727 42.5625C63.9276 42.3618 64.1205 42.1496 64.3057 41.9258C64.352 41.8718 64.4022 41.8062 64.4562 41.729C64.4639 41.729 64.4678 41.729 64.4678 41.729C64.4678 41.7213 64.4717 41.7174 64.4794 41.7174ZM60.2311 40.5367C60.2311 40.5367 60.2311 40.5406 60.2311 40.5483C60.2311 40.5483 60.2311 40.5444 60.2311 40.5367Z" fill="#FAFAFA"/>
<path d="M68.0468 43.94C68.0468 43.94 68.0391 43.94 68.0236 43.94C68.0236 43.9323 68.0236 43.9246 68.0236 43.9168L68.0352 43.8937C68.0352 43.9014 68.0391 43.9168 68.0468 43.94ZM72.0173 41.7985C72.133 41.621 72.2102 41.6094 72.2488 41.7637C72.2796 41.9104 72.2642 42.0763 72.2025 42.2615C72.1639 42.3541 72.0983 42.4776 72.0057 42.6319C71.9208 42.7863 71.805 42.9638 71.6584 43.1644C71.5195 43.3573 71.3497 43.5541 71.1491 43.7548C70.9561 43.9477 70.7478 44.1291 70.524 44.2988C70.3079 44.4686 70.0648 44.6037 69.7947 44.704C69.5323 44.812 69.2699 44.866 69.0076 44.866C68.4674 44.866 68.0661 44.7541 67.8037 44.5303C67.5027 44.2834 67.3098 43.9477 67.2249 43.5233C67.2018 43.4152 67.1863 43.2956 67.1786 43.1644C66.7927 43.7046 66.4069 44.1136 66.021 44.3914C65.6815 44.6384 65.3574 44.7503 65.0487 44.7271C64.74 44.7117 64.4737 44.5612 64.2499 44.2757C64.0184 43.9901 63.8911 43.6815 63.8679 43.3496C63.8216 42.8403 64.0184 42.2422 64.4583 41.5554C64.7979 41.0152 65.176 40.5753 65.5927 40.2357C66.0172 39.8885 66.3914 39.738 66.7156 39.7843C67.1169 39.846 67.4526 40.0583 67.7227 40.421C67.7535 40.3669 67.7805 40.3206 67.8037 40.282C67.904 40.1586 68.0159 40.12 68.1394 40.1663C68.2629 40.2049 68.3748 40.2975 68.4751 40.4441C68.5754 40.5907 68.6179 40.7219 68.6024 40.8377C68.5947 40.8917 68.5445 41.0538 68.4519 41.3239C68.3439 41.6403 68.259 41.9027 68.1973 42.111C68.1741 42.1805 68.151 42.2576 68.1278 42.3425C68.1201 42.3657 68.1162 42.385 68.1162 42.4004C68.1085 42.4467 68.1008 42.4853 68.0931 42.5162C68.0545 42.6859 68.0236 42.8441 68.0005 42.9908C67.9773 43.1528 67.9619 43.3072 67.9542 43.4538C67.9542 43.4692 67.9542 43.5078 67.9542 43.5696V43.5811C67.9542 43.5889 67.9542 43.5927 67.9542 43.5927C67.9619 43.6081 67.9657 43.6313 67.9657 43.6622C67.9657 43.6853 67.9657 43.7085 67.9657 43.7316C67.9735 43.7548 67.9812 43.7779 67.9889 43.8011C67.9889 43.8011 67.9928 43.8165 68.0005 43.8474C68.0005 43.8628 68.0005 43.8705 68.0005 43.8705C68.0082 43.8937 68.0121 43.9091 68.0121 43.9168C68.0121 43.9168 68.0159 43.9168 68.0236 43.9168C68.0236 43.9246 68.0236 43.9284 68.0236 43.9284C68.0236 43.9361 68.0236 43.94 68.0236 43.94H68.0352C68.0275 43.94 68.0236 43.94 68.0236 43.94H68.0352C68.0352 43.94 68.0352 43.9438 68.0352 43.9516C68.0429 43.9516 68.0429 43.9554 68.0352 43.9631H68.0468C68.0468 43.9554 68.0468 43.9516 68.0468 43.9516C68.0699 43.9593 68.0892 43.967 68.1047 43.9747C68.1047 43.9747 68.1085 43.9747 68.1162 43.9747C68.124 43.9747 68.1278 43.9747 68.1278 43.9747C68.2127 43.9901 68.286 44.0017 68.3477 44.0094C68.5407 44.0172 68.7645 43.994 69.0191 43.94C69.7986 43.7856 70.5356 43.3766 71.2301 42.713C71.4462 42.5123 71.6546 42.2885 71.8552 42.0416C71.8552 42.0338 71.8552 42.03 71.8552 42.03C71.8629 42.0223 71.8706 42.0146 71.8783 42.0068C71.8938 41.9914 71.9015 41.9798 71.9015 41.9721C71.9247 41.9412 71.9478 41.9104 71.971 41.8795C71.9941 41.8486 72.0095 41.8216 72.0173 41.7985ZM68.5561 40.9187L68.5445 40.9419H68.533C68.533 40.9496 68.533 40.9573 68.533 40.965C68.5561 40.9496 68.5638 40.9341 68.5561 40.9187ZM67.2249 40.7335C67.2249 40.7412 67.2288 40.7489 67.2365 40.7567C67.2365 40.7489 67.2365 40.7451 67.2365 40.7451C67.2288 40.7374 67.2249 40.7335 67.2249 40.7335ZM64.6319 43.8474C64.6319 43.8474 64.6358 43.8474 64.6435 43.8474H64.6319ZM66.3567 42.5972C66.6577 42.1959 66.978 41.7059 67.3175 41.1271C67.2635 41.0268 67.2365 40.9264 67.2365 40.8261C67.2442 40.7952 67.2442 40.7721 67.2365 40.7567C67.2288 40.7567 67.2249 40.7528 67.2249 40.7451C67.2249 40.7374 67.2249 40.7296 67.2249 40.7219C67.194 40.7065 67.1632 40.6911 67.1323 40.6756C67.086 40.6602 67.0397 40.6486 66.9934 40.6409C66.9857 40.6409 66.9741 40.6409 66.9587 40.6409H66.9355C66.8738 40.6486 66.8082 40.6679 66.7387 40.6988C66.6847 40.7142 66.6191 40.7489 66.5419 40.803C66.4648 40.8493 66.3876 40.9033 66.3104 40.965C65.94 41.2506 65.6043 41.6094 65.3033 42.0416C65.1104 42.3194 64.9522 42.5856 64.8287 42.8403C64.713 43.0872 64.6474 43.3342 64.6319 43.5811C64.6319 43.6352 64.6358 43.6892 64.6435 43.7432C64.6512 43.7818 64.6551 43.8127 64.6551 43.8358L64.6667 43.859C64.6744 43.859 64.6898 43.8628 64.713 43.8705C64.7438 43.8705 64.7631 43.8705 64.7708 43.8705C64.7786 43.8705 64.7824 43.8705 64.7824 43.8705C64.7979 43.8628 64.8133 43.859 64.8287 43.859C64.8519 43.8512 64.8712 43.8474 64.8866 43.8474C64.9406 43.8319 65.0062 43.8088 65.0834 43.7779C65.0911 43.7779 65.1065 43.7741 65.1297 43.7663C65.1297 43.7663 65.1336 43.7625 65.1413 43.7548C65.1721 43.7393 65.1992 43.7239 65.2223 43.7085C65.3458 43.6313 65.477 43.5348 65.6159 43.4191C65.8628 43.203 66.1098 42.929 66.3567 42.5972ZM68.0236 43.9516C68.0236 43.9593 68.0313 43.967 68.0468 43.9747V43.9631C68.0391 43.9631 68.0352 43.9593 68.0352 43.9516C68.0275 43.9516 68.0236 43.9516 68.0236 43.9516Z" fill="#FAFAFA"/>
<path d="M79.6849 41.6943C79.7621 41.594 79.8316 41.6094 79.8933 41.7406C79.9396 41.8486 79.9434 41.9644 79.9049 42.0879C79.8894 42.1496 79.8354 42.2731 79.7428 42.4583C79.6502 42.6358 79.492 42.8827 79.2682 43.1991C79.0521 43.5078 78.809 43.7972 78.5389 44.0673C78.2765 44.3374 77.9408 44.5651 77.5318 44.7503C77.1305 44.9432 76.7177 45.032 76.2932 45.0165C76.0231 45.0011 75.7762 44.9085 75.5524 44.7387C75.3363 44.5766 75.1665 44.3799 75.0431 44.1483C74.9196 43.9091 74.8424 43.6544 74.8115 43.3843C74.8115 43.3843 74.8077 43.3805 74.7999 43.3728C74.7999 43.3651 74.7999 43.3573 74.7999 43.3496C74.4913 43.859 74.1672 44.2641 73.8276 44.5651C73.5112 44.8506 73.2064 45.0088 72.9131 45.0397C72.6739 45.0551 72.4539 45.005 72.2533 44.8892C72.0526 44.7812 71.8906 44.623 71.7671 44.4146C71.6822 44.2757 71.6243 44.1213 71.5935 43.9516C71.5549 43.7741 71.5395 43.612 71.5472 43.4654C71.5472 43.311 71.5703 43.1335 71.6166 42.9329C71.6552 42.7245 71.6899 42.5625 71.7208 42.4467C71.7517 42.3232 71.8018 42.1612 71.8713 41.9605C71.9562 41.6904 72.0912 41.3161 72.2764 40.8377C72.4694 40.3592 72.589 40.0544 72.6353 39.9232C72.6507 39.8769 72.6739 39.846 72.7048 39.8306C72.7433 39.8152 72.7819 39.8113 72.8205 39.819C72.8591 39.8267 72.8977 39.8383 72.9363 39.8537C72.9826 39.8692 73.0211 39.8885 73.052 39.9116C73.0829 39.9348 73.1099 39.9541 73.133 39.9695C73.3646 40.1779 73.4456 40.3824 73.3761 40.583C73.3376 40.6756 73.2102 40.992 72.9941 41.5322C72.7858 42.0647 72.6392 42.4776 72.5543 42.7708C72.5002 42.9715 72.4539 43.1528 72.4154 43.3149C72.369 43.5233 72.342 43.7085 72.3343 43.8705C72.3343 43.9168 72.3343 43.9631 72.3343 44.0094C72.3343 44.0172 72.3343 44.0403 72.3343 44.0789C72.3343 44.102 72.3382 44.1329 72.3459 44.1715C72.3536 44.1715 72.369 44.1715 72.3922 44.1715C72.4154 44.1715 72.4269 44.1715 72.4269 44.1715C72.4346 44.1715 72.4501 44.1715 72.4732 44.1715C72.4964 44.1638 72.5118 44.1599 72.5195 44.1599C72.5504 44.1522 72.5851 44.1445 72.6237 44.1368C72.6546 44.1291 72.6855 44.1175 72.7163 44.102C72.724 44.102 72.7395 44.0943 72.7626 44.0789C72.7626 44.0789 72.7665 44.0789 72.7742 44.0789C73.0289 43.94 73.2913 43.7085 73.5613 43.3843C73.9626 42.8982 74.3871 42.192 74.8347 41.266C75.0508 40.803 75.2244 40.3901 75.3556 40.0274C75.3865 39.9656 75.4366 39.9348 75.5061 39.9348C75.5755 39.9348 75.6411 39.9502 75.7029 39.9811C75.7646 40.0119 75.8186 40.0467 75.8649 40.0853C76.0964 40.2936 76.1736 40.4981 76.0964 40.6988C76.0579 40.7914 76.0154 40.9149 75.9691 41.0692C75.9305 41.2004 75.8919 41.3316 75.8533 41.4628C75.8456 41.4936 75.8379 41.5284 75.8302 41.567C75.8225 41.5824 75.8148 41.6017 75.807 41.6248V41.6364C75.7839 41.7367 75.7646 41.8216 75.7492 41.8911C75.6643 42.2461 75.6103 42.574 75.5871 42.875C75.5639 43.0525 75.5524 43.2223 75.5524 43.3843C75.5524 43.3921 75.5524 43.4114 75.5524 43.4422V43.477C75.5524 43.4847 75.5524 43.5001 75.5524 43.5233C75.5601 43.5387 75.564 43.5464 75.564 43.5464C75.5717 43.6236 75.5794 43.6969 75.5871 43.7663C75.5871 43.7741 75.5948 43.8127 75.6103 43.8821C75.6103 43.8898 75.6103 43.8937 75.6103 43.8937C75.618 43.9014 75.6296 43.9207 75.645 43.9516C75.6604 43.9824 75.6681 44.0056 75.6681 44.021V44.0442C75.6758 44.0519 75.6797 44.0557 75.6797 44.0557V44.0673C75.6874 44.075 75.6951 44.0828 75.7029 44.0905C75.7106 44.0905 75.7144 44.0905 75.7144 44.0905H75.726C75.7337 44.0982 75.7453 44.1059 75.7607 44.1136C75.7839 44.1136 75.7993 44.1175 75.807 44.1252C75.8225 44.1252 75.8341 44.1252 75.8418 44.1252C76.0116 44.1561 76.1929 44.1522 76.3858 44.1136C77.1344 43.9901 77.9138 43.5426 78.7241 42.7708C78.9788 42.5316 79.2219 42.2731 79.4534 41.9953C79.4843 41.9567 79.5229 41.9065 79.5692 41.8448C79.5769 41.8371 79.5846 41.8293 79.5923 41.8216C79.5923 41.8216 79.5885 41.8255 79.5807 41.8332C79.5807 41.8332 79.5846 41.8293 79.5923 41.8216C79.6077 41.8062 79.6155 41.7946 79.6155 41.7869C79.6541 41.7406 79.6772 41.7097 79.6849 41.6943ZM72.2649 44.1599C72.2726 44.1599 72.288 44.1638 72.3112 44.1715C72.3112 44.1638 72.2957 44.1599 72.2649 44.1599ZM72.2533 44.1599V44.1483C72.2533 44.1561 72.2533 44.1599 72.2533 44.1599ZM75.6797 44.0673V44.0557C75.6797 44.048 75.6758 44.0364 75.6681 44.021C75.6758 44.0364 75.6797 44.0519 75.6797 44.0673Z" fill="#FAFAFA"/>
<path d="M84.8261 41.7174C84.911 41.6171 84.9881 41.6441 85.0576 41.7985C85.1039 41.8988 85.1155 41.9991 85.0923 42.0994C84.992 42.4853 84.6061 43.0178 83.9348 43.6969C83.2634 44.376 82.619 44.839 82.0016 45.086C81.1836 45.4101 80.5585 45.4371 80.1263 45.167C79.7096 44.9123 79.4627 44.4995 79.3855 43.9284C79.3315 43.5271 79.3546 43.0255 79.4549 42.4236C79.5553 41.8756 79.7173 41.2467 79.9411 40.5367C80.3193 39.3251 80.8209 38.0364 81.446 36.6704C81.7084 36.0993 81.9553 35.5977 82.1868 35.1656C82.4106 34.7488 82.6035 34.4402 82.7656 34.2395C82.8042 34.1778 82.8621 34.1623 82.9392 34.1932C83.0241 34.2241 83.0974 34.2627 83.1592 34.309C83.2209 34.3553 83.2711 34.4016 83.3097 34.4479C83.4949 34.6717 83.5257 34.8646 83.4023 35.0267C83.4177 35.0035 83.4254 34.9919 83.4254 34.9919L83.3907 35.0382C83.3753 35.0614 83.3598 35.0884 83.3444 35.1193C83.0048 35.6286 82.565 36.4813 82.0248 37.6775C81.4228 39.028 80.9482 40.2782 80.6009 41.428C80.5546 41.5824 80.5122 41.7329 80.4736 41.8795C80.435 42.0107 80.4042 42.1419 80.381 42.2731C80.3038 42.5663 80.2459 42.8403 80.2074 43.095C80.1688 43.3651 80.1456 43.612 80.1379 43.8358C80.1379 43.8898 80.1379 43.9438 80.1379 43.9979C80.1379 44.0056 80.1379 44.0249 80.1379 44.0557C80.1379 44.0557 80.1379 44.0596 80.1379 44.0673C80.1456 44.1831 80.1572 44.2757 80.1726 44.3451C80.1726 44.3529 80.1765 44.3683 80.1842 44.3914C80.1919 44.4069 80.1996 44.43 80.2074 44.4609C80.2151 44.4609 80.2228 44.4609 80.2305 44.4609C80.7784 44.5149 81.419 44.3336 82.1521 43.9168C83.1167 43.3766 84.0081 42.6435 84.8261 41.7174ZM80.2189 44.4956V44.484C80.2189 44.4918 80.2189 44.4956 80.2189 44.4956Z" fill="#FAFAFA"/>
<path d="M88.3495 43.94C88.3495 43.94 88.3418 43.94 88.3264 43.94C88.3264 43.9323 88.3264 43.9246 88.3264 43.9168L88.338 43.8937C88.338 43.9014 88.3418 43.9168 88.3495 43.94ZM92.32 41.7985C92.4358 41.621 92.5129 41.6094 92.5515 41.7637C92.5824 41.9104 92.567 42.0763 92.5052 42.2615C92.4667 42.3541 92.4011 42.4776 92.3084 42.6319C92.2236 42.7863 92.1078 42.9638 91.9612 43.1644C91.8223 43.3573 91.6525 43.5541 91.4518 43.7548C91.2589 43.9477 91.0505 44.1291 90.8267 44.2988C90.6107 44.4686 90.3676 44.6037 90.0975 44.704C89.8351 44.812 89.5727 44.866 89.3103 44.866C88.7701 44.866 88.3688 44.7541 88.1064 44.5303C87.8055 44.2834 87.6125 43.9477 87.5277 43.5233C87.5045 43.4152 87.4891 43.2956 87.4814 43.1644C87.0955 43.7046 86.7096 44.1136 86.3238 44.3914C85.9842 44.6384 85.6601 44.7503 85.3514 44.7271C85.0427 44.7117 84.7765 44.5612 84.5527 44.2757C84.3212 43.9901 84.1938 43.6815 84.1707 43.3496C84.1244 42.8403 84.3212 42.2422 84.7611 41.5554C85.1006 41.0152 85.4788 40.5753 85.8955 40.2357C86.3199 39.8885 86.6942 39.738 87.0183 39.7843C87.4196 39.846 87.7553 40.0583 88.0254 40.421C88.0563 40.3669 88.0833 40.3206 88.1064 40.282C88.2068 40.1586 88.3187 40.12 88.4421 40.1663C88.5656 40.2049 88.6775 40.2975 88.7778 40.4441C88.8782 40.5907 88.9206 40.7219 88.9052 40.8377C88.8975 40.8917 88.8473 41.0538 88.7547 41.3239C88.6467 41.6403 88.5618 41.9027 88.5 42.111C88.4769 42.1805 88.4537 42.2576 88.4306 42.3425C88.4229 42.3657 88.419 42.385 88.419 42.4004C88.4113 42.4467 88.4036 42.4853 88.3958 42.5162C88.3573 42.6859 88.3264 42.8441 88.3032 42.9908C88.2801 43.1528 88.2646 43.3072 88.2569 43.4538C88.2569 43.4692 88.2569 43.5078 88.2569 43.5696V43.5811C88.2569 43.5889 88.2569 43.5927 88.2569 43.5927C88.2646 43.6081 88.2685 43.6313 88.2685 43.6622C88.2685 43.6853 88.2685 43.7085 88.2685 43.7316C88.2762 43.7548 88.2839 43.7779 88.2917 43.8011C88.2917 43.8011 88.2955 43.8165 88.3032 43.8474C88.3032 43.8628 88.3032 43.8705 88.3032 43.8705C88.311 43.8937 88.3148 43.9091 88.3148 43.9168C88.3148 43.9168 88.3187 43.9168 88.3264 43.9168C88.3264 43.9246 88.3264 43.9284 88.3264 43.9284C88.3264 43.9361 88.3264 43.94 88.3264 43.94H88.338C88.3303 43.94 88.3264 43.94 88.3264 43.94H88.338C88.338 43.94 88.338 43.9438 88.338 43.9516C88.3457 43.9516 88.3457 43.9554 88.338 43.9631H88.3495C88.3495 43.9554 88.3495 43.9516 88.3495 43.9516C88.3727 43.9593 88.392 43.967 88.4074 43.9747C88.4074 43.9747 88.4113 43.9747 88.419 43.9747C88.4267 43.9747 88.4306 43.9747 88.4306 43.9747C88.5155 43.9901 88.5888 44.0017 88.6505 44.0094C88.8434 44.0172 89.0672 43.994 89.3219 43.94C90.1013 43.7856 90.8383 43.3766 91.5329 42.713C91.7489 42.5123 91.9573 42.2885 92.158 42.0416C92.158 42.0338 92.158 42.03 92.158 42.03C92.1657 42.0223 92.1734 42.0146 92.1811 42.0068C92.1965 41.9914 92.2043 41.9798 92.2043 41.9721C92.2274 41.9412 92.2506 41.9104 92.2737 41.8795C92.2969 41.8486 92.3123 41.8216 92.32 41.7985ZM88.8589 40.9187L88.8473 40.9419H88.8357C88.8357 40.9496 88.8357 40.9573 88.8357 40.965C88.8589 40.9496 88.8666 40.9341 88.8589 40.9187ZM87.5277 40.7335C87.5277 40.7412 87.5315 40.7489 87.5392 40.7567C87.5392 40.7489 87.5392 40.7451 87.5392 40.7451C87.5315 40.7374 87.5277 40.7335 87.5277 40.7335ZM84.9347 43.8474C84.9347 43.8474 84.9386 43.8474 84.9463 43.8474H84.9347ZM86.6595 42.5972C86.9604 42.1959 87.2807 41.7059 87.6203 41.1271C87.5663 41.0268 87.5392 40.9264 87.5392 40.8261C87.547 40.7952 87.547 40.7721 87.5392 40.7567C87.5315 40.7567 87.5277 40.7528 87.5277 40.7451C87.5277 40.7374 87.5277 40.7296 87.5277 40.7219C87.4968 40.7065 87.4659 40.6911 87.4351 40.6756C87.3888 40.6602 87.3425 40.6486 87.2962 40.6409C87.2884 40.6409 87.2769 40.6409 87.2614 40.6409H87.2383C87.1765 40.6486 87.1109 40.6679 87.0415 40.6988C86.9875 40.7142 86.9219 40.7489 86.8447 40.803C86.7675 40.8493 86.6904 40.9033 86.6132 40.965C86.2428 41.2506 85.9071 41.6094 85.6061 42.0416C85.4132 42.3194 85.255 42.5856 85.1315 42.8403C85.0157 43.0872 84.9501 43.3342 84.9347 43.5811C84.9347 43.6352 84.9386 43.6892 84.9463 43.7432C84.954 43.7818 84.9578 43.8127 84.9578 43.8358L84.9694 43.859C84.9771 43.859 84.9926 43.8628 85.0157 43.8705C85.0466 43.8705 85.0659 43.8705 85.0736 43.8705C85.0813 43.8705 85.0852 43.8705 85.0852 43.8705C85.1006 43.8628 85.1161 43.859 85.1315 43.859C85.1546 43.8512 85.1739 43.8474 85.1894 43.8474C85.2434 43.8319 85.309 43.8088 85.3861 43.7779C85.3939 43.7779 85.4093 43.7741 85.4325 43.7663C85.4325 43.7663 85.4363 43.7625 85.444 43.7548C85.4749 43.7393 85.5019 43.7239 85.5251 43.7085C85.6485 43.6313 85.7797 43.5348 85.9186 43.4191C86.1656 43.203 86.4125 42.929 86.6595 42.5972ZM88.3264 43.9516C88.3264 43.9593 88.3341 43.967 88.3495 43.9747V43.9631C88.3418 43.9631 88.338 43.9593 88.338 43.9516C88.3303 43.9516 88.3264 43.9516 88.3264 43.9516Z" fill="#FAFAFA"/>
<path d="M99.8835 41.7059C99.9375 41.7367 99.9684 41.783 99.9761 41.8448C99.9915 41.8988 99.98 41.9374 99.9414 41.9605C99.9105 41.9682 99.8719 41.9875 99.8256 42.0184C99.1388 42.4043 98.4172 42.8519 97.661 43.3612C96.7195 43.994 95.8899 44.6152 95.1722 45.2249C95.1645 45.2403 95.1567 45.2558 95.149 45.2712C95.1413 45.2943 95.1374 45.3136 95.1374 45.3291C94.6898 46.7104 94.25 47.8487 93.8178 48.7439C93.5631 49.2764 93.3239 49.697 93.1001 50.0057C92.8146 50.3838 92.5483 50.6153 92.3014 50.7002C92.147 50.7542 91.985 50.7504 91.8152 50.6886C91.6609 50.6269 91.5258 50.5343 91.4101 50.4108C91.2943 50.2873 91.2133 50.1484 91.167 49.9941C91.113 49.8398 91.0975 49.6275 91.1207 49.3574C91.1592 48.8172 91.3406 48.2539 91.6647 47.6674C92.2126 46.6796 93.1426 45.6262 94.4545 44.5072C94.5548 44.1831 94.659 43.8435 94.767 43.4885C94.4275 43.8435 94.0802 44.0905 93.7252 44.2294C93.3008 44.3992 92.9188 44.3644 92.5792 44.1252C92.1779 43.8474 91.9657 43.4499 91.9425 42.9329C91.8962 42.2075 92.2126 41.4744 92.8917 40.7335C93.3857 40.1856 93.9413 39.7882 94.5587 39.5412C94.7825 39.4486 95.041 39.4177 95.3342 39.4486C95.8281 39.5026 96.2101 39.8422 96.4802 40.4673C96.5188 40.5522 96.5227 40.6409 96.4918 40.7335C96.4609 40.8261 96.3915 40.8686 96.2834 40.8608C96.1754 40.8454 96.0751 40.7914 95.9825 40.6988C95.8899 40.6062 95.8166 40.502 95.7625 40.3862C95.7625 40.3708 95.7587 40.3592 95.751 40.3515C95.751 40.3438 95.7471 40.3399 95.7394 40.3399C95.7394 40.3322 95.7394 40.3284 95.7394 40.3284C95.7317 40.3284 95.7278 40.3245 95.7278 40.3168C95.5966 40.2936 95.4616 40.2936 95.3227 40.3168C95.2609 40.3245 95.1799 40.3476 95.0796 40.3862C95.0641 40.3939 95.0333 40.4055 94.987 40.421C94.987 40.421 94.9754 40.4287 94.9522 40.4441H94.9407C94.8866 40.475 94.8288 40.5058 94.767 40.5367C94.4738 40.7065 94.1882 40.9071 93.9104 41.1387C93.1927 41.7792 92.7953 42.439 92.7181 43.1181C92.7181 43.1567 92.7143 43.1953 92.7065 43.2339C92.7065 43.2416 92.7065 43.2532 92.7065 43.2686C92.7065 43.284 92.7065 43.2917 92.7065 43.2917C92.7143 43.338 92.7258 43.3921 92.7413 43.4538C92.749 43.4538 92.7528 43.4538 92.7528 43.4538C92.7606 43.4538 92.7683 43.4577 92.776 43.4654C92.83 43.4654 92.857 43.4654 92.857 43.4654C92.9188 43.4654 92.9921 43.4538 93.077 43.4307C93.2159 43.3921 93.3625 43.3188 93.5168 43.2107C93.7947 43.0255 94.0493 42.7978 94.2808 42.5277C94.5124 42.2576 94.7554 41.9258 95.0101 41.5322C95.0333 41.5091 95.068 41.4628 95.1143 41.3933C95.1606 41.3161 95.1992 41.2583 95.23 41.2197C95.2995 41.1194 95.3419 41.0615 95.3574 41.046C95.4731 40.9534 95.6275 40.992 95.8204 41.1618C95.967 41.293 96.0519 41.4473 96.0751 41.6248C96.0982 41.7329 96.0674 41.976 95.9825 42.3541C95.8899 42.74 95.7818 43.1567 95.6584 43.6043C96.5535 42.9869 97.414 42.4776 98.2397 42.0763C99.0732 41.6673 99.6211 41.5438 99.8835 41.7059ZM95.7394 40.3284C95.7471 40.3284 95.751 40.3322 95.751 40.3399C95.7432 40.3322 95.7394 40.3284 95.7394 40.3284ZM95.994 41.8332L96.0056 41.8216C95.9979 41.8293 95.994 41.8332 95.994 41.8332ZM92.9844 48.2693C93.2159 47.8217 93.4512 47.2892 93.6905 46.6719C93.6905 46.6641 93.6905 46.6526 93.6905 46.6371C93.6982 46.6294 93.7059 46.6178 93.7136 46.6024C93.7214 46.5947 93.7252 46.5831 93.7252 46.5677C92.884 47.4474 92.3245 48.3002 92.0467 49.1259C92.0236 49.1954 92.0004 49.2648 91.9773 49.3343C91.9773 49.3574 91.9734 49.3729 91.9657 49.3806C91.958 49.4192 91.9541 49.4539 91.9541 49.4848C91.931 49.5851 91.9155 49.6854 91.9078 49.7857C91.9232 49.7703 91.9387 49.7587 91.9541 49.751C92.0544 49.6738 92.1702 49.5581 92.3014 49.4037C92.3014 49.4037 92.3091 49.396 92.3245 49.3806C92.3477 49.3574 92.3631 49.3381 92.3708 49.3227C92.394 49.2918 92.4172 49.2571 92.4403 49.2185C92.502 49.1259 92.5638 49.0295 92.6255 48.9291C92.7413 48.7362 92.8609 48.5163 92.9844 48.2693Z" fill="#FAFAFA"/>
<path d="M104.134 41.7522C104.227 41.6518 104.3 41.648 104.354 41.7406C104.4 41.8332 104.397 41.9837 104.343 42.192C104.312 42.3155 104.223 42.4892 104.076 42.713C103.93 42.929 103.729 43.1721 103.474 43.4422C103.22 43.7123 102.938 43.9631 102.629 44.1946C102.328 44.4184 101.977 44.5998 101.576 44.7387C101.182 44.8776 100.789 44.9316 100.395 44.9008C100.056 44.8699 99.7548 44.7233 99.4924 44.4609C99.23 44.1985 99.0564 43.8898 98.9715 43.5348C98.848 43.0255 98.9869 42.4043 99.3882 41.6711C99.7586 40.9689 100.144 40.4673 100.546 40.1663C100.793 39.9811 101.02 39.8962 101.229 39.9116C101.321 39.9193 101.41 39.9502 101.495 40.0042C101.588 40.0505 101.669 40.1123 101.738 40.1894C101.808 40.2589 101.865 40.3361 101.912 40.421C102.12 40.7837 102.135 41.2313 101.958 41.7637C101.781 42.2731 101.495 42.6667 101.101 42.9445C100.878 43.0988 100.642 43.1953 100.395 43.2339C100.233 43.257 100.052 43.2261 99.8512 43.1413C99.8281 43.1335 99.8049 43.122 99.7818 43.1065C99.7123 43.3535 99.693 43.5696 99.7239 43.7548C99.7316 43.7934 99.7393 43.8204 99.747 43.8358C99.7548 43.8512 99.7586 43.8628 99.7586 43.8705C99.7586 43.8782 99.7663 43.8898 99.7818 43.9053V43.9168C99.7818 43.9168 99.7818 43.913 99.7818 43.9053C99.7895 43.913 99.8011 43.9245 99.8165 43.94C99.8242 43.9477 99.8435 43.9593 99.8744 43.9747C99.8821 43.9824 99.8898 43.9863 99.8975 43.9863C99.9593 44.0094 99.994 44.021 100.002 44.021C100.009 44.0287 100.044 44.0364 100.106 44.0442C100.144 44.0519 100.187 44.0557 100.233 44.0557C100.457 44.0557 100.723 44.0133 101.032 43.9284C101.51 43.7818 102.016 43.5233 102.548 43.1528C103.166 42.7207 103.694 42.2538 104.134 41.7522ZM101.287 40.5136V40.5251C101.287 40.5174 101.287 40.5136 101.287 40.5136ZM100.58 41.5901C100.403 41.8371 100.249 42.0801 100.117 42.3194C100.164 42.3039 100.21 42.2885 100.256 42.2731C100.334 42.2422 100.422 42.1882 100.523 42.111C100.615 42.0416 100.7 41.9644 100.777 41.8795C100.847 41.8023 100.908 41.7174 100.962 41.6248C101.024 41.5322 101.078 41.4319 101.125 41.3239C101.171 41.2313 101.209 41.1271 101.24 41.0113C101.248 41.0036 101.252 40.9997 101.252 40.9997V40.9882C101.26 40.9573 101.263 40.938 101.263 40.9303C101.263 40.9303 101.267 40.9187 101.275 40.8956C101.206 40.9341 101.14 40.9843 101.078 41.046C100.908 41.1927 100.743 41.374 100.58 41.5901ZM99.7586 43.8705C99.7586 43.8705 99.7548 43.8705 99.747 43.8705C99.747 43.8705 99.747 43.8667 99.747 43.859C99.747 43.8667 99.7509 43.8744 99.7586 43.8821V43.8705Z" fill="#FAFAFA"/>
<path d="M38.3446 54.1536C38.4218 54.0456 38.4912 54.0765 38.553 54.2463C38.5838 54.3389 38.5954 54.4199 38.5877 54.4893C38.5568 54.7054 38.4295 54.9717 38.2057 55.2881C37.9819 55.6045 37.6925 55.9286 37.3375 56.2604C36.9825 56.5923 36.5465 56.9125 36.0295 57.2212C35.5124 57.5376 34.9722 57.7923 34.4089 57.9852C33.9998 58.1164 33.533 58.1743 33.0082 58.1589C32.7227 58.1511 32.4989 58.1203 32.3368 58.0662C32.1439 57.9891 32.005 57.8386 31.9201 57.6148C31.8892 57.5531 31.8815 57.4759 31.8969 57.3833C31.9046 57.2984 31.9471 57.2482 32.0243 57.2328C32.0551 57.2251 32.0898 57.2212 32.1284 57.2212H32.1516C32.1747 57.2212 32.2133 57.2251 32.2673 57.2328C32.3136 57.2405 32.3484 57.2444 32.3715 57.2444C32.4641 57.2521 32.5567 57.2559 32.6493 57.2559C32.6571 57.2559 32.7111 57.2559 32.8114 57.2559C32.8114 57.2559 32.8153 57.2559 32.823 57.2559C32.823 57.2559 32.823 57.2521 32.823 57.2444C32.8307 57.2444 32.8423 57.2444 32.8577 57.2444C32.8809 57.2444 32.8963 57.2444 32.904 57.2444C33.151 57.2289 33.3632 57.1903 33.5407 57.1286C33.5715 57.1209 33.6217 57.1016 33.6912 57.0707L33.7027 57.0592C33.7104 57.0592 33.7182 57.0553 33.7259 57.0476C33.7413 57.0399 33.7529 57.0321 33.7606 57.0244C33.8378 56.9781 33.9072 56.9202 33.969 56.8508C33.9844 56.8431 34.0037 56.8122 34.0269 56.7582C34.0346 56.7505 34.0461 56.7312 34.0616 56.7003C34.0616 56.6926 34.0654 56.681 34.0732 56.6656V56.6424L34.0847 56.6077C34.0847 56.5768 34.0847 56.5498 34.0847 56.5267C34.0847 56.5267 34.0847 56.5112 34.0847 56.4804C34.0847 56.4418 34.0847 56.4225 34.0847 56.4225C34.0847 56.4071 34.077 56.3646 34.0616 56.2952C34.0616 56.2952 34.0616 56.2913 34.0616 56.2836V56.272C34.0076 56.1331 33.9728 56.0405 33.9574 55.9942C33.8416 55.7009 33.749 55.4231 33.6796 55.1607C33.5947 54.8598 33.5291 54.6012 33.4828 54.3852C33.4365 54.1691 33.4172 53.9106 33.4249 53.6096C33.4326 53.3086 33.4867 53.0462 33.587 52.8224C33.7182 52.5446 33.9304 52.3517 34.2236 52.2436C34.5169 52.1356 34.7986 52.1588 35.0687 52.3131C35.169 52.3748 35.2539 52.4674 35.3233 52.5909C35.4005 52.7067 35.4352 52.8186 35.4275 52.9266C35.4121 53.0269 35.3619 53.0848 35.277 53.1003C35.1921 53.1157 35.115 53.1003 35.0455 53.0539C35.0455 53.0539 35.0455 53.0578 35.0455 53.0655C35.0532 53.0655 35.061 53.0655 35.0687 53.0655C35.0532 53.0578 35.0417 53.0539 35.0339 53.0539C35.0339 53.0539 35.0301 53.0539 35.0224 53.0539C35.0224 53.0539 35.0185 53.0539 35.0108 53.0539C35.0108 53.0539 35.0031 53.0539 34.9876 53.0539C34.9799 53.0539 34.9722 53.0539 34.9645 53.0539C34.9028 53.0462 34.8256 53.0578 34.733 53.0887C34.733 53.0964 34.7098 53.108 34.6635 53.1234H34.6519L34.6404 53.135C34.5786 53.1736 34.5323 53.2083 34.5015 53.2392C34.4937 53.2392 34.486 53.243 34.4783 53.2507C34.4706 53.2585 34.4629 53.27 34.4552 53.2855C34.4474 53.2932 34.4397 53.3009 34.432 53.3086C34.432 53.3086 34.4281 53.3125 34.4204 53.3202L34.4089 53.3318C34.3703 53.3935 34.3433 53.4475 34.3278 53.4938C34.297 53.5401 34.2738 53.598 34.2584 53.6675C34.2584 53.6675 34.2545 53.6906 34.2468 53.7369C34.2391 53.7755 34.2314 53.8141 34.2236 53.8527C34.2159 53.9298 34.2121 54.0147 34.2121 54.1073C34.2121 54.1691 34.2121 54.227 34.2121 54.281C34.2275 54.4739 34.2584 54.6823 34.3047 54.9061C34.351 55.099 34.4359 55.3768 34.5593 55.7395C34.6828 56.0945 34.7523 56.2952 34.7677 56.3415C34.814 56.5035 34.8449 56.6617 34.8603 56.8161C35.1304 56.708 35.3928 56.5884 35.6475 56.4572C36.8513 55.8244 37.7504 55.0566 38.3446 54.1536Z" fill="#FAFAFA"/>
<path d="M42.9546 54.2926C43.0472 54.1922 43.1206 54.1884 43.1746 54.281C43.2209 54.3736 43.217 54.5241 43.163 54.7324C43.1321 54.8559 43.0434 55.0295 42.8968 55.2533C42.7501 55.4694 42.5495 55.7125 42.2948 55.9826C42.0402 56.2527 41.7585 56.5035 41.4498 56.735C41.1488 56.9588 40.7977 57.1402 40.3964 57.2791C40.0028 57.418 39.6093 57.472 39.2157 57.4412C38.8761 57.4103 38.5752 57.2637 38.3128 57.0013C38.0504 56.7389 37.8768 56.4302 37.7919 56.0752C37.6684 55.5659 37.8073 54.9447 38.2086 54.2115C38.579 53.5093 38.9649 53.0076 39.3662 52.7067C39.6131 52.5215 39.8408 52.4366 40.0491 52.452C40.1417 52.4597 40.2305 52.4906 40.3154 52.5446C40.408 52.5909 40.489 52.6527 40.5585 52.7298C40.6279 52.7993 40.6858 52.8765 40.7321 52.9613C40.9405 53.3241 40.9559 53.7716 40.7784 54.3041C40.6009 54.8135 40.3154 55.207 39.9218 55.4849C39.698 55.6392 39.4626 55.7357 39.2157 55.7742C39.0536 55.7974 38.8723 55.7665 38.6716 55.6816C38.6485 55.6739 38.6253 55.6623 38.6022 55.6469C38.5327 55.8939 38.5134 56.1099 38.5443 56.2952C38.552 56.3337 38.5597 56.3608 38.5674 56.3762C38.5752 56.3916 38.579 56.4032 38.579 56.4109C38.579 56.4186 38.5867 56.4302 38.6022 56.4456V56.4572C38.6022 56.4572 38.6022 56.4534 38.6022 56.4456C38.6099 56.4534 38.6215 56.4649 38.6369 56.4804C38.6446 56.4881 38.6639 56.4997 38.6948 56.5151C38.7025 56.5228 38.7102 56.5267 38.7179 56.5267C38.7797 56.5498 38.8144 56.5614 38.8221 56.5614C38.8298 56.5691 38.8645 56.5768 38.9263 56.5846C38.9649 56.5923 39.0073 56.5961 39.0536 56.5961C39.2774 56.5961 39.5437 56.5537 39.8523 56.4688C40.3308 56.3222 40.8363 56.0636 41.3688 55.6932C41.9861 55.2611 42.5148 54.7942 42.9546 54.2926ZM40.107 53.0539V53.0655C40.107 53.0578 40.107 53.0539 40.107 53.0539ZM39.4009 54.1305C39.2234 54.3774 39.0691 54.6205 38.9379 54.8598C38.9842 54.8443 39.0305 54.8289 39.0768 54.8135C39.1539 54.7826 39.2427 54.7286 39.343 54.6514C39.4356 54.5819 39.5205 54.5048 39.5977 54.4199C39.6671 54.3427 39.7289 54.2578 39.7829 54.1652C39.8446 54.0726 39.8986 53.9723 39.945 53.8643C39.9913 53.7716 40.0298 53.6675 40.0607 53.5517C40.0684 53.544 40.0723 53.5401 40.0723 53.5401V53.5286C40.08 53.4977 40.0839 53.4784 40.0839 53.4707C40.0839 53.4707 40.0877 53.4591 40.0954 53.4359C40.026 53.4745 39.9604 53.5247 39.8986 53.5864C39.7289 53.7331 39.563 53.9144 39.4009 54.1305ZM38.579 56.4109C38.579 56.4109 38.5752 56.4109 38.5674 56.4109C38.5674 56.4109 38.5674 56.4071 38.5674 56.3993C38.5674 56.4071 38.5713 56.4148 38.579 56.4225V56.4109Z" fill="#FAFAFA"/>
<path d="M46.458 53.1466C46.4735 53.2546 46.4464 53.3356 46.377 53.3896C46.3153 53.4437 46.2342 53.4514 46.1339 53.4128C46.1262 53.4051 46.1108 53.3974 46.0876 53.3896C46.0644 53.3819 46.049 53.3781 46.0413 53.3781C46.0336 53.3704 46.022 53.3626 46.0066 53.3549C45.9603 53.3472 45.9217 53.3433 45.8908 53.3433C45.8831 53.3433 45.8599 53.3433 45.8214 53.3433L45.7635 53.3318C45.7172 53.3395 45.6786 53.3472 45.6477 53.3549C45.4625 53.3858 45.2773 53.4668 45.0921 53.598C44.7757 53.8218 44.4631 54.1536 44.1544 54.5935C43.8921 54.9639 43.6297 55.4 43.3673 55.9016C43.0663 56.4804 42.8271 57.0244 42.6496 57.5338C42.6187 57.6032 42.5686 57.6379 42.4991 57.6379C42.4297 57.6379 42.3641 57.6187 42.3023 57.5801C42.2406 57.5492 42.1866 57.5145 42.1403 57.4759C41.9165 57.2752 41.8393 57.0707 41.9088 56.8624C41.9473 56.7466 41.9975 56.5961 42.0592 56.4109C42.3062 55.616 42.5146 54.9138 42.6843 54.3041C42.7847 53.9183 42.8618 53.5864 42.9158 53.3086C42.9467 53.1466 42.966 53.0154 42.9737 52.915C42.9737 52.8996 42.9737 52.8765 42.9737 52.8456C42.9814 52.807 42.9853 52.78 42.9853 52.7646C42.9853 52.7491 42.9853 52.7375 42.9853 52.7298C42.9622 52.6218 42.9814 52.5446 43.0432 52.4983C43.1126 52.4443 43.1975 52.4366 43.2978 52.4752C43.4059 52.5137 43.5023 52.5871 43.5872 52.6951C43.6721 52.7954 43.7261 52.9073 43.7493 53.0308C43.7725 53.1543 43.7725 53.3086 43.7493 53.4938C44.5133 52.5755 45.2657 52.2745 46.0066 52.5909C46.1146 52.6372 46.2111 52.7144 46.296 52.8224C46.3809 52.9228 46.4349 53.0308 46.458 53.1466Z" fill="#FAFAFA"/>
<path d="M50.9386 52.2205C51.0313 52.5369 51.0274 52.9073 50.9271 53.3318C50.8267 53.7408 50.6763 54.1729 50.4756 54.6283C50.082 55.4849 49.6344 56.2064 49.1328 56.7929C49.0171 56.9241 48.9052 57.036 48.7971 57.1286C48.6968 57.2212 48.5849 57.2984 48.4614 57.3601C48.1296 57.5299 47.8093 57.4836 47.5007 57.2212C47.0145 56.8045 46.8138 56.0328 46.8987 54.9061C46.9373 54.4662 47.0183 54.0186 47.1418 53.5633C47.2653 53.1388 47.408 52.807 47.5701 52.5678C47.5933 52.5292 47.6203 52.5022 47.6511 52.4867C47.6897 52.4713 47.7245 52.4674 47.7553 52.4752C47.7939 52.4752 47.8325 52.4829 47.8711 52.4983C47.9097 52.5137 47.9444 52.533 47.9753 52.5562C48.0061 52.5716 48.037 52.5948 48.0679 52.6256C48.1528 52.7028 48.2261 52.8031 48.2878 52.9266C48.3495 53.0501 48.3534 53.1543 48.2994 53.2392C48.1296 53.4938 47.9868 53.8411 47.8711 54.281C47.763 54.6823 47.6974 55.1106 47.6743 55.5659C47.6666 55.6662 47.6627 55.7627 47.6627 55.8553C47.6627 55.9016 47.6627 55.944 47.6627 55.9826C47.6627 55.998 47.6627 56.0173 47.6627 56.0405C47.6627 56.0482 47.6627 56.0521 47.6627 56.0521C47.6781 56.2141 47.7013 56.3762 47.7322 56.5382C47.7322 56.546 47.7322 56.5537 47.7322 56.5614C47.7322 56.5691 47.736 56.573 47.7437 56.573C47.7437 56.5807 47.7437 56.5846 47.7437 56.5846C47.7746 56.5768 47.8132 56.5653 47.8595 56.5498C47.8672 56.5498 47.8749 56.5498 47.8827 56.5498C47.8904 56.5421 47.8942 56.5344 47.8942 56.5267C47.9251 56.5112 47.9482 56.4997 47.9637 56.4919C48.01 56.4611 48.0563 56.4264 48.1026 56.3878C48.3032 56.218 48.5039 55.998 48.7045 55.7279C49.1676 55.1183 49.5534 54.4315 49.8621 53.6675C49.9393 53.49 50.0049 53.3202 50.0589 53.1581C50.082 53.0732 50.1052 52.9884 50.1283 52.9035C50.1283 52.8957 50.1322 52.8919 50.1399 52.8919C50.1399 52.8842 50.1399 52.8803 50.1399 52.8803C50.1399 52.8572 50.1438 52.8417 50.1515 52.834C50.1592 52.7877 50.1669 52.753 50.1746 52.7298C50.2055 52.5755 50.2248 52.4366 50.2325 52.3131C50.2325 52.2977 50.2325 52.2784 50.2325 52.2552C50.2325 52.2321 50.2325 52.2166 50.2325 52.2089C50.2325 52.2012 50.2325 52.1935 50.2325 52.1858C50.2248 52.1549 50.221 52.1318 50.221 52.1163C50.221 52.1163 50.221 52.1125 50.221 52.1047C50.1824 52.0276 50.1785 51.9465 50.2094 51.8616C50.2402 51.769 50.3097 51.7305 50.4177 51.7459C50.5258 51.7536 50.63 51.8076 50.7303 51.908C50.8306 52.0006 50.9001 52.1047 50.9386 52.2205ZM47.7785 56.6656C47.8016 56.6964 47.8093 56.7157 47.8016 56.7235C47.8093 56.708 47.7978 56.6887 47.7669 56.6656H47.7785Z" fill="#FAFAFA"/>
<path d="M56.538 54.2115C56.6228 54.1344 56.6769 54.1807 56.7 54.3504C56.7155 54.4893 56.7 54.6205 56.6537 54.744C56.6228 54.8212 56.5341 54.9524 56.3875 55.1376C56.2409 55.3228 56.0363 55.5427 55.774 55.7974C55.5193 56.0521 55.2415 56.2952 54.9405 56.5267C54.6473 56.7505 54.3154 56.9395 53.945 57.0939C53.5746 57.2559 53.2196 57.337 52.88 57.337C52.4787 57.337 52.1392 57.1209 51.8614 56.6887C51.6916 56.4186 51.6144 56.0791 51.6298 55.6701C51.6607 55.1376 51.8652 54.4353 52.2434 53.5633C52.4209 53.1466 52.6022 52.7723 52.7874 52.4404C52.88 52.2707 53.0382 52.2822 53.262 52.4752C53.4781 52.6604 53.5746 52.8417 53.5514 53.0192C53.5437 53.0501 53.5321 53.081 53.5167 53.1118C53.316 53.4745 53.1193 53.8835 52.9263 54.3389C52.7797 54.6938 52.6601 55.0218 52.5675 55.3228C52.5598 55.3614 52.5482 55.4115 52.5328 55.4733C52.5328 55.4733 52.5289 55.481 52.5212 55.4964C52.5212 55.5119 52.5173 55.5234 52.5096 55.5312C52.4942 55.6238 52.4787 55.7009 52.4633 55.7627C52.4324 55.9325 52.417 56.0829 52.417 56.2141C52.4093 56.2296 52.4093 56.2643 52.417 56.3183C52.417 56.3183 52.417 56.326 52.417 56.3415V56.3878L52.4286 56.4572C52.4517 56.4649 52.4672 56.4688 52.4749 56.4688C52.6061 56.4842 52.7643 56.4765 52.9495 56.4456C53.6054 56.3222 54.3965 55.917 55.3225 55.2302C55.7933 54.8752 56.1984 54.5356 56.538 54.2115ZM53.4588 51.7806C53.3739 51.7034 53.3045 51.607 53.2505 51.4912C53.1964 51.3678 53.1887 51.2597 53.2273 51.1671C53.2813 51.0359 53.3662 50.8391 53.482 50.5767C53.5128 50.515 53.563 50.4841 53.6324 50.4841C53.7019 50.4764 53.7636 50.4919 53.8177 50.5304C53.8794 50.5613 53.9373 50.596 53.9913 50.6346C54.0762 50.7118 54.1456 50.8083 54.1997 50.924C54.2537 51.0398 54.2614 51.1478 54.2228 51.2481C54.1611 51.3793 54.0762 51.5723 53.9681 51.8269C53.9373 51.8964 53.8871 51.9311 53.8177 51.9311C53.7482 51.9311 53.6826 51.9157 53.6209 51.8848C53.5669 51.8539 53.5128 51.8192 53.4588 51.7806Z" fill="#FAFAFA"/>
<path d="M61.6057 54.2463C61.6751 54.1691 61.7253 54.1999 61.7562 54.3389C61.7793 54.4932 61.7485 54.663 61.6636 54.8482C61.4012 55.4038 60.8841 55.9595 60.1124 56.5151C59.3407 57.063 58.623 57.337 57.9593 57.337C57.4191 57.337 56.9638 57.1518 56.5934 56.7813C56.2307 56.4032 56.0802 55.9517 56.1419 55.427C56.1882 54.9871 56.358 54.5009 56.6513 53.9684C56.9214 53.4745 57.2262 53.0617 57.5658 52.7298C57.913 52.3903 58.2333 52.2321 58.5265 52.2552C58.8507 52.2784 59.1053 52.4597 59.2905 52.7993C59.4295 53.0385 59.4603 53.3279 59.3832 53.6675C59.3368 53.8758 59.2018 53.9106 58.978 53.7716C58.7696 53.6405 58.6462 53.4784 58.6076 53.2855C58.5999 53.2546 58.596 53.2276 58.596 53.2044C58.5806 53.2122 58.569 53.216 58.5613 53.216C58.268 53.4089 57.9786 53.7176 57.6931 54.1421C57.423 54.5279 57.2146 54.9215 57.068 55.3228C56.9908 55.5312 56.9407 55.7202 56.9175 55.89C56.9021 56.0135 56.9021 56.1138 56.9175 56.191C56.9175 56.1987 56.9175 56.2141 56.9175 56.2373C56.9252 56.2604 56.9291 56.2759 56.9291 56.2836C56.9368 56.2836 56.9407 56.2913 56.9407 56.3067C56.9484 56.3145 56.9522 56.3222 56.9522 56.3299C56.9522 56.3299 56.9522 56.326 56.9522 56.3183V56.3299L56.9638 56.3415C56.9638 56.3415 56.9638 56.3453 56.9638 56.353C56.9715 56.353 56.9793 56.3569 56.987 56.3646L56.9638 56.3299C56.9638 56.3376 56.9638 56.3415 56.9638 56.3415C56.987 56.3492 57.0101 56.3608 57.0333 56.3762C57.041 56.3762 57.0526 56.38 57.068 56.3878C57.0989 56.4032 57.1143 56.4109 57.1143 56.4109C57.1606 56.4263 57.1876 56.4341 57.1953 56.4341C57.2571 56.4495 57.3188 56.4572 57.3806 56.4572C57.7124 56.4958 58.1021 56.4418 58.5497 56.2952C59.2211 56.0791 59.9311 55.6701 60.6796 55.0681C61.0578 54.7749 61.3665 54.5009 61.6057 54.2463Z" fill="#FAFAFA"/>
<path d="M66.174 54.2926C66.2666 54.1922 66.3399 54.1884 66.3939 54.281C66.4402 54.3736 66.4363 54.5241 66.3823 54.7324C66.3514 54.8559 66.2627 55.0295 66.1161 55.2533C65.9694 55.4694 65.7688 55.7125 65.5141 55.9826C65.2595 56.2527 64.9778 56.5035 64.6691 56.735C64.3681 56.9588 64.017 57.1402 63.6157 57.2791C63.2221 57.418 62.8286 57.472 62.435 57.4412C62.0954 57.4103 61.7945 57.2637 61.5321 57.0013C61.2697 56.7389 61.0961 56.4302 61.0112 56.0752C60.8877 55.5659 61.0266 54.9447 61.4279 54.2115C61.7983 53.5093 62.1842 53.0076 62.5855 52.7067C62.8324 52.5215 63.0601 52.4366 63.2684 52.452C63.361 52.4597 63.4498 52.4906 63.5347 52.5446C63.6273 52.5909 63.7083 52.6527 63.7778 52.7298C63.8472 52.7993 63.9051 52.8765 63.9514 52.9613C64.1598 53.3241 64.1752 53.7716 63.9977 54.3041C63.8202 54.8135 63.5347 55.207 63.1411 55.4849C62.9173 55.6392 62.6819 55.7357 62.435 55.7742C62.2729 55.7974 62.0916 55.7665 61.8909 55.6816C61.8678 55.6739 61.8446 55.6623 61.8215 55.6469C61.752 55.8939 61.7327 56.1099 61.7636 56.2952C61.7713 56.3337 61.779 56.3608 61.7867 56.3762C61.7945 56.3916 61.7983 56.4032 61.7983 56.4109C61.7983 56.4186 61.806 56.4302 61.8215 56.4456V56.4572C61.8215 56.4572 61.8215 56.4534 61.8215 56.4456C61.8292 56.4534 61.8408 56.4649 61.8562 56.4804C61.8639 56.4881 61.8832 56.4997 61.9141 56.5151C61.9218 56.5228 61.9295 56.5267 61.9372 56.5267C61.999 56.5498 62.0337 56.5614 62.0414 56.5614C62.0491 56.5691 62.0839 56.5768 62.1456 56.5846C62.1842 56.5923 62.2266 56.5961 62.2729 56.5961C62.4967 56.5961 62.763 56.5537 63.0717 56.4688C63.5501 56.3222 64.0556 56.0636 64.5881 55.6932C65.2054 55.2611 65.7341 54.7942 66.174 54.2926ZM63.3263 53.0539V53.0655C63.3263 53.0578 63.3263 53.0539 63.3263 53.0539ZM62.6202 54.1305C62.4427 54.3774 62.2884 54.6205 62.1572 54.8598C62.2035 54.8443 62.2498 54.8289 62.2961 54.8135C62.3732 54.7826 62.462 54.7286 62.5623 54.6514C62.6549 54.5819 62.7398 54.5048 62.817 54.4199C62.8864 54.3427 62.9482 54.2578 63.0022 54.1652C63.0639 54.0726 63.118 53.9723 63.1643 53.8643C63.2106 53.7716 63.2491 53.6675 63.28 53.5517C63.2877 53.544 63.2916 53.5401 63.2916 53.5401V53.5286C63.2993 53.4977 63.3032 53.4784 63.3032 53.4707C63.3032 53.4707 63.307 53.4591 63.3147 53.4359C63.2453 53.4745 63.1797 53.5247 63.118 53.5864C62.9482 53.7331 62.7823 53.9144 62.6202 54.1305ZM61.7983 56.4109C61.7983 56.4109 61.7945 56.4109 61.7867 56.4109C61.7867 56.4109 61.7867 56.4071 61.7867 56.3993C61.7867 56.4071 61.7906 56.4148 61.7983 56.4225V56.4109Z" fill="#FAFAFA"/>
<path d="M70.777 54.1536C70.8542 54.0456 70.9237 54.0765 70.9854 54.2463C71.0163 54.3389 71.0278 54.4199 71.0201 54.4893C70.9892 54.7054 70.8619 54.9717 70.6381 55.2881C70.4143 55.6045 70.1249 55.9286 69.7699 56.2604C69.4149 56.5923 68.9789 56.9125 68.4619 57.2212C67.9448 57.5376 67.4046 57.7923 66.8413 57.9852C66.4323 58.1164 65.9654 58.1743 65.4406 58.1589C65.1551 58.1511 64.9313 58.1203 64.7692 58.0662C64.5763 57.9891 64.4374 57.8386 64.3525 57.6148C64.3216 57.5531 64.3139 57.4759 64.3293 57.3833C64.3371 57.2984 64.3795 57.2482 64.4567 57.2328C64.4875 57.2251 64.5223 57.2212 64.5609 57.2212H64.584C64.6072 57.2212 64.6457 57.2251 64.6998 57.2328C64.7461 57.2405 64.7808 57.2444 64.8039 57.2444C64.8965 57.2521 64.9892 57.2559 65.0818 57.2559C65.0895 57.2559 65.1435 57.2559 65.2438 57.2559C65.2438 57.2559 65.2477 57.2559 65.2554 57.2559C65.2554 57.2559 65.2554 57.2521 65.2554 57.2444C65.2631 57.2444 65.2747 57.2444 65.2901 57.2444C65.3133 57.2444 65.3287 57.2444 65.3364 57.2444C65.5834 57.2289 65.7956 57.1903 65.9731 57.1286C66.004 57.1209 66.0541 57.1016 66.1236 57.0707L66.1352 57.0592C66.1429 57.0592 66.1506 57.0553 66.1583 57.0476C66.1737 57.0399 66.1853 57.0321 66.193 57.0244C66.2702 56.9781 66.3397 56.9202 66.4014 56.8508C66.4168 56.8431 66.4361 56.8122 66.4593 56.7582C66.467 56.7505 66.4786 56.7312 66.494 56.7003C66.494 56.6926 66.4979 56.681 66.5056 56.6656V56.6424L66.5172 56.6077C66.5172 56.5768 66.5172 56.5498 66.5172 56.5267C66.5172 56.5267 66.5172 56.5112 66.5172 56.4804C66.5172 56.4418 66.5172 56.4225 66.5172 56.4225C66.5172 56.4071 66.5094 56.3646 66.494 56.2952C66.494 56.2952 66.494 56.2913 66.494 56.2836V56.272C66.44 56.1331 66.4053 56.0405 66.3898 55.9942C66.2741 55.7009 66.1815 55.4231 66.112 55.1607C66.0271 54.8598 65.9615 54.6012 65.9152 54.3852C65.8689 54.1691 65.8496 53.9106 65.8573 53.6096C65.8651 53.3086 65.9191 53.0462 66.0194 52.8224C66.1506 52.5446 66.3628 52.3517 66.6561 52.2436C66.9493 52.1356 67.231 52.1588 67.5011 52.3131C67.6014 52.3748 67.6863 52.4674 67.7558 52.5909C67.8329 52.7067 67.8677 52.8186 67.8599 52.9266C67.8445 53.0269 67.7943 53.0848 67.7094 53.1003C67.6246 53.1157 67.5474 53.1003 67.4779 53.0539C67.4779 53.0539 67.4779 53.0578 67.4779 53.0655C67.4857 53.0655 67.4934 53.0655 67.5011 53.0655C67.4857 53.0578 67.4741 53.0539 67.4664 53.0539C67.4664 53.0539 67.4625 53.0539 67.4548 53.0539C67.4548 53.0539 67.4509 53.0539 67.4432 53.0539C67.4432 53.0539 67.4355 53.0539 67.4201 53.0539C67.4123 53.0539 67.4046 53.0539 67.3969 53.0539C67.3352 53.0462 67.258 53.0578 67.1654 53.0887C67.1654 53.0964 67.1422 53.108 67.0959 53.1234H67.0844L67.0728 53.135C67.0111 53.1736 66.9647 53.2083 66.9339 53.2392C66.9262 53.2392 66.9184 53.243 66.9107 53.2507C66.903 53.2585 66.8953 53.27 66.8876 53.2855C66.8799 53.2932 66.8721 53.3009 66.8644 53.3086C66.8644 53.3086 66.8606 53.3125 66.8528 53.3202L66.8413 53.3318C66.8027 53.3935 66.7757 53.4475 66.7602 53.4938C66.7294 53.5401 66.7062 53.598 66.6908 53.6675C66.6908 53.6675 66.6869 53.6906 66.6792 53.7369C66.6715 53.7755 66.6638 53.8141 66.6561 53.8527C66.6483 53.9298 66.6445 54.0147 66.6445 54.1073C66.6445 54.1691 66.6445 54.227 66.6445 54.281C66.6599 54.4739 66.6908 54.6823 66.7371 54.9061C66.7834 55.099 66.8683 55.3768 66.9918 55.7395C67.1152 56.0945 67.1847 56.2952 67.2001 56.3415C67.2464 56.5035 67.2773 56.6617 67.2927 56.8161C67.5628 56.708 67.8252 56.5884 68.0799 56.4572C69.2838 55.8244 70.1828 55.0566 70.777 54.1536Z" fill="#FAFAFA"/>
</svg>
