<svg width="78" height="57" viewBox="0 0 78 57" fill="none" xmlns="http://www.w3.org/2000/svg">
<path d="M28.3775 46C27.9614 48.92 26.5058 51.5919 24.2779 53.5248C22.05 55.4577 19.1995 56.5219 16.25 56.5219C13.3005 56.5219 10.45 55.4577 8.22212 53.5248C5.99425 51.5919 4.53858 48.92 4.1225 46H0.5V4C0.5 3.07174 0.868749 2.1815 1.52513 1.52513C2.1815 0.86875 3.07174 0.5 4 0.5H53C53.9283 0.5 54.8185 0.86875 55.4749 1.52513C56.1313 2.1815 56.5 3.07174 56.5 4V11H67L77.5 25.196V46H70.3775C69.9614 48.92 68.5058 51.5919 66.2779 53.5248C64.05 55.4577 61.1995 56.5219 58.25 56.5219C55.3005 56.5219 52.45 55.4577 50.2221 53.5248C47.9942 51.5919 46.5386 48.92 46.1225 46H28.3775ZM49.5 7.5H7.5V35.675C8.88097 34.2652 10.5821 33.2099 12.4586 32.5989C14.3352 31.9879 16.3315 31.8394 18.2778 32.1659C20.2241 32.4924 22.0627 33.2843 23.6371 34.4742C25.2116 35.6641 26.4752 37.2167 27.3205 39H47.1795C47.7675 37.7645 48.555 36.641 49.5 35.675V7.5ZM56.5 28.5H70.5V27.5025L63.472 18H56.5V28.5ZM58.25 49.5C59.6428 49.5 60.9787 48.9467 61.9636 47.9618C62.9484 46.9769 63.5017 45.6411 63.5017 44.2483C63.5017 42.8554 62.9484 41.5196 61.9636 40.5347C60.9787 39.5498 59.6428 38.9965 58.25 38.9965C56.8572 38.9965 55.5213 39.5498 54.5364 40.5347C53.5516 41.5196 52.9983 42.8554 52.9983 44.2483C52.9983 45.6411 53.5516 46.9769 54.5364 47.9618C55.5213 48.9467 56.8572 49.5 58.25 49.5ZM21.5 44.25C21.5 43.5606 21.3642 42.8779 21.1004 42.2409C20.8365 41.604 20.4498 41.0252 19.9623 40.5377C19.4748 40.0502 18.896 39.6635 18.2591 39.3996C17.6221 39.1358 16.9394 39 16.25 39C15.5606 39 14.8779 39.1358 14.2409 39.3996C13.604 39.6635 13.0252 40.0502 12.5377 40.5377C12.0502 41.0252 11.6635 41.604 11.3996 42.2409C11.1358 42.8779 11 43.5606 11 44.25C11 45.6424 11.5531 46.9777 12.5377 47.9623C13.5223 48.9469 14.8576 49.5 16.25 49.5C17.6424 49.5 18.9777 48.9469 19.9623 47.9623C20.9469 46.9777 21.5 45.6424 21.5 44.25Z" fill="#0DB8E3"/>
</svg>
