<svg width="16" height="13" viewBox="0 0 16 13" fill="none" xmlns="http://www.w3.org/2000/svg">
<path d="M15.5 1.92188C14.9373 2.16637 14.342 2.32744 13.7328 2.40001C14.373 2.02512 14.8545 1.42956 15.0869 0.725005C14.4816 1.07894 13.8205 1.32728 13.1319 1.45938C12.8419 1.15548 12.4932 0.913725 12.1069 0.748801C11.7205 0.583876 11.3047 0.499229 10.8847 0.500005C9.18406 0.500005 7.80781 1.85626 7.80781 3.52813C7.80661 3.76068 7.83325 3.99254 7.88719 4.21876C6.66772 4.16159 5.4736 3.8505 4.38124 3.3054C3.28889 2.76029 2.32234 1.99318 1.54344 1.05313C1.27018 1.51379 1.12567 2.03939 1.125 2.57501C1.125 3.62501 1.67281 4.55313 2.5 5.09688C2.00991 5.08525 1.52987 4.95554 1.10063 4.71876V4.75626C1.10063 6.22501 2.16313 7.44688 3.56938 7.72501C3.30493 7.7955 3.03243 7.83122 2.75875 7.83126C2.56456 7.83159 2.3708 7.81275 2.18031 7.775C2.57125 8.97813 3.70906 9.85313 5.05688 9.87813C3.96168 10.7222 2.61707 11.1784 1.23438 11.175C0.988943 11.1746 0.743739 11.16 0.5 11.1313C1.90662 12.0294 3.5417 12.5045 5.21063 12.5C10.8781 12.5 13.9744 7.88438 13.9744 3.88126C13.9744 3.75001 13.9709 3.61876 13.9647 3.49063C14.5657 3.06315 15.0856 2.53191 15.5 1.92188Z" fill="white"/>
</svg>
